<svg width="75" height="16" viewBox="0 0 75 16" fill="none" xmlns="http://www.w3.org/2000/svg">
<path d="M6.68 0.999999V15H2.72V4.06H0.12V0.999999H6.68ZM25.9858 0.999999V3.48L21.0458 15H16.7258L21.4458 4.14H17.7658V6.3H14.3858V0.999999H25.9858ZM33.0319 15.28C31.8319 15.28 30.7652 14.9933 29.8319 14.42C28.8985 13.8467 28.1652 13.0133 27.6319 11.92C27.1119 10.8133 26.8519 9.50667 26.8519 8C26.8519 6.49333 27.1119 5.19333 27.6319 4.1C28.1652 2.99333 28.8985 2.15333 29.8319 1.58C30.7652 1.00667 31.8319 0.719999 33.0319 0.719999C34.2185 0.719999 35.2785 1.00667 36.2119 1.58C37.1452 2.15333 37.8719 2.99333 38.3919 4.1C38.9252 5.19333 39.1919 6.49333 39.1919 8C39.1919 9.50667 38.9252 10.8133 38.3919 11.92C37.8719 13.0133 37.1452 13.8467 36.2119 14.42C35.2785 14.9933 34.2185 15.28 33.0319 15.28ZM33.0319 12.04C33.6985 12.04 34.2252 11.72 34.6119 11.08C35.0119 10.4267 35.2119 9.4 35.2119 8C35.2119 6.6 35.0119 5.58 34.6119 4.94C34.2252 4.28667 33.6985 3.96 33.0319 3.96C32.3519 3.96 31.8119 4.28667 31.4119 4.94C31.0252 5.58 30.8319 6.6 30.8319 8C30.8319 9.4 31.0252 10.4267 31.4119 11.08C31.8119 11.72 32.3519 12.04 33.0319 12.04ZM46.7233 15.28C45.5233 15.28 44.4566 14.9933 43.5233 14.42C42.5899 13.8467 41.8566 13.0133 41.3233 11.92C40.8033 10.8133 40.5433 9.50667 40.5433 8C40.5433 6.49333 40.8033 5.19333 41.3233 4.1C41.8566 2.99333 42.5899 2.15333 43.5233 1.58C44.4566 1.00667 45.5233 0.719999 46.7233 0.719999C47.9099 0.719999 48.9699 1.00667 49.9033 1.58C50.8366 2.15333 51.5633 2.99333 52.0833 4.1C52.6166 5.19333 52.8833 6.49333 52.8833 8C52.8833 9.50667 52.6166 10.8133 52.0833 11.92C51.5633 13.0133 50.8366 13.8467 49.9033 14.42C48.9699 14.9933 47.9099 15.28 46.7233 15.28ZM46.7233 12.04C47.3899 12.04 47.9166 11.72 48.3033 11.08C48.7033 10.4267 48.9033 9.4 48.9033 8C48.9033 6.6 48.7033 5.58 48.3033 4.94C47.9166 4.28667 47.3899 3.96 46.7233 3.96C46.0433 3.96 45.5033 4.28667 45.1033 4.94C44.7166 5.58 44.5233 6.6 44.5233 8C44.5233 9.4 44.7166 10.4267 45.1033 11.08C45.5033 11.72 46.0433 12.04 46.7233 12.04ZM65.815 10.48V11.54H70.075V13.48H65.815V15H61.835V13.48H59.975V11.54H61.835V0.999999H68.235C70.195 0.999999 71.7217 1.4 72.815 2.2C73.9083 3 74.455 4.18 74.455 5.74C74.455 7.3 73.9083 8.48 72.815 9.28C71.7217 10.08 70.195 10.48 68.235 10.48H65.815ZM70.455 5.78C70.455 5.24667 70.255 4.84 69.855 4.56C69.4683 4.26667 68.915 4.12 68.195 4.12H65.815V7.46H68.195C68.915 7.46 69.4683 7.31333 69.855 7.02C70.255 6.72667 70.455 6.31333 70.455 5.78Z" fill="white"/>
</svg>
