<svg width="166" height="74" viewBox="0 0 166 74" fill="none" xmlns="http://www.w3.org/2000/svg">
<g filter="url(#filter0_d)">
<path d="M20 27C20 17.8873 27.3873 10.5 36.5 10.5H129.5C138.613 10.5 146 17.8873 146 27C146 36.1127 138.613 43.5 129.5 43.5H36.5C27.3873 43.5 20 36.1127 20 27Z" fill="url(#paint0_linear)"/>
<path d="M50.3206 22.7V32.5H48.5286V24.24H43.4466V32.5H41.6546V22.7H50.3206ZM56.2199 32.598C55.4639 32.598 54.7826 32.4347 54.1759 32.108C53.5692 31.7813 53.0932 31.3287 52.7479 30.75C52.4119 30.162 52.2439 29.4993 52.2439 28.762C52.2439 28.0247 52.4119 27.3667 52.7479 26.788C53.0932 26.2093 53.5692 25.7567 54.1759 25.43C54.7826 25.1033 55.4639 24.94 56.2199 24.94C56.9852 24.94 57.6712 25.1033 58.2779 25.43C58.8846 25.7567 59.3559 26.2093 59.6919 26.788C60.0372 27.3667 60.2099 28.0247 60.2099 28.762C60.2099 29.4993 60.0372 30.162 59.6919 30.75C59.3559 31.3287 58.8846 31.7813 58.2779 32.108C57.6712 32.4347 56.9852 32.598 56.2199 32.598ZM56.2199 31.1C56.8639 31.1 57.3959 30.8853 57.8159 30.456C58.2359 30.0267 58.4459 29.462 58.4459 28.762C58.4459 28.062 58.2359 27.4973 57.8159 27.068C57.3959 26.6387 56.8639 26.424 56.2199 26.424C55.5759 26.424 55.0439 26.6387 54.6239 27.068C54.2132 27.4973 54.0079 28.062 54.0079 28.762C54.0079 29.462 54.2132 30.0267 54.6239 30.456C55.0439 30.8853 55.5759 31.1 56.2199 31.1ZM69.8367 31.016V34.166H68.1987V32.5H62.4307V34.166H60.8067V31.016H61.1567C61.6327 30.9973 61.9547 30.694 62.1227 30.106C62.3 29.5087 62.4167 28.6687 62.4727 27.586L62.5707 25.024H68.7307V31.016H69.8367ZM64.0687 27.712C64.0313 28.5707 63.9613 29.2707 63.8587 29.812C63.756 30.3533 63.5693 30.7547 63.2987 31.016H66.9807V26.508H64.1107L64.0687 27.712ZM75.5436 24.94C76.2716 24.94 76.9203 25.0987 77.4896 25.416C78.0683 25.7333 78.521 26.1813 78.8476 26.76C79.1743 27.3387 79.3376 28.006 79.3376 28.762C79.3376 29.518 79.1743 30.19 78.8476 30.778C78.521 31.3567 78.0683 31.8047 77.4896 32.122C76.9203 32.4393 76.2716 32.598 75.5436 32.598C74.5356 32.598 73.7376 32.262 73.1496 31.59V35.216H71.3996V25.024H73.0656V26.004C73.355 25.6493 73.7096 25.3833 74.1296 25.206C74.559 25.0287 75.0303 24.94 75.5436 24.94ZM75.3476 31.1C75.9916 31.1 76.519 30.8853 76.9296 30.456C77.3496 30.0267 77.5596 29.462 77.5596 28.762C77.5596 28.062 77.3496 27.4973 76.9296 27.068C76.519 26.6387 75.9916 26.424 75.3476 26.424C74.9276 26.424 74.5496 26.522 74.2136 26.718C73.8776 26.9047 73.6116 27.1753 73.4156 27.53C73.2196 27.8847 73.1216 28.2953 73.1216 28.762C73.1216 29.2287 73.2196 29.6393 73.4156 29.994C73.6116 30.3487 73.8776 30.624 74.2136 30.82C74.5496 31.0067 74.9276 31.1 75.3476 31.1ZM84.4113 32.598C83.6553 32.598 82.974 32.4347 82.3673 32.108C81.7607 31.7813 81.2847 31.3287 80.9393 30.75C80.6033 30.162 80.4353 29.4993 80.4353 28.762C80.4353 28.0247 80.6033 27.3667 80.9393 26.788C81.2847 26.2093 81.7607 25.7567 82.3673 25.43C82.974 25.1033 83.6553 24.94 84.4113 24.94C85.1767 24.94 85.8627 25.1033 86.4693 25.43C87.076 25.7567 87.5473 26.2093 87.8833 26.788C88.2287 27.3667 88.4013 28.0247 88.4013 28.762C88.4013 29.4993 88.2287 30.162 87.8833 30.75C87.5473 31.3287 87.076 31.7813 86.4693 32.108C85.8627 32.4347 85.1767 32.598 84.4113 32.598ZM84.4113 31.1C85.0553 31.1 85.5873 30.8853 86.0073 30.456C86.4273 30.0267 86.6373 29.462 86.6373 28.762C86.6373 28.062 86.4273 27.4973 86.0073 27.068C85.5873 26.6387 85.0553 26.424 84.4113 26.424C83.7673 26.424 83.2353 26.6387 82.8153 27.068C82.4047 27.4973 82.1993 28.062 82.1993 28.762C82.1993 29.462 82.4047 30.0267 82.8153 30.456C83.2353 30.8853 83.7673 31.1 84.4113 31.1ZM94.1761 25.388C94.8854 25.388 95.5108 25.542 96.0521 25.85C96.5934 26.1487 97.0134 26.5687 97.3121 27.11C97.6201 27.6513 97.7741 28.272 97.7741 28.972C97.7741 29.6907 97.6061 30.33 97.2701 30.89C96.9341 31.4407 96.4628 31.87 95.8561 32.178C95.2494 32.486 94.5588 32.64 93.7841 32.64C92.4868 32.64 91.4834 32.2107 90.7741 31.352C90.0648 30.4933 89.7101 29.2567 89.7101 27.642C89.7101 26.1393 90.0321 24.9493 90.6761 24.072C91.3201 23.1947 92.3048 22.616 93.6301 22.336L97.1021 21.594L97.3541 23.162L94.2041 23.806C93.2988 23.9927 92.6221 24.31 92.1741 24.758C91.7261 25.206 91.4648 25.836 91.3901 26.648C91.7261 26.2467 92.1321 25.9387 92.6081 25.724C93.0841 25.5 93.6068 25.388 94.1761 25.388ZM93.8261 31.226C94.4701 31.226 94.9881 31.0207 95.3801 30.61C95.7814 30.19 95.9821 29.658 95.9821 29.014C95.9821 28.37 95.7814 27.852 95.3801 27.46C94.9881 27.068 94.4701 26.872 93.8261 26.872C93.1728 26.872 92.6454 27.068 92.2441 27.46C91.8428 27.852 91.6421 28.37 91.6421 29.014C91.6421 29.6673 91.8428 30.1993 92.2441 30.61C92.6548 31.0207 93.1821 31.226 93.8261 31.226ZM99.468 25.024H101.218V28.062H104.984V25.024H106.734V32.5H104.984V29.546H101.218V32.5H99.468V25.024ZM116.079 28.804C116.079 28.9253 116.07 29.098 116.051 29.322H110.185C110.288 29.8727 110.554 30.3113 110.983 30.638C111.422 30.9553 111.963 31.114 112.607 31.114C113.429 31.114 114.105 30.8433 114.637 30.302L115.575 31.38C115.239 31.7813 114.815 32.0847 114.301 32.29C113.788 32.4953 113.209 32.598 112.565 32.598C111.744 32.598 111.021 32.4347 110.395 32.108C109.77 31.7813 109.285 31.3287 108.939 30.75C108.603 30.162 108.435 29.4993 108.435 28.762C108.435 28.034 108.599 27.3807 108.925 26.802C109.261 26.214 109.723 25.7567 110.311 25.43C110.899 25.1033 111.562 24.94 112.299 24.94C113.027 24.94 113.676 25.1033 114.245 25.43C114.824 25.7473 115.272 26.2 115.589 26.788C115.916 27.3667 116.079 28.0387 116.079 28.804ZM112.299 26.34C111.739 26.34 111.263 26.508 110.871 26.844C110.489 27.1707 110.255 27.6093 110.171 28.16H114.413C114.339 27.6187 114.11 27.18 113.727 26.844C113.345 26.508 112.869 26.34 112.299 26.34ZM124.993 28.804C124.993 28.9253 124.984 29.098 124.965 29.322H119.099C119.202 29.8727 119.468 30.3113 119.897 30.638C120.336 30.9553 120.877 31.114 121.521 31.114C122.343 31.114 123.019 30.8433 123.551 30.302L124.489 31.38C124.153 31.7813 123.729 32.0847 123.215 32.29C122.702 32.4953 122.123 32.598 121.479 32.598C120.658 32.598 119.935 32.4347 119.309 32.108C118.684 31.7813 118.199 31.3287 117.853 30.75C117.517 30.162 117.349 29.4993 117.349 28.762C117.349 28.034 117.513 27.3807 117.839 26.802C118.175 26.214 118.637 25.7567 119.225 25.43C119.813 25.1033 120.476 24.94 121.213 24.94C121.941 24.94 122.59 25.1033 123.159 25.43C123.738 25.7473 124.186 26.2 124.503 26.788C124.83 27.3667 124.993 28.0387 124.993 28.804ZM121.213 26.34C120.653 26.34 120.177 26.508 119.785 26.844C119.403 27.1707 119.169 27.6093 119.085 28.16H123.327C123.253 27.6187 123.024 27.18 122.641 26.844C122.259 26.508 121.783 26.34 121.213 26.34Z" fill="white"/>
</g>
<defs>
<filter id="filter0_d" x="0" y="0.5" width="166" height="73" filterUnits="userSpaceOnUse" color-interpolation-filters="sRGB">
<feFlood flood-opacity="0" result="BackgroundImageFix"/>
<feColorMatrix in="SourceAlpha" type="matrix" values="0 0 0 0 0 0 0 0 0 0 0 0 0 0 0 0 0 0 127 0" result="hardAlpha"/>
<feOffset dy="10"/>
<feGaussianBlur stdDeviation="10"/>
<feColorMatrix type="matrix" values="0 0 0 0 1 0 0 0 0 0.478431 0 0 0 0 0 0 0 0 0.2 0"/>
<feBlend mode="normal" in2="BackgroundImageFix" result="effect1_dropShadow"/>
<feBlend mode="normal" in="SourceGraphic" in2="effect1_dropShadow" result="shape"/>
</filter>
<linearGradient id="paint0_linear" x1="20" y1="27" x2="145.996" y2="25.0587" gradientUnits="userSpaceOnUse">
<stop stop-color="#FF7A00"/>
<stop offset="1" stop-color="#FFB039"/>
</linearGradient>
</defs>
</svg>
