<svg width="1440" height="140" viewBox="0 0 1440 140" fill="none" xmlns="http://www.w3.org/2000/svg">
<g filter="url(#filter0_d)">
<rect y="10" width="1440" height="100" fill="url(#paint0_linear)"/>
<rect x="270" y="71" width="67" height="1" fill="white"/>
<path d="M279.168 58.56H273.616L273.632 68H271.584V56.8H279.184L279.168 58.56ZM286.041 59.456V68H284.041V61.152H280.841L280.761 62.848C280.708 63.9787 280.601 64.928 280.441 65.696C280.292 66.4533 280.03 67.056 279.657 67.504C279.294 67.9413 278.793 68.16 278.153 68.16C277.854 68.16 277.486 68.1013 277.049 67.984L277.145 66.304C277.294 66.336 277.422 66.352 277.529 66.352C277.934 66.352 278.238 66.192 278.441 65.872C278.644 65.5413 278.772 65.152 278.825 64.704C278.889 64.2453 278.942 63.5947 278.985 62.752L279.129 59.456H286.041ZM291.919 59.36C293.177 59.36 294.137 59.664 294.799 60.272C295.471 60.8693 295.807 61.776 295.807 62.992V68H293.919V66.96C293.673 67.3333 293.321 67.6213 292.863 67.824C292.415 68.016 291.871 68.112 291.231 68.112C290.591 68.112 290.031 68.0053 289.551 67.792C289.071 67.568 288.697 67.264 288.431 66.88C288.175 66.4853 288.047 66.0427 288.047 65.552C288.047 64.784 288.329 64.1707 288.895 63.712C289.471 63.2427 290.372 63.008 291.599 63.008H293.807V62.88C293.807 62.2827 293.625 61.824 293.263 61.504C292.911 61.184 292.383 61.024 291.679 61.024C291.199 61.024 290.724 61.0987 290.255 61.248C289.796 61.3973 289.407 61.6053 289.087 61.872L288.303 60.416C288.751 60.0747 289.289 59.8133 289.919 59.632C290.548 59.4507 291.215 59.36 291.919 59.36ZM291.647 66.656C292.148 66.656 292.591 66.544 292.975 66.32C293.369 66.0853 293.647 65.7547 293.807 65.328V64.336H291.743C290.591 64.336 290.015 64.7147 290.015 65.472C290.015 65.8347 290.159 66.1227 290.447 66.336C290.735 66.5493 291.135 66.656 291.647 66.656ZM304.474 63.552C305.53 63.872 306.058 64.5547 306.058 65.6C306.058 66.368 305.77 66.96 305.194 67.376C304.618 67.792 303.764 68 302.634 68H298.282V59.456H302.458C303.503 59.456 304.319 59.648 304.906 60.032C305.492 60.416 305.786 60.96 305.786 61.664C305.786 62.1013 305.668 62.48 305.434 62.8C305.21 63.12 304.89 63.3707 304.474 63.552ZM300.186 63.024H302.282C303.316 63.024 303.834 62.6667 303.834 61.952C303.834 61.2587 303.316 60.912 302.282 60.912H300.186V63.024ZM302.474 66.544C303.572 66.544 304.122 66.1867 304.122 65.472C304.122 65.0987 303.994 64.8213 303.738 64.64C303.482 64.448 303.082 64.352 302.538 64.352H300.186V66.544H302.474ZM308.188 59.456H310.188V62.928H314.492V59.456H316.492V68H314.492V64.624H310.188V68H308.188V59.456ZM322.356 59.36C323.615 59.36 324.575 59.664 325.236 60.272C325.908 60.8693 326.244 61.776 326.244 62.992V68H324.356V66.96C324.111 67.3333 323.759 67.6213 323.3 67.824C322.852 68.016 322.308 68.112 321.668 68.112C321.028 68.112 320.468 68.0053 319.988 67.792C319.508 67.568 319.135 67.264 318.868 66.88C318.612 66.4853 318.484 66.0427 318.484 65.552C318.484 64.784 318.767 64.1707 319.332 63.712C319.908 63.2427 320.809 63.008 322.036 63.008H324.244V62.88C324.244 62.2827 324.063 61.824 323.7 61.504C323.348 61.184 322.82 61.024 322.116 61.024C321.636 61.024 321.161 61.0987 320.692 61.248C320.233 61.3973 319.844 61.6053 319.524 61.872L318.74 60.416C319.188 60.0747 319.727 59.8133 320.356 59.632C320.985 59.4507 321.652 59.36 322.356 59.36ZM322.084 66.656C322.585 66.656 323.028 66.544 323.412 66.32C323.807 66.0853 324.084 65.7547 324.244 65.328V64.336H322.18C321.028 64.336 320.452 64.7147 320.452 65.472C320.452 65.8347 320.596 66.1227 320.884 66.336C321.172 66.5493 321.572 66.656 322.084 66.656ZM335.935 59.456V68H334.143V65.424H331.887L330.143 68H327.999L330.015 65.152C329.396 64.9387 328.922 64.6133 328.591 64.176C328.271 63.728 328.111 63.1787 328.111 62.528C328.111 61.5467 328.458 60.7893 329.151 60.256C329.844 59.7227 330.799 59.456 332.015 59.456H335.935ZM332.079 61.136C330.788 61.136 330.143 61.6213 330.143 62.592C330.143 63.552 330.767 64.032 332.015 64.032H334.143V61.136H332.079Z" fill="white"/>
<path d="M383.696 63.28H381.616V68H379.568V56.8H381.616V61.488H383.76L386.976 56.8H389.184L385.36 62.224L389.328 68H386.976L383.696 63.28ZM396.927 63.552C397.983 63.872 398.511 64.5547 398.511 65.6C398.511 66.368 398.223 66.96 397.647 67.376C397.071 67.792 396.217 68 395.087 68H390.735V59.456H394.911C395.956 59.456 396.772 59.648 397.359 60.032C397.945 60.416 398.239 60.96 398.239 61.664C398.239 62.1013 398.121 62.48 397.887 62.8C397.663 63.12 397.343 63.3707 396.927 63.552ZM392.639 63.024H394.735C395.769 63.024 396.287 62.6667 396.287 61.952C396.287 61.2587 395.769 60.912 394.735 60.912H392.639V63.024ZM394.927 66.544C396.025 66.544 396.575 66.1867 396.575 65.472C396.575 65.0987 396.447 64.8213 396.191 64.64C395.935 64.448 395.535 64.352 394.991 64.352H392.639V66.544H394.927ZM403.825 59.36C405.084 59.36 406.044 59.664 406.705 60.272C407.377 60.8693 407.713 61.776 407.713 62.992V68H405.825V66.96C405.58 67.3333 405.228 67.6213 404.769 67.824C404.321 68.016 403.777 68.112 403.137 68.112C402.497 68.112 401.937 68.0053 401.457 67.792C400.977 67.568 400.604 67.264 400.337 66.88C400.081 66.4853 399.953 66.0427 399.953 65.552C399.953 64.784 400.236 64.1707 400.801 63.712C401.377 63.2427 402.278 63.008 403.505 63.008H405.713V62.88C405.713 62.2827 405.532 61.824 405.169 61.504C404.817 61.184 404.289 61.024 403.585 61.024C403.105 61.024 402.63 61.0987 402.161 61.248C401.702 61.3973 401.313 61.6053 400.993 61.872L400.209 60.416C400.657 60.0747 401.196 59.8133 401.825 59.632C402.454 59.4507 403.121 59.36 403.825 59.36ZM403.553 66.656C404.054 66.656 404.497 66.544 404.881 66.32C405.276 66.0853 405.553 65.7547 405.713 65.328V64.336H403.649C402.497 64.336 401.921 64.7147 401.921 65.472C401.921 65.8347 402.065 66.1227 402.353 66.336C402.641 66.5493 403.041 66.656 403.553 66.656ZM414.924 59.36C415.756 59.36 416.497 59.5413 417.148 59.904C417.809 60.2667 418.326 60.7787 418.7 61.44C419.073 62.1013 419.26 62.864 419.26 63.728C419.26 64.592 419.073 65.36 418.7 66.032C418.326 66.6933 417.809 67.2053 417.148 67.568C416.497 67.9307 415.756 68.112 414.924 68.112C413.772 68.112 412.86 67.728 412.188 66.96V71.104H410.188V59.456H412.092V60.576C412.422 60.1707 412.828 59.8667 413.308 59.664C413.798 59.4613 414.337 59.36 414.924 59.36ZM414.7 66.4C415.436 66.4 416.038 66.1547 416.508 65.664C416.988 65.1733 417.228 64.528 417.228 63.728C417.228 62.928 416.988 62.2827 416.508 61.792C416.038 61.3013 415.436 61.056 414.7 61.056C414.22 61.056 413.788 61.168 413.404 61.392C413.02 61.6053 412.716 61.9147 412.492 62.32C412.268 62.7253 412.156 63.1947 412.156 63.728C412.156 64.2613 412.268 64.7307 412.492 65.136C412.716 65.5413 413.02 65.856 413.404 66.08C413.788 66.2933 414.22 66.4 414.7 66.4ZM427.706 61.152H424.714V68H422.714V61.152H419.706V59.456H427.706V61.152ZM429.157 59.456H431.157V65.088L435.877 59.456H437.701V68H435.701V62.368L430.997 68H429.157V59.456ZM445.127 59.36C445.959 59.36 446.7 59.5413 447.351 59.904C448.012 60.2667 448.53 60.7787 448.903 61.44C449.276 62.1013 449.463 62.864 449.463 63.728C449.463 64.592 449.276 65.36 448.903 66.032C448.53 66.6933 448.012 67.2053 447.351 67.568C446.7 67.9307 445.959 68.112 445.127 68.112C443.975 68.112 443.063 67.728 442.391 66.96V71.104H440.391V59.456H442.295V60.576C442.626 60.1707 443.031 59.8667 443.511 59.664C444.002 59.4613 444.54 59.36 445.127 59.36ZM444.903 66.4C445.639 66.4 446.242 66.1547 446.711 65.664C447.191 65.1733 447.431 64.528 447.431 63.728C447.431 62.928 447.191 62.2827 446.711 61.792C446.242 61.3013 445.639 61.056 444.903 61.056C444.423 61.056 443.991 61.168 443.607 61.392C443.223 61.6053 442.919 61.9147 442.695 62.32C442.471 62.7253 442.359 63.1947 442.359 63.728C442.359 64.2613 442.471 64.7307 442.695 65.136C442.919 65.5413 443.223 65.856 443.607 66.08C443.991 66.2933 444.423 66.4 444.903 66.4ZM455.613 62.272C456.701 62.272 457.533 62.5173 458.109 63.008C458.685 63.4987 458.973 64.192 458.973 65.088C458.973 66.0267 458.653 66.752 458.013 67.264C457.384 67.776 456.488 68.0267 455.325 68.016L451.453 68V59.456H453.453V62.256L455.613 62.272ZM460.077 59.456H462.077V68H460.077V59.456ZM455.149 66.544C455.736 66.5547 456.184 66.432 456.493 66.176C456.803 65.92 456.957 65.5467 456.957 65.056C456.957 64.576 456.808 64.224 456.509 64C456.211 63.776 455.757 63.6587 455.149 63.648L453.453 63.632V66.528L455.149 66.544Z" fill="white"/>
<path d="M509.696 63.28H507.616V68H505.568V56.8H507.616V61.488H509.76L512.976 56.8H515.184L511.36 62.224L515.328 68H512.976L509.696 63.28ZM520.215 68.112C519.351 68.112 518.572 67.9253 517.879 67.552C517.185 67.1787 516.641 66.6613 516.247 66C515.863 65.328 515.671 64.5707 515.671 63.728C515.671 62.8853 515.863 62.1333 516.247 61.472C516.641 60.8107 517.185 60.2933 517.879 59.92C518.572 59.5467 519.351 59.36 520.215 59.36C521.089 59.36 521.873 59.5467 522.567 59.92C523.26 60.2933 523.799 60.8107 524.183 61.472C524.577 62.1333 524.775 62.8853 524.775 63.728C524.775 64.5707 524.577 65.328 524.183 66C523.799 66.6613 523.26 67.1787 522.567 67.552C521.873 67.9253 521.089 68.112 520.215 68.112ZM520.215 66.4C520.951 66.4 521.559 66.1547 522.039 65.664C522.519 65.1733 522.759 64.528 522.759 63.728C522.759 62.928 522.519 62.2827 522.039 61.792C521.559 61.3013 520.951 61.056 520.215 61.056C519.479 61.056 518.871 61.3013 518.391 61.792C517.921 62.2827 517.687 62.928 517.687 63.728C517.687 64.528 517.921 65.1733 518.391 65.664C518.871 66.1547 519.479 66.4 520.215 66.4ZM526.75 59.456H528.75V62.928H533.054V59.456H535.054V68H533.054V64.624H528.75V68H526.75V59.456ZM544.503 61.152H541.511V68H539.511V61.152H536.503V59.456H544.503V61.152ZM549.137 59.36C550.396 59.36 551.356 59.664 552.017 60.272C552.689 60.8693 553.025 61.776 553.025 62.992V68H551.137V66.96C550.892 67.3333 550.54 67.6213 550.081 67.824C549.633 68.016 549.089 68.112 548.449 68.112C547.809 68.112 547.249 68.0053 546.769 67.792C546.289 67.568 545.916 67.264 545.649 66.88C545.393 66.4853 545.265 66.0427 545.265 65.552C545.265 64.784 545.548 64.1707 546.113 63.712C546.689 63.2427 547.591 63.008 548.817 63.008H551.025V62.88C551.025 62.2827 550.844 61.824 550.481 61.504C550.129 61.184 549.601 61.024 548.897 61.024C548.417 61.024 547.943 61.0987 547.473 61.248C547.015 61.3973 546.625 61.6053 546.305 61.872L545.521 60.416C545.969 60.0747 546.508 59.8133 547.137 59.632C547.767 59.4507 548.433 59.36 549.137 59.36ZM548.865 66.656C549.367 66.656 549.809 66.544 550.193 66.32C550.588 66.0853 550.865 65.7547 551.025 65.328V64.336H548.961C547.809 64.336 547.233 64.7147 547.233 65.472C547.233 65.8347 547.377 66.1227 547.665 66.336C547.953 66.5493 548.353 66.656 548.865 66.656ZM559.052 64.576H557.5V68H555.5V59.456H557.5V62.912H559.1L561.628 59.456H563.772L560.668 63.568L563.98 68H561.628L559.052 64.576ZM572.05 61.152H569.058V68H567.058V61.152H564.05V59.456H572.05V61.152ZM577.66 62.272C578.748 62.272 579.58 62.5173 580.156 63.008C580.732 63.4987 581.02 64.192 581.02 65.088C581.02 66.0267 580.7 66.752 580.06 67.264C579.431 67.776 578.535 68.0267 577.372 68.016L573.5 68V59.456H575.5V62.256L577.66 62.272ZM582.124 59.456H584.124V68H582.124V59.456ZM577.196 66.544C577.783 66.5547 578.231 66.432 578.54 66.176C578.85 65.92 579.004 65.5467 579.004 65.056C579.004 64.576 578.855 64.224 578.556 64C578.258 63.776 577.804 63.6587 577.196 63.648L575.5 63.632V66.528L577.196 66.544Z" fill="white"/>
<path d="M632.752 68.16C631.611 68.16 630.581 67.9147 629.664 67.424C628.747 66.9227 628.027 66.2347 627.504 65.36C626.981 64.4747 626.72 63.488 626.72 62.4C626.72 61.312 626.981 60.3307 627.504 59.456C628.027 58.5707 628.747 57.8827 629.664 57.392C630.581 56.8907 631.611 56.64 632.752 56.64C633.893 56.64 634.923 56.8907 635.84 57.392C636.757 57.8827 637.477 58.5653 638 59.44C638.523 60.3147 638.784 61.3013 638.784 62.4C638.784 63.4987 638.523 64.4853 638 65.36C637.477 66.2347 636.757 66.9227 635.84 67.424C634.923 67.9147 633.893 68.16 632.752 68.16ZM632.752 66.336C633.499 66.336 634.171 66.1707 634.768 65.84C635.365 65.4987 635.835 65.0293 636.176 64.432C636.517 63.824 636.688 63.1467 636.688 62.4C636.688 61.6533 636.517 60.9813 636.176 60.384C635.835 59.776 635.365 59.3067 634.768 58.976C634.171 58.6347 633.499 58.464 632.752 58.464C632.005 58.464 631.333 58.6347 630.736 58.976C630.139 59.3067 629.669 59.776 629.328 60.384C628.987 60.9813 628.816 61.6533 628.816 62.4C628.816 63.1467 628.987 63.824 629.328 64.432C629.669 65.0293 630.139 65.4987 630.736 65.84C631.333 66.1707 632.005 66.336 632.752 66.336ZM645.282 59.456H647.282V62.928H651.586V59.456H653.586V68H651.586V64.624H647.282V68H645.282V59.456ZM659.45 59.36C660.709 59.36 661.669 59.664 662.33 60.272C663.002 60.8693 663.338 61.776 663.338 62.992V68H661.45V66.96C661.205 67.3333 660.853 67.6213 660.394 67.824C659.946 68.016 659.402 68.112 658.762 68.112C658.122 68.112 657.562 68.0053 657.082 67.792C656.602 67.568 656.229 67.264 655.962 66.88C655.706 66.4853 655.578 66.0427 655.578 65.552C655.578 64.784 655.861 64.1707 656.426 63.712C657.002 63.2427 657.903 63.008 659.13 63.008H661.338V62.88C661.338 62.2827 661.157 61.824 660.794 61.504C660.442 61.184 659.914 61.024 659.21 61.024C658.73 61.024 658.255 61.0987 657.786 61.248C657.327 61.3973 656.938 61.6053 656.618 61.872L655.834 60.416C656.282 60.0747 656.821 59.8133 657.45 59.632C658.079 59.4507 658.746 59.36 659.45 59.36ZM659.178 66.656C659.679 66.656 660.122 66.544 660.506 66.32C660.901 66.0853 661.178 65.7547 661.338 65.328V64.336H659.274C658.122 64.336 657.546 64.7147 657.546 65.472C657.546 65.8347 657.69 66.1227 657.978 66.336C658.266 66.5493 658.666 66.656 659.178 66.656ZM669.701 68.112C668.815 68.112 668.021 67.9253 667.317 67.552C666.613 67.1787 666.063 66.6613 665.669 66C665.274 65.328 665.077 64.5707 665.077 63.728C665.077 62.8853 665.274 62.1333 665.669 61.472C666.063 60.8107 666.607 60.2933 667.301 59.92C668.005 59.5467 668.805 59.36 669.701 59.36C670.543 59.36 671.279 59.5307 671.909 59.872C672.549 60.2133 673.029 60.704 673.349 61.344L671.813 62.24C671.567 61.8453 671.258 61.552 670.885 61.36C670.522 61.1573 670.122 61.056 669.685 61.056C668.938 61.056 668.319 61.3013 667.829 61.792C667.338 62.272 667.093 62.9173 667.093 63.728C667.093 64.5387 667.333 65.1893 667.813 65.68C668.303 66.16 668.927 66.4 669.685 66.4C670.122 66.4 670.522 66.304 670.885 66.112C671.258 65.9093 671.567 65.6107 671.813 65.216L673.349 66.112C673.018 66.752 672.533 67.248 671.893 67.6C671.263 67.9413 670.533 68.112 669.701 68.112Z" fill="white"/>
<rect x="80" y="30" width="150" height="60" rx="10" fill="#2B7AF1"/>
<path d="M126.104 53.4V66H122.594V56.226H118.976L118.904 58.278C118.844 60.078 118.694 61.542 118.454 62.67C118.226 63.798 117.83 64.674 117.266 65.298C116.702 65.91 115.904 66.216 114.872 66.216C114.392 66.216 113.852 66.144 113.252 66L113.45 63.084C113.606 63.12 113.768 63.138 113.936 63.138C114.404 63.138 114.764 62.952 115.016 62.58C115.268 62.208 115.448 61.692 115.556 61.032C115.664 60.36 115.736 59.49 115.772 58.422L115.952 53.4H126.104ZM133.407 66.162C132.363 66.162 131.421 65.946 130.581 65.514C129.741 65.082 129.081 64.482 128.601 63.714C128.133 62.946 127.899 62.076 127.899 61.104C127.899 60.144 128.133 59.28 128.601 58.512C129.081 57.744 129.735 57.15 130.563 56.73C131.403 56.298 132.351 56.082 133.407 56.082C134.463 56.082 135.411 56.298 136.251 56.73C137.091 57.15 137.745 57.744 138.213 58.512C138.681 59.268 138.915 60.132 138.915 61.104C138.915 62.076 138.681 62.946 138.213 63.714C137.745 64.482 137.091 65.082 136.251 65.514C135.411 65.946 134.463 66.162 133.407 66.162ZM133.407 63.444C134.007 63.444 134.499 63.24 134.883 62.832C135.267 62.412 135.459 61.836 135.459 61.104C135.459 60.384 135.267 59.82 134.883 59.412C134.499 59.004 134.007 58.8 133.407 58.8C132.807 58.8 132.315 59.004 131.931 59.412C131.547 59.82 131.355 60.384 131.355 61.104C131.355 61.836 131.547 62.412 131.931 62.832C132.315 63.24 132.807 63.444 133.407 63.444ZM148.691 58.962H143.921V66H140.519V56.244H148.691V58.962ZM154.448 66.162C153.404 66.162 152.462 65.946 151.622 65.514C150.782 65.082 150.122 64.482 149.642 63.714C149.174 62.946 148.94 62.076 148.94 61.104C148.94 60.144 149.174 59.28 149.642 58.512C150.122 57.744 150.776 57.15 151.604 56.73C152.444 56.298 153.392 56.082 154.448 56.082C155.504 56.082 156.452 56.298 157.292 56.73C158.132 57.15 158.786 57.744 159.254 58.512C159.722 59.268 159.956 60.132 159.956 61.104C159.956 62.076 159.722 62.946 159.254 63.714C158.786 64.482 158.132 65.082 157.292 65.514C156.452 65.946 155.504 66.162 154.448 66.162ZM154.448 63.444C155.048 63.444 155.54 63.24 155.924 62.832C156.308 62.412 156.5 61.836 156.5 61.104C156.5 60.384 156.308 59.82 155.924 59.412C155.54 59.004 155.048 58.8 154.448 58.8C153.848 58.8 153.356 59.004 152.972 59.412C152.588 59.82 152.396 60.384 152.396 61.104C152.396 61.836 152.588 62.412 152.972 62.832C153.356 63.24 153.848 63.444 154.448 63.444ZM169.921 58.962H166.789V66H163.387V58.962H160.237V56.244H169.921V58.962ZM171.246 56.244H174.648V61.356L178.734 56.244H181.884V66H178.464V60.87L174.414 66H171.246V56.244ZM194.263 56.244V66H190.861V58.962H187.585V66H184.183V56.244H194.263Z" fill="white"/>
<path d="M788.08 57.52C789.136 57.52 789.963 57.824 790.56 58.432C791.168 59.04 791.472 59.936 791.472 61.12V66H790.336V61.232C790.336 60.3573 790.123 59.6907 789.696 59.232C789.28 58.7733 788.688 58.544 787.92 58.544C787.045 58.544 786.357 58.816 785.856 59.36C785.355 59.8933 785.104 60.6347 785.104 61.584V66H783.968V61.232C783.968 60.3573 783.755 59.6907 783.328 59.232C782.912 58.7733 782.315 58.544 781.536 58.544C780.672 58.544 779.984 58.816 779.472 59.36C778.971 59.8933 778.72 60.6347 778.72 61.584V66H777.584V57.584H778.672V59.12C778.971 58.608 779.387 58.2133 779.92 57.936C780.453 57.6587 781.067 57.52 781.76 57.52C782.464 57.52 783.072 57.6693 783.584 57.968C784.107 58.2667 784.496 58.7093 784.752 59.296C785.061 58.7413 785.504 58.3093 786.08 58C786.667 57.68 787.333 57.52 788.08 57.52ZM797.497 57.52C798.595 57.52 799.438 57.7973 800.025 58.352C800.611 58.896 800.905 59.7067 800.905 60.784V66H799.817V64.688C799.561 65.1253 799.182 65.4667 798.681 65.712C798.19 65.9573 797.603 66.08 796.921 66.08C795.982 66.08 795.235 65.856 794.681 65.408C794.126 64.96 793.849 64.368 793.849 63.632C793.849 62.9173 794.105 62.3413 794.617 61.904C795.139 61.4667 795.966 61.248 797.097 61.248H799.769V60.736C799.769 60.0107 799.566 59.4613 799.161 59.088C798.755 58.704 798.163 58.512 797.385 58.512C796.851 58.512 796.339 58.6027 795.849 58.784C795.358 58.9547 794.937 59.1947 794.585 59.504L794.073 58.656C794.499 58.2933 795.011 58.016 795.609 57.824C796.206 57.6213 796.835 57.52 797.497 57.52ZM797.097 65.184C797.737 65.184 798.286 65.04 798.745 64.752C799.203 64.4533 799.545 64.0267 799.769 63.472V62.096H797.129C795.689 62.096 794.969 62.5973 794.969 63.6C794.969 64.0907 795.155 64.48 795.529 64.768C795.902 65.0453 796.425 65.184 797.097 65.184ZM803.99 57.584H805.126V66H803.99V57.584ZM804.566 55.744C804.332 55.744 804.134 55.664 803.974 55.504C803.814 55.344 803.734 55.152 803.734 54.928C803.734 54.7147 803.814 54.528 803.974 54.368C804.134 54.208 804.332 54.128 804.566 54.128C804.801 54.128 804.998 54.208 805.158 54.368C805.318 54.5173 805.398 54.6987 805.398 54.912C805.398 55.1467 805.318 55.344 805.158 55.504C804.998 55.664 804.801 55.744 804.566 55.744ZM808.287 54.128H809.423V66H808.287V54.128ZM819.304 54.704C820.733 54.704 822.008 55.0027 823.128 55.6C824.259 56.1867 825.139 57.0187 825.768 58.096C826.397 59.1627 826.712 60.384 826.712 61.76C826.712 63.1147 826.477 64.176 826.008 64.944C825.539 65.7013 824.888 66.08 824.056 66.08C823.533 66.08 823.107 65.9253 822.776 65.616C822.456 65.3067 822.28 64.88 822.248 64.336C821.928 64.8907 821.491 65.3227 820.936 65.632C820.381 65.9307 819.752 66.08 819.048 66.08C818.301 66.08 817.624 65.904 817.016 65.552C816.419 65.1893 815.944 64.6933 815.592 64.064C815.251 63.4347 815.08 62.7253 815.08 61.936C815.08 61.1467 815.251 60.4427 815.592 59.824C815.944 59.1947 816.419 58.704 817.016 58.352C817.624 58 818.301 57.824 819.048 57.824C819.731 57.824 820.344 57.9733 820.888 58.272C821.443 58.56 821.885 58.9707 822.216 59.504V57.888H823.256V63.952C823.256 64.3787 823.347 64.688 823.528 64.88C823.709 65.072 823.949 65.168 824.248 65.168C824.749 65.168 825.144 64.8693 825.432 64.272C825.731 63.6747 825.88 62.8427 825.88 61.776C825.88 60.5387 825.603 59.4507 825.048 58.512C824.493 57.5627 823.715 56.8267 822.712 56.304C821.72 55.7813 820.584 55.52 819.304 55.52C818.013 55.52 816.867 55.792 815.864 56.336C814.872 56.8693 814.099 57.6267 813.544 58.608C812.989 59.5787 812.712 60.688 812.712 61.936C812.712 63.184 812.984 64.2987 813.528 65.28C814.083 66.2613 814.851 67.024 815.832 67.568C816.824 68.112 817.96 68.384 819.24 68.384C819.741 68.384 820.264 68.3253 820.808 68.208C821.363 68.0907 821.864 67.9147 822.312 67.68L822.584 68.464C822.125 68.6987 821.592 68.88 820.984 69.008C820.387 69.136 819.805 69.2 819.24 69.2C817.789 69.2 816.504 68.8907 815.384 68.272C814.264 67.6533 813.389 66.7947 812.76 65.696C812.141 64.5867 811.832 63.3333 811.832 61.936C811.832 60.528 812.147 59.28 812.776 58.192C813.405 57.0933 814.285 56.24 815.416 55.632C816.557 55.0133 817.853 54.704 819.304 54.704ZM819.192 65.152C819.768 65.152 820.285 65.0187 820.744 64.752C821.203 64.4853 821.565 64.112 821.832 63.632C822.099 63.1413 822.232 62.576 822.232 61.936C822.232 61.3067 822.099 60.752 821.832 60.272C821.565 59.7813 821.203 59.408 820.744 59.152C820.285 58.8853 819.768 58.752 819.192 58.752C818.605 58.752 818.077 58.8853 817.608 59.152C817.149 59.4187 816.787 59.792 816.52 60.272C816.264 60.752 816.136 61.3067 816.136 61.936C816.136 62.5653 816.264 63.1253 816.52 63.616C816.787 64.096 817.149 64.4747 817.608 64.752C818.077 65.0187 818.605 65.152 819.192 65.152ZM836.187 57.584L831.979 67.008C831.638 67.7973 831.243 68.3573 830.795 68.688C830.347 69.0187 829.809 69.184 829.179 69.184C828.774 69.184 828.395 69.12 828.043 68.992C827.691 68.864 827.387 68.672 827.131 68.416L827.659 67.568C828.086 67.9947 828.598 68.208 829.195 68.208C829.579 68.208 829.905 68.1013 830.171 67.888C830.449 67.6747 830.705 67.312 830.939 66.8L831.307 65.984L827.547 57.584H828.731L831.899 64.736L835.067 57.584H836.187ZM840.481 57.52C841.58 57.52 842.422 57.7973 843.009 58.352C843.596 58.896 843.889 59.7067 843.889 60.784V66H842.801V64.688C842.545 65.1253 842.166 65.4667 841.665 65.712C841.174 65.9573 840.588 66.08 839.905 66.08C838.966 66.08 838.22 65.856 837.665 65.408C837.11 64.96 836.833 64.368 836.833 63.632C836.833 62.9173 837.089 62.3413 837.601 61.904C838.124 61.4667 838.95 61.248 840.081 61.248H842.753V60.736C842.753 60.0107 842.55 59.4613 842.145 59.088C841.74 58.704 841.148 58.512 840.369 58.512C839.836 58.512 839.324 58.6027 838.833 58.784C838.342 58.9547 837.921 59.1947 837.569 59.504L837.057 58.656C837.484 58.2933 837.996 58.016 838.593 57.824C839.19 57.6213 839.82 57.52 840.481 57.52ZM840.081 65.184C840.721 65.184 841.27 65.04 841.729 64.752C842.188 64.4533 842.529 64.0267 842.753 63.472V62.096H840.113C838.673 62.096 837.953 62.5973 837.953 63.6C837.953 64.0907 838.14 64.48 838.513 64.768C838.886 65.0453 839.409 65.184 840.081 65.184ZM851.263 57.52C852.319 57.52 853.156 57.8293 853.775 58.448C854.404 59.056 854.719 59.9467 854.719 61.12V66H853.583V61.232C853.583 60.3573 853.364 59.6907 852.927 59.232C852.489 58.7733 851.865 58.544 851.055 58.544C850.148 58.544 849.428 58.816 848.895 59.36C848.372 59.8933 848.111 60.6347 848.111 61.584V66H846.975V57.584H848.063V59.136C848.372 58.624 848.799 58.2293 849.343 57.952C849.897 57.664 850.537 57.52 851.263 57.52ZM865.514 54.128V66H864.426V64.336C864.085 64.9013 863.631 65.3333 863.066 65.632C862.511 65.9307 861.882 66.08 861.178 66.08C860.389 66.08 859.674 65.8987 859.034 65.536C858.394 65.1733 857.893 64.6667 857.53 64.016C857.167 63.3653 856.986 62.624 856.986 61.792C856.986 60.96 857.167 60.2187 857.53 59.568C857.893 58.9173 858.394 58.416 859.034 58.064C859.674 57.7013 860.389 57.52 861.178 57.52C861.861 57.52 862.474 57.664 863.018 57.952C863.573 58.2293 864.026 58.64 864.378 59.184V54.128H865.514ZM861.274 65.072C861.861 65.072 862.389 64.9387 862.858 64.672C863.338 64.3947 863.711 64.0053 863.978 63.504C864.255 63.0027 864.394 62.432 864.394 61.792C864.394 61.152 864.255 60.5813 863.978 60.08C863.711 59.5787 863.338 59.1947 862.858 58.928C862.389 58.6507 861.861 58.512 861.274 58.512C860.677 58.512 860.138 58.6507 859.658 58.928C859.189 59.1947 858.815 59.5787 858.538 60.08C858.271 60.5813 858.138 61.152 858.138 61.792C858.138 62.432 858.271 63.0027 858.538 63.504C858.815 64.0053 859.189 64.3947 859.658 64.672C860.138 64.9387 860.677 65.072 861.274 65.072ZM876.006 62.144H868.966C869.03 63.0187 869.366 63.728 869.974 64.272C870.582 64.8053 871.35 65.072 872.278 65.072C872.8 65.072 873.28 64.9813 873.718 64.8C874.155 64.608 874.534 64.3307 874.854 63.968L875.494 64.704C875.12 65.152 874.651 65.4933 874.086 65.728C873.531 65.9627 872.918 66.08 872.246 66.08C871.382 66.08 870.614 65.8987 869.942 65.536C869.28 65.1627 868.763 64.6507 868.39 64C868.016 63.3493 867.83 62.6133 867.83 61.792C867.83 60.9707 868.006 60.2347 868.358 59.584C868.72 58.9333 869.211 58.4267 869.83 58.064C870.459 57.7013 871.163 57.52 871.942 57.52C872.72 57.52 873.419 57.7013 874.038 58.064C874.656 58.4267 875.142 58.9333 875.494 59.584C875.846 60.224 876.022 60.96 876.022 61.792L876.006 62.144ZM871.942 58.496C871.131 58.496 870.448 58.7573 869.894 59.28C869.35 59.792 869.04 60.464 868.966 61.296H874.934C874.859 60.464 874.544 59.792 873.99 59.28C873.446 58.7573 872.763 58.496 871.942 58.496ZM883.46 66L880.788 62.48L878.1 66H876.82L880.148 61.68L876.98 57.584H878.26L880.788 60.88L883.316 57.584H884.564L881.396 61.68L884.756 66H883.46ZM886.759 66.08C886.524 66.08 886.321 65.9947 886.151 65.824C885.991 65.6533 885.911 65.4453 885.911 65.2C885.911 64.9547 885.991 64.752 886.151 64.592C886.321 64.4213 886.524 64.336 886.759 64.336C886.993 64.336 887.196 64.4213 887.367 64.592C887.537 64.752 887.623 64.9547 887.623 65.2C887.623 65.4453 887.537 65.6533 887.367 65.824C887.196 65.9947 886.993 66.08 886.759 66.08ZM891.125 59.232C891.392 58.6667 891.786 58.24 892.309 57.952C892.842 57.664 893.498 57.52 894.277 57.52V58.624L894.005 58.608C893.12 58.608 892.426 58.88 891.925 59.424C891.424 59.968 891.173 60.7307 891.173 61.712V66H890.037V57.584H891.125V59.232ZM904.043 57.584V66H902.955V64.464C902.656 64.976 902.246 65.376 901.723 65.664C901.2 65.9413 900.603 66.08 899.931 66.08C898.832 66.08 897.963 65.776 897.323 65.168C896.694 64.5493 896.379 63.648 896.379 62.464V57.584H897.515V62.352C897.515 63.2373 897.734 63.9093 898.171 64.368C898.608 64.8267 899.232 65.056 900.043 65.056C900.928 65.056 901.627 64.7893 902.139 64.256C902.651 63.712 902.907 62.96 902.907 62V57.584H904.043Z" fill="white"/>
<circle cx="746" cy="60" r="20" fill="#2B7AF1"/>
<path d="M754.402 53H737.598C737.439 53.0002 737.287 53.0609 737.175 53.1687C737.063 53.2766 737 53.4228 737 53.5753V54.7327C737 54.786 737.06 54.8473 737.109 54.872L745.942 59.7282C745.965 59.7406 745.991 59.7471 746.017 59.7469C746.043 59.7469 746.069 59.7401 746.092 59.7271L754.658 54.8767C754.707 54.8509 754.834 54.7825 754.882 54.751C754.94 54.7129 755 54.6785 755 54.6103V53.5751C755 53.4226 754.937 53.2765 754.825 53.1686C754.713 53.0608 754.561 53.0002 754.402 53Z" fill="white"/>
<path d="M754.925 56.4778C754.902 56.4651 754.876 56.4586 754.85 56.4587C754.823 56.4589 754.797 56.4658 754.775 56.4787L749.927 59.2239C749.908 59.2347 749.891 59.2496 749.879 59.2674C749.866 59.2853 749.858 59.3056 749.855 59.3269C749.851 59.3481 749.853 59.3699 749.86 59.3904C749.866 59.411 749.878 59.4298 749.893 59.4455L754.741 64.4758C754.755 64.4904 754.772 64.502 754.791 64.5099C754.81 64.5178 754.83 64.5218 754.851 64.5217C754.89 64.5217 754.928 64.5065 754.956 64.4796C754.984 64.4526 755 64.4161 755 64.378V56.6026C755 56.5774 754.993 56.5525 754.98 56.5306C754.967 56.5086 754.948 56.4904 754.925 56.4778Z" fill="white"/>
<path d="M748.53 60.1457C748.507 60.1216 748.476 60.1058 748.442 60.1009C748.409 60.0961 748.374 60.1025 748.345 60.1191L746.402 61.2196C746.288 61.2829 746.159 61.3166 746.028 61.3175C745.896 61.3183 745.767 61.2862 745.652 61.2243L743.942 60.2841C743.915 60.2689 743.883 60.2626 743.851 60.2661C743.82 60.2696 743.79 60.2827 743.767 60.3034L737.273 66.1008C737.256 66.1161 737.243 66.135 737.235 66.156C737.227 66.1771 737.224 66.1997 737.227 66.2219C737.229 66.2442 737.237 66.2656 737.25 66.2844C737.262 66.3032 737.28 66.3189 737.3 66.3303C737.401 66.3874 737.498 66.4146 737.597 66.4146H754.23C754.26 66.4147 754.288 66.4065 754.312 66.3911C754.337 66.3757 754.356 66.3538 754.367 66.328C754.379 66.3024 754.382 66.2741 754.378 66.2465C754.373 66.219 754.359 66.1934 754.34 66.173L748.53 60.1457Z" fill="white"/>
<path d="M742.338 59.6179C742.355 59.6026 742.368 59.5836 742.376 59.5625C742.385 59.5413 742.387 59.5186 742.385 59.4962C742.382 59.4738 742.374 59.4523 742.361 59.4335C742.349 59.4146 742.331 59.3989 742.311 59.3877L737.223 56.5905C737.2 56.5781 737.174 56.5716 737.148 56.5718C737.122 56.5719 737.097 56.5787 737.074 56.5913C737.051 56.604 737.033 56.6221 737.02 56.644C737.007 56.6658 737 56.6905 737 56.7156V64.0551C737 64.0831 737.008 64.1106 737.024 64.1341C737.04 64.1576 737.063 64.1761 737.089 64.1873C737.116 64.1985 737.146 64.2019 737.174 64.1971C737.203 64.1924 737.23 64.1796 737.251 64.1604L742.338 59.6179Z" fill="white"/>
<path d="M984.08 60.88H981.104V63.792H980.096V60.88H977.12V59.936H980.096V57.008H981.104V59.936H984.08V60.88ZM993.783 54.8V55.616L989.095 66H987.847L992.455 55.824H986.695V57.92H985.559V54.8H993.783ZM1002.18 69.104C1001.58 68.1227 1001.12 66.9973 1000.8 65.728C1000.48 64.448 1000.32 63.0773 1000.32 61.616C1000.32 60.1547 1000.48 58.784 1000.8 57.504C1001.12 56.2133 1001.58 55.088 1002.18 54.128H1003.26C1002.63 55.2053 1002.17 56.3627 1001.87 57.6C1001.58 58.8373 1001.44 60.176 1001.44 61.616C1001.44 63.056 1001.58 64.3947 1001.87 65.632C1002.17 66.8693 1002.63 68.0267 1003.26 69.104H1002.18ZM1008.24 54.704C1009.72 54.704 1010.86 55.1947 1011.65 56.176C1012.44 57.1467 1012.83 58.5227 1012.83 60.304C1012.83 61.552 1012.62 62.608 1012.19 63.472C1011.77 64.336 1011.17 64.992 1010.4 65.44C1009.63 65.8773 1008.74 66.096 1007.71 66.096C1006.6 66.096 1005.72 65.8933 1005.06 65.488L1005.52 64.56C1006.06 64.912 1006.78 65.088 1007.7 65.088C1008.94 65.088 1009.91 64.6987 1010.61 63.92C1011.31 63.1307 1011.67 61.9893 1011.67 60.496C1011.67 60.2187 1011.65 59.9147 1011.62 59.584C1011.34 60.192 1010.9 60.6667 1010.29 61.008C1009.68 61.3387 1008.98 61.504 1008.19 61.504C1007.46 61.504 1006.8 61.3653 1006.23 61.088C1005.66 60.8107 1005.22 60.4213 1004.9 59.92C1004.58 59.408 1004.42 58.816 1004.42 58.144C1004.42 57.4613 1004.58 56.8587 1004.91 56.336C1005.24 55.8133 1005.7 55.4133 1006.27 55.136C1006.86 54.848 1007.52 54.704 1008.24 54.704ZM1008.37 60.528C1008.94 60.528 1009.43 60.4213 1009.86 60.208C1010.3 59.9947 1010.64 59.7013 1010.88 59.328C1011.13 58.9547 1011.25 58.5387 1011.25 58.08C1011.25 57.6533 1011.13 57.2587 1010.9 56.896C1010.67 56.5333 1010.34 56.24 1009.89 56.016C1009.44 55.792 1008.91 55.68 1008.29 55.68C1007.48 55.68 1006.82 55.904 1006.31 56.352C1005.8 56.7893 1005.55 57.376 1005.55 58.112C1005.55 58.848 1005.8 59.4347 1006.31 59.872C1006.82 60.3093 1007.51 60.528 1008.37 60.528ZM1017.58 54.8V66H1016.42V55.824H1013.78V54.8H1017.58ZM1023.74 54.704C1025.22 54.704 1026.36 55.1947 1027.15 56.176C1027.94 57.1467 1028.33 58.5227 1028.33 60.304C1028.33 61.552 1028.12 62.608 1027.69 63.472C1027.27 64.336 1026.67 64.992 1025.9 65.44C1025.13 65.8773 1024.24 66.096 1023.21 66.096C1022.1 66.096 1021.22 65.8933 1020.56 65.488L1021.02 64.56C1021.56 64.912 1022.28 65.088 1023.2 65.088C1024.44 65.088 1025.41 64.6987 1026.11 63.92C1026.81 63.1307 1027.17 61.9893 1027.17 60.496C1027.17 60.2187 1027.15 59.9147 1027.12 59.584C1026.84 60.192 1026.4 60.6667 1025.79 61.008C1025.18 61.3387 1024.48 61.504 1023.69 61.504C1022.96 61.504 1022.3 61.3653 1021.73 61.088C1021.16 60.8107 1020.72 60.4213 1020.4 59.92C1020.08 59.408 1019.92 58.816 1019.92 58.144C1019.92 57.4613 1020.08 56.8587 1020.41 56.336C1020.74 55.8133 1021.2 55.4133 1021.77 55.136C1022.36 54.848 1023.02 54.704 1023.74 54.704ZM1023.87 60.528C1024.44 60.528 1024.93 60.4213 1025.36 60.208C1025.8 59.9947 1026.14 59.7013 1026.38 59.328C1026.63 58.9547 1026.75 58.5387 1026.75 58.08C1026.75 57.6533 1026.63 57.2587 1026.4 56.896C1026.17 56.5333 1025.84 56.24 1025.39 56.016C1024.94 55.792 1024.41 55.68 1023.79 55.68C1022.98 55.68 1022.32 55.904 1021.81 56.352C1021.3 56.7893 1021.05 57.376 1021.05 58.112C1021.05 58.848 1021.3 59.4347 1021.81 59.872C1022.32 60.3093 1023.01 60.528 1023.87 60.528ZM1029.81 69.104C1030.44 68.0267 1030.91 66.8747 1031.2 65.648C1031.5 64.4107 1031.65 63.0667 1031.65 61.616C1031.65 60.1653 1031.5 58.8267 1031.2 57.6C1030.91 56.3627 1030.44 55.2053 1029.81 54.128H1030.9C1031.5 55.088 1031.96 56.2133 1032.28 57.504C1032.61 58.784 1032.77 60.1547 1032.77 61.616C1032.77 63.0773 1032.61 64.448 1032.29 65.728C1031.97 67.008 1031.51 68.1333 1030.9 69.104H1029.81ZM1047.36 54.8V55.616L1042.67 66H1041.43L1046.03 55.824H1040.27V57.92H1039.14V54.8H1047.36ZM1052.14 54.8V66H1050.99V55.824H1048.35V54.8H1052.14ZM1064.34 63.056H1062.1V66H1060.94V63.056H1054.62V62.224L1060.56 54.8H1061.84L1056.11 62.032H1060.98V59.44H1062.1V62.032H1064.34V63.056ZM1065.68 61.168H1069.87V62.16H1065.68V61.168ZM1079.12 64.976V66H1071.26V65.184L1075.92 60.624C1076.51 60.048 1076.9 59.552 1077.1 59.136C1077.32 58.7093 1077.42 58.2827 1077.42 57.856C1077.42 57.1947 1077.2 56.6827 1076.74 56.32C1076.29 55.9467 1075.64 55.76 1074.8 55.76C1073.49 55.76 1072.47 56.176 1071.74 57.008L1070.93 56.304C1071.37 55.792 1071.92 55.3973 1072.59 55.12C1073.28 54.8427 1074.04 54.704 1074.9 54.704C1076.04 54.704 1076.94 54.976 1077.6 55.52C1078.27 56.0533 1078.61 56.7893 1078.61 57.728C1078.61 58.304 1078.48 58.8587 1078.22 59.392C1077.97 59.9253 1077.48 60.5387 1076.77 61.232L1072.96 64.976H1079.12ZM1083.51 59.392C1085.13 59.392 1086.31 59.6853 1087.05 60.272C1087.79 60.848 1088.17 61.6587 1088.17 62.704C1088.17 63.3547 1088.01 63.936 1087.7 64.448C1087.4 64.96 1086.95 65.3653 1086.34 65.664C1085.73 65.952 1084.99 66.096 1084.1 66.096C1083.3 66.096 1082.54 65.968 1081.81 65.712C1081.1 65.4453 1080.52 65.0933 1080.09 64.656L1080.65 63.744C1081.02 64.128 1081.51 64.4427 1082.12 64.688C1082.73 64.9227 1083.38 65.04 1084.09 65.04C1085.01 65.04 1085.73 64.832 1086.23 64.416C1086.74 64 1087 63.4453 1087 62.752C1087 61.984 1086.71 61.4027 1086.13 61.008C1085.57 60.6133 1084.61 60.416 1083.25 60.416H1080.87L1081.45 54.8H1087.57V55.824H1082.45L1082.07 59.392H1083.51ZM1089.76 61.168H1093.95V62.16H1089.76V61.168ZM1100.33 66.096C1099.46 66.096 1098.69 65.8667 1098.01 65.408C1097.34 64.9493 1096.81 64.2933 1096.42 63.44C1096.05 62.576 1095.86 61.5627 1095.86 60.4C1095.86 59.2373 1096.05 58.2293 1096.42 57.376C1096.81 56.512 1097.34 55.8507 1098.01 55.392C1098.69 54.9333 1099.46 54.704 1100.33 54.704C1101.19 54.704 1101.96 54.9333 1102.63 55.392C1103.31 55.8507 1103.85 56.512 1104.23 57.376C1104.62 58.2293 1104.81 59.2373 1104.81 60.4C1104.81 61.5627 1104.62 62.576 1104.23 63.44C1103.85 64.2933 1103.31 64.9493 1102.63 65.408C1101.96 65.8667 1101.19 66.096 1100.33 66.096ZM1100.33 65.04C1100.98 65.04 1101.55 64.8587 1102.04 64.496C1102.54 64.1333 1102.93 63.6053 1103.21 62.912C1103.48 62.2187 1103.62 61.3813 1103.62 60.4C1103.62 59.4187 1103.48 58.5813 1103.21 57.888C1102.93 57.1947 1102.54 56.6667 1102.04 56.304C1101.55 55.9413 1100.98 55.76 1100.33 55.76C1099.68 55.76 1099.1 55.9413 1098.6 56.304C1098.11 56.6667 1097.72 57.1947 1097.45 57.888C1097.17 58.5813 1097.03 59.4187 1097.03 60.4C1097.03 61.3813 1097.17 62.2187 1097.45 62.912C1097.72 63.6053 1098.11 64.1333 1098.6 64.496C1099.1 64.8587 1099.68 65.04 1100.33 65.04ZM1110.92 66.096C1110.06 66.096 1109.28 65.8667 1108.6 65.408C1107.93 64.9493 1107.4 64.2933 1107.02 63.44C1106.64 62.576 1106.46 61.5627 1106.46 60.4C1106.46 59.2373 1106.64 58.2293 1107.02 57.376C1107.4 56.512 1107.93 55.8507 1108.6 55.392C1109.28 54.9333 1110.06 54.704 1110.92 54.704C1111.79 54.704 1112.55 54.9333 1113.23 55.392C1113.91 55.8507 1114.44 56.512 1114.83 57.376C1115.21 58.2293 1115.4 59.2373 1115.4 60.4C1115.4 61.5627 1115.21 62.576 1114.83 63.44C1114.44 64.2933 1113.91 64.9493 1113.23 65.408C1112.55 65.8667 1111.79 66.096 1110.92 66.096ZM1110.92 65.04C1111.57 65.04 1112.14 64.8587 1112.63 64.496C1113.13 64.1333 1113.52 63.6053 1113.8 62.912C1114.08 62.2187 1114.22 61.3813 1114.22 60.4C1114.22 59.4187 1114.08 58.5813 1113.8 57.888C1113.52 57.1947 1113.13 56.6667 1112.63 56.304C1112.14 55.9413 1111.57 55.76 1110.92 55.76C1110.27 55.76 1109.69 55.9413 1109.19 56.304C1108.7 56.6667 1108.32 57.1947 1108.04 57.888C1107.76 58.5813 1107.62 59.4187 1107.62 60.4C1107.62 61.3813 1107.76 62.2187 1108.04 62.912C1108.32 63.6053 1108.7 64.1333 1109.19 64.496C1109.69 64.8587 1110.27 65.04 1110.92 65.04Z" fill="white"/>
<circle cx="946" cy="60" r="20" fill="#2B7AF1"/>
<path d="M948.706 63.425L950.106 62.025C950.295 61.8388 950.533 61.7113 950.793 61.6581C951.053 61.6048 951.322 61.6281 951.569 61.725L953.275 62.4063C953.524 62.5074 953.738 62.6801 953.889 62.9026C954.041 63.125 954.123 63.3873 954.125 63.6563V66.7813C954.124 66.9643 954.085 67.1451 954.012 67.3128C953.939 67.4805 953.832 67.6317 953.699 67.7573C953.566 67.8828 953.409 67.9801 953.237 68.0433C953.066 68.1065 952.883 68.1343 952.7 68.125C940.744 67.3813 938.331 57.2563 937.875 53.3813C937.854 53.191 937.873 52.9984 937.932 52.8161C937.99 52.6338 938.087 52.466 938.215 52.3237C938.343 52.1815 938.5 52.0679 938.675 51.9906C938.85 51.9132 939.04 51.8739 939.231 51.875H942.25C942.519 51.8758 942.782 51.9572 943.005 52.1087C943.228 52.2601 943.4 52.4748 943.5 52.725L944.181 54.4313C944.281 54.6769 944.307 54.9467 944.255 55.2068C944.202 55.4669 944.075 55.7058 943.888 55.8938L942.488 57.2938C942.488 57.2938 943.294 62.75 948.706 63.425Z" fill="white"/>
<circle cx="1190" cy="60" r="20" fill="#2B7AF1"/>
<path d="M1179.35 60.3743L1183.95 62.0889L1185.74 67.8559C1185.82 68.2456 1186.29 68.3235 1186.6 68.0897L1189.17 65.9855C1189.4 65.7517 1189.79 65.7517 1190.11 65.9855L1194.7 69.3367C1195.02 69.5705 1195.48 69.4146 1195.56 69.0249L1198.99 52.6589C1199.07 52.2692 1198.68 51.8796 1198.29 52.0354L1179.35 59.3612C1178.88 59.5171 1178.88 60.2185 1179.35 60.3743ZM1185.51 61.2316L1194.55 55.6983C1194.7 55.6204 1194.86 55.8542 1194.7 55.9321L1187.3 62.8682C1187.07 63.102 1186.83 63.4137 1186.83 63.8034L1186.6 65.6738C1186.6 65.9076 1186.21 65.9855 1186.13 65.6738L1185.2 62.2447C1184.96 61.8551 1185.12 61.3875 1185.51 61.2316Z" fill="white"/>
<circle cx="1240" cy="60" r="20" fill="#2B7AF1"/>
<path d="M1249 53.8189C1249 52.3215 1247.68 51.0002 1246.18 51.0002H1234.82C1233.32 51.0002 1232 52.3215 1232 53.8189V65.1816C1232 66.679 1233.32 68.0002 1234.82 68.0002H1240.54V61.5702H1238.43V58.7515H1240.54V57.6065C1240.54 55.6686 1241.95 53.9951 1243.72 53.9951H1246.01V56.8137H1243.72C1243.45 56.8137 1243.19 57.078 1243.19 57.6065V58.7515H1246.01V61.5702H1243.19V68.0002H1246.18C1247.68 68.0002 1249 66.679 1249 65.1816V53.8189Z" fill="white"/>
<circle cx="1290" cy="60" r="20" fill="#2B7AF1"/>
<path d="M1299.81 65.115C1299.81 65.032 1299.72 65.032 1299.72 64.949C1299.39 64.2848 1298.64 63.4546 1297.65 62.5413C1297.15 62.1262 1296.9 61.7941 1296.73 61.628C1296.49 61.296 1296.49 61.0469 1296.57 60.7148C1296.65 60.4657 1296.98 60.0506 1297.56 59.3034C1297.9 58.8883 1298.06 58.6392 1298.31 58.3902C1299.56 56.7297 1300.14 55.6504 1299.97 55.1523L1299.89 55.0692C1299.81 54.9862 1299.72 54.9032 1299.56 54.9032C1299.39 54.8202 1299.14 54.8202 1298.89 54.9032H1295.74C1295.65 54.9032 1295.65 54.9032 1295.49 54.9032C1295.41 54.9032 1295.32 54.9032 1295.32 54.9032H1295.24H1295.16L1295.07 54.9862C1294.99 55.0692 1294.99 55.0692 1294.99 55.1523C1294.66 56.0655 1294.24 56.8127 1293.83 57.6429C1293.58 58.0581 1293.33 58.4732 1293.08 58.8053C1292.83 59.1374 1292.67 59.3864 1292.5 59.5525C1292.33 59.7185 1292.17 59.8015 1292.08 59.9676C1292 60.0506 1291.84 60.1336 1291.84 60.0506C1291.75 60.0506 1291.67 60.0506 1291.67 59.9676C1291.59 59.8846 1291.5 59.8015 1291.42 59.7185C1291.34 59.6355 1291.34 59.4695 1291.25 59.3034C1291.25 59.1374 1291.25 58.9713 1291.25 58.8883C1291.25 58.8053 1291.25 58.5562 1291.25 58.3902C1291.25 58.1411 1291.25 57.975 1291.25 57.892C1291.25 57.6429 1291.25 57.3109 1291.25 56.9788C1291.25 56.6467 1291.25 56.3976 1291.25 56.2316C1291.25 56.0655 1291.25 55.8164 1291.25 55.6504C1291.25 55.4013 1291.25 55.2353 1291.25 55.1523C1291.25 55.0692 1291.17 54.9032 1291.17 54.8202C1291.09 54.7371 1291.01 54.6541 1290.92 54.5711C1290.84 54.4881 1290.67 54.4881 1290.59 54.4051C1290.18 54.322 1289.68 54.239 1289.1 54.239C1287.77 54.239 1286.85 54.322 1286.52 54.4881C1286.36 54.5711 1286.19 54.6541 1286.11 54.8202C1285.94 54.9862 1285.94 55.0692 1286.02 55.0692C1286.44 55.1523 1286.77 55.3183 1286.94 55.5674L1287.02 55.7334C1287.1 55.8165 1287.1 55.9825 1287.19 56.2316C1287.27 56.4806 1287.27 56.7297 1287.27 57.0618C1287.27 57.5599 1287.27 58.0581 1287.27 58.3902C1287.27 58.8053 1287.19 59.0543 1287.19 59.3034C1287.19 59.5525 1287.1 59.7185 1287.02 59.8015C1286.94 59.9676 1286.94 60.0506 1286.85 60.0506C1286.85 60.0506 1286.85 60.1336 1286.77 60.1336C1286.69 60.1336 1286.61 60.2167 1286.44 60.2167C1286.36 60.2167 1286.19 60.1336 1286.11 60.0506C1285.94 59.9676 1285.78 59.8015 1285.69 59.6355C1285.53 59.4695 1285.36 59.2204 1285.19 58.8883C1285.03 58.5562 1284.78 58.2241 1284.61 57.726L1284.45 57.3939C1284.36 57.2278 1284.2 56.8957 1284.03 56.4806C1283.87 56.0655 1283.7 55.7334 1283.53 55.3183C1283.45 55.1523 1283.37 55.0692 1283.28 54.9862H1283.2C1283.2 54.9862 1283.12 54.9032 1283.04 54.9032C1282.95 54.9032 1282.87 54.8202 1282.79 54.8202H1279.8C1279.47 54.8202 1279.3 54.9032 1279.22 54.9862L1279.13 55.0692C1279.13 55.0692 1279.13 55.1523 1279.13 55.2353C1279.13 55.3183 1279.13 55.4013 1279.22 55.5674C1279.63 56.5636 1280.13 57.5599 1280.63 58.5562C1281.13 59.4695 1281.62 60.2997 1281.96 60.8808C1282.37 61.462 1282.7 62.0432 1283.12 62.5413C1283.53 63.0394 1283.78 63.3715 1283.87 63.5376C1284.03 63.7036 1284.11 63.7866 1284.2 63.8697L1284.45 64.1187C1284.61 64.2848 1284.86 64.5339 1285.19 64.7829C1285.53 65.032 1285.94 65.2811 1286.36 65.5301C1286.77 65.7792 1287.27 65.9452 1287.77 66.1113C1288.35 66.2773 1288.85 66.3604 1289.35 66.2773H1290.59C1290.84 66.2773 1291.01 66.1943 1291.17 66.0283L1291.25 65.9452C1291.25 65.8622 1291.34 65.8622 1291.34 65.7792C1291.34 65.6962 1291.34 65.6132 1291.34 65.4471C1291.34 65.115 1291.34 64.8659 1291.42 64.6169C1291.5 64.3678 1291.5 64.2018 1291.59 64.0357C1291.67 63.8697 1291.75 63.7866 1291.84 63.7036C1291.92 63.6206 1292 63.5376 1292 63.5376H1292.08C1292.25 63.4546 1292.5 63.5376 1292.67 63.7036C1292.92 63.8697 1293.16 64.1187 1293.33 64.3678C1293.5 64.6169 1293.75 64.8659 1294.08 65.198C1294.41 65.5301 1294.66 65.7792 1294.82 65.8622L1295.07 66.0283C1295.24 66.1113 1295.41 66.1943 1295.65 66.2773C1295.9 66.3604 1296.07 66.3604 1296.24 66.3604L1299.06 66.2773C1299.31 66.2773 1299.56 66.1943 1299.72 66.1113C1299.89 66.0283 1299.97 65.9452 1299.97 65.7792C1299.97 65.6962 1299.97 65.5301 1299.97 65.4471C1299.81 65.2811 1299.81 65.198 1299.81 65.115Z" fill="white"/>
<circle cx="1340" cy="60" r="20" fill="#2B7AF1"/>
<path d="M1346.58 52.0002H1334.42C1333.05 52.0002 1332 53.0464 1332 54.4195V66.581C1332 67.9541 1333.05 69.0002 1334.42 69.0002H1346.58C1347.95 69.0002 1349 67.9541 1349 66.581V54.4195C1349 53.0464 1347.95 52.0002 1346.58 52.0002ZM1340.5 65.6002C1343.31 65.6002 1345.6 63.3772 1345.6 60.6964C1345.6 60.2387 1345.53 59.7156 1345.4 59.3233H1346.84V66.2541C1346.84 66.581 1346.58 66.9079 1346.19 66.9079H1334.81C1334.48 66.9079 1334.16 66.6464 1334.16 66.2541V59.2579H1335.66C1335.53 59.7156 1335.47 60.1733 1335.47 60.631C1335.4 63.3772 1337.69 65.6002 1340.5 65.6002ZM1340.5 63.6387C1338.67 63.6387 1337.23 62.2002 1337.23 60.4349C1337.23 58.6695 1338.67 57.231 1340.5 57.231C1342.33 57.231 1343.77 58.6695 1343.77 60.4349C1343.77 62.2656 1342.33 63.6387 1340.5 63.6387ZM1346.78 56.6426C1346.78 57.0349 1346.45 57.3618 1346.06 57.3618H1344.23C1343.83 57.3618 1343.51 57.0349 1343.51 56.6426V54.8772C1343.51 54.4849 1343.83 54.1579 1344.23 54.1579H1346.06C1346.45 54.1579 1346.78 54.4849 1346.78 54.8772V56.6426Z" fill="white"/>
</g>
<defs>
<filter id="filter0_d" x="-20" y="0" width="1480" height="140" filterUnits="userSpaceOnUse" color-interpolation-filters="sRGB">
<feFlood flood-opacity="0" result="BackgroundImageFix"/>
<feColorMatrix in="SourceAlpha" type="matrix" values="0 0 0 0 0 0 0 0 0 0 0 0 0 0 0 0 0 0 127 0" result="hardAlpha"/>
<feOffset dy="10"/>
<feGaussianBlur stdDeviation="10"/>
<feColorMatrix type="matrix" values="0 0 0 0 0.0666667 0 0 0 0 0.0666667 0 0 0 0 0.0666667 0 0 0 0.1 0"/>
<feBlend mode="normal" in2="BackgroundImageFix" result="effect1_dropShadow"/>
<feBlend mode="normal" in="SourceGraphic" in2="effect1_dropShadow" result="shape"/>
</filter>
<linearGradient id="paint0_linear" x1="720" y1="10" x2="720" y2="110" gradientUnits="userSpaceOnUse">
<stop stop-color="#111111" stop-opacity="0"/>
<stop offset="1" stop-color="#111111" stop-opacity="0.8"/>
</linearGradient>
</defs>
</svg>
