<svg width="338" height="22" viewBox="0 0 338 22" fill="none" xmlns="http://www.w3.org/2000/svg">
<path d="M19.848 13.232V20.384H15.504V17H4.752V20.384H0.384V13.232H0.984C1.976 13.216 2.672 12.536 3.072 11.192C3.488 9.848 3.744 7.912 3.84 5.384L4.032 0.199999H17.568V13.232H19.848ZM7.992 5.792C7.928 7.584 7.784 9.104 7.56 10.352C7.336 11.6 6.992 12.56 6.528 13.232H12.888V3.968H8.064L7.992 5.792ZM32.3443 10.184C33.8323 10.68 34.5763 11.704 34.5763 13.256C34.5763 14.424 34.1203 15.344 33.2083 16.016C32.2963 16.672 30.9523 17 29.1763 17H21.8563V3.992H28.8403C30.5363 3.992 31.8483 4.288 32.7763 4.88C33.7203 5.472 34.1923 6.304 34.1923 7.376C34.1923 8 34.0323 8.552 33.7123 9.032C33.3923 9.512 32.9363 9.896 32.3443 10.184ZM25.9363 9.224H28.4323C29.4883 9.224 30.0163 8.832 30.0163 8.048C30.0163 7.296 29.4883 6.92 28.4323 6.92H25.9363V9.224ZM28.7683 14.048C29.8723 14.048 30.4243 13.648 30.4243 12.848C30.4243 12.048 29.8883 11.648 28.8163 11.648H25.9363V14.048H28.7683ZM50.7518 3.992L45.1358 17.528C44.4798 19.128 43.6798 20.248 42.7358 20.888C41.7918 21.544 40.6398 21.872 39.2798 21.872C38.5918 21.872 37.8958 21.76 37.1918 21.536C36.5038 21.328 35.9438 21.048 35.5118 20.696L37.0958 17.504C37.3518 17.744 37.6558 17.928 38.0078 18.056C38.3758 18.2 38.7438 18.272 39.1118 18.272C39.5438 18.272 39.8958 18.184 40.1678 18.008C40.4558 17.832 40.6958 17.552 40.8878 17.168L35.3197 3.992H39.9998L43.1918 11.936L46.4078 3.992H50.7518ZM59.7368 17L57.4088 13.592L54.9128 17H49.9688L54.9128 10.496L50.1128 3.992H55.2488L57.5528 7.28L59.9528 3.992H64.7768L59.9768 10.328L64.9448 17H59.7368ZM72.5773 12.368H71.0413V17H66.4813V3.992H71.0413V8.792H72.6733L75.8653 3.992H80.6893L76.3213 10.232L80.9773 17H75.6013L72.5773 12.368ZM88.5221 17.216C87.1301 17.216 85.8741 16.928 84.7541 16.352C83.6341 15.776 82.7541 14.976 82.1141 13.952C81.4901 12.928 81.1781 11.768 81.1781 10.472C81.1781 9.192 81.4901 8.04 82.1141 7.016C82.7541 5.992 83.6261 5.2 84.7301 4.64C85.8501 4.064 87.1141 3.776 88.5221 3.776C89.9301 3.776 91.1941 4.064 92.3141 4.64C93.4341 5.2 94.3061 5.992 94.9301 7.016C95.5541 8.024 95.8661 9.176 95.8661 10.472C95.8661 11.768 95.5541 12.928 94.9301 13.952C94.3061 14.976 93.4341 15.776 92.3141 16.352C91.1941 16.928 89.9301 17.216 88.5221 17.216ZM88.5221 13.592C89.3221 13.592 89.9781 13.32 90.4901 12.776C91.0021 12.216 91.2581 11.448 91.2581 10.472C91.2581 9.512 91.0021 8.76 90.4901 8.216C89.9781 7.672 89.3221 7.4 88.5221 7.4C87.7221 7.4 87.0661 7.672 86.5541 8.216C86.0421 8.76 85.7861 9.512 85.7861 10.472C85.7861 11.448 86.0421 12.216 86.5541 12.776C87.0661 13.32 87.7221 13.592 88.5221 13.592ZM110.629 17V10.16L107.293 15.848H105.349L102.109 10.064V17H98.0048V3.992H102.805L106.429 10.784L110.413 3.992H114.709L114.733 17H110.629ZM117.809 3.992H122.345V8.816H127.025V3.992H131.585V17H127.025V12.44H122.345V17H117.809V3.992ZM139.965 3.776C142.125 3.776 143.773 4.272 144.909 5.264C146.045 6.24 146.613 7.744 146.613 9.776V17H142.365V15.32C141.709 16.584 140.429 17.216 138.525 17.216C137.517 17.216 136.645 17.04 135.909 16.688C135.173 16.336 134.613 15.864 134.229 15.272C133.861 14.664 133.677 13.976 133.677 13.208C133.677 11.976 134.149 11.024 135.093 10.352C136.037 9.664 137.493 9.32 139.461 9.32H142.053C141.973 7.944 141.053 7.256 139.293 7.256C138.669 7.256 138.037 7.36 137.397 7.568C136.757 7.76 136.213 8.032 135.765 8.384L134.229 5.288C134.949 4.808 135.821 4.44 136.845 4.184C137.885 3.912 138.925 3.776 139.965 3.776ZM139.797 14.336C140.325 14.336 140.789 14.208 141.189 13.952C141.589 13.696 141.877 13.32 142.053 12.824V11.696H140.085C138.757 11.696 138.093 12.136 138.093 13.016C138.093 13.416 138.245 13.736 138.549 13.976C138.853 14.216 139.269 14.336 139.797 14.336ZM160.972 7.616H156.796V17H152.26V7.616H148.06V3.992H160.972V7.616ZM162.739 3.992H167.275V8.816H171.955V3.992H176.515V17H171.955V12.44H167.275V17H162.739V3.992ZM184.895 3.776C187.055 3.776 188.703 4.272 189.839 5.264C190.975 6.24 191.543 7.744 191.543 9.776V17H187.295V15.32C186.639 16.584 185.359 17.216 183.455 17.216C182.447 17.216 181.575 17.04 180.839 16.688C180.103 16.336 179.543 15.864 179.159 15.272C178.791 14.664 178.607 13.976 178.607 13.208C178.607 11.976 179.079 11.024 180.023 10.352C180.967 9.664 182.423 9.32 184.391 9.32H186.983C186.903 7.944 185.983 7.256 184.223 7.256C183.599 7.256 182.967 7.36 182.327 7.568C181.687 7.76 181.143 8.032 180.695 8.384L179.159 5.288C179.879 4.808 180.751 4.44 181.775 4.184C182.815 3.912 183.855 3.776 184.895 3.776ZM184.727 14.336C185.255 14.336 185.719 14.208 186.119 13.952C186.519 13.696 186.807 13.32 186.983 12.824V11.696H185.015C183.687 11.696 183.023 12.136 183.023 13.016C183.023 13.416 183.175 13.736 183.479 13.976C183.783 14.216 184.199 14.336 184.727 14.336ZM206.526 3.992V17H202.47V13.472H200.406L198.102 17H193.278L196.158 12.848C195.294 12.464 194.63 11.944 194.166 11.288C193.718 10.616 193.494 9.816 193.494 8.888C193.494 7.336 194.07 6.136 195.222 5.288C196.374 4.424 197.958 3.992 199.974 3.992H206.526ZM200.07 7.592C198.79 7.592 198.15 8.08 198.15 9.056C198.15 9.568 198.302 9.944 198.606 10.184C198.926 10.424 199.406 10.544 200.046 10.544H202.47V7.592H200.07ZM222.671 12.368H221.135V17H216.575V3.992H221.135V8.792H222.767L225.959 3.992H230.783L226.415 10.232L231.071 17H225.695L222.671 12.368ZM243.071 10.184C244.559 10.68 245.303 11.704 245.303 13.256C245.303 14.424 244.847 15.344 243.935 16.016C243.023 16.672 241.679 17 239.903 17H232.583V3.992H239.567C241.263 3.992 242.575 4.288 243.503 4.88C244.447 5.472 244.919 6.304 244.919 7.376C244.919 8 244.759 8.552 244.439 9.032C244.119 9.512 243.663 9.896 243.071 10.184ZM236.663 9.224H239.159C240.215 9.224 240.743 8.832 240.743 8.048C240.743 7.296 240.215 6.92 239.159 6.92H236.663V9.224ZM239.495 14.048C240.599 14.048 241.151 13.648 241.151 12.848C241.151 12.048 240.615 11.648 239.543 11.648H236.663V14.048H239.495ZM252.91 3.776C255.07 3.776 256.718 4.272 257.854 5.264C258.99 6.24 259.558 7.744 259.558 9.776V17H255.31V15.32C254.654 16.584 253.374 17.216 251.47 17.216C250.462 17.216 249.59 17.04 248.854 16.688C248.118 16.336 247.558 15.864 247.174 15.272C246.806 14.664 246.622 13.976 246.622 13.208C246.622 11.976 247.094 11.024 248.038 10.352C248.982 9.664 250.438 9.32 252.406 9.32H254.998C254.918 7.944 253.998 7.256 252.238 7.256C251.614 7.256 250.982 7.36 250.342 7.568C249.702 7.76 249.158 8.032 248.71 8.384L247.174 5.288C247.894 4.808 248.766 4.44 249.79 4.184C250.83 3.912 251.87 3.776 252.91 3.776ZM252.742 14.336C253.27 14.336 253.734 14.208 254.134 13.952C254.534 13.696 254.822 13.32 254.998 12.824V11.696H253.03C251.702 11.696 251.038 12.136 251.038 13.016C251.038 13.416 251.19 13.736 251.494 13.976C251.798 14.216 252.214 14.336 252.742 14.336ZM270.486 3.776C271.67 3.776 272.742 4.056 273.702 4.616C274.678 5.16 275.446 5.944 276.006 6.968C276.582 7.976 276.87 9.152 276.87 10.496C276.87 11.84 276.582 13.024 276.006 14.048C275.446 15.056 274.678 15.84 273.702 16.4C272.742 16.944 271.67 17.216 270.486 17.216C268.966 17.216 267.758 16.76 266.862 15.848V21.656H262.302V3.992H266.646V5.288C267.494 4.28 268.774 3.776 270.486 3.776ZM269.526 13.592C270.326 13.592 270.982 13.32 271.494 12.776C272.006 12.216 272.262 11.456 272.262 10.496C272.262 9.536 272.006 8.784 271.494 8.24C270.982 7.68 270.326 7.4 269.526 7.4C268.726 7.4 268.07 7.68 267.558 8.24C267.046 8.784 266.79 9.536 266.79 10.496C266.79 11.456 267.046 12.216 267.558 12.776C268.07 13.32 268.726 13.592 269.526 13.592ZM290.207 7.616H286.031V17H281.495V7.616H277.295V3.992H290.207V7.616ZM291.974 3.992H296.51V10.808L301.958 3.992H306.158V17H301.598V10.16L296.198 17H291.974V3.992ZM317.408 3.776C318.592 3.776 319.664 4.056 320.624 4.616C321.6 5.16 322.368 5.944 322.928 6.968C323.504 7.976 323.792 9.152 323.792 10.496C323.792 11.84 323.504 13.024 322.928 14.048C322.368 15.056 321.6 15.84 320.624 16.4C319.664 16.944 318.592 17.216 317.408 17.216C315.888 17.216 314.68 16.76 313.784 15.848V21.656H309.224V3.992H313.568V5.288C314.416 4.28 315.696 3.776 317.408 3.776ZM316.448 13.592C317.248 13.592 317.904 13.32 318.416 12.776C318.928 12.216 319.184 11.456 319.184 10.496C319.184 9.536 318.928 8.784 318.416 8.24C317.904 7.68 317.248 7.4 316.448 7.4C315.648 7.4 314.992 7.68 314.48 8.24C313.968 8.784 313.712 9.536 313.712 10.496C313.712 11.456 313.968 12.216 314.48 12.776C314.992 13.32 315.648 13.592 316.448 13.592ZM331.004 3.776C333.164 3.776 334.812 4.272 335.948 5.264C337.084 6.24 337.652 7.744 337.652 9.776V17H333.404V15.32C332.748 16.584 331.468 17.216 329.564 17.216C328.556 17.216 327.684 17.04 326.948 16.688C326.212 16.336 325.652 15.864 325.268 15.272C324.9 14.664 324.716 13.976 324.716 13.208C324.716 11.976 325.188 11.024 326.132 10.352C327.076 9.664 328.532 9.32 330.5 9.32H333.092C333.012 7.944 332.092 7.256 330.332 7.256C329.708 7.256 329.076 7.36 328.436 7.568C327.796 7.76 327.252 8.032 326.804 8.384L325.268 5.288C325.988 4.808 326.86 4.44 327.884 4.184C328.924 3.912 329.964 3.776 331.004 3.776ZM330.836 14.336C331.364 14.336 331.828 14.208 332.228 13.952C332.628 13.696 332.916 13.32 333.092 12.824V11.696H331.124C329.796 11.696 329.132 12.136 329.132 13.016C329.132 13.416 329.284 13.736 329.588 13.976C329.892 14.216 330.308 14.336 330.836 14.336Z" fill="white"/>
</svg>
