<svg width="275" height="22" viewBox="0 0 275 22" fill="none" xmlns="http://www.w3.org/2000/svg">
<path d="M34.124 4.4H43.34V5.534H35.438V9.656H39.56C41.048 9.656 42.176 9.962 42.944 10.574C43.724 11.186 44.114 12.074 44.114 13.238C44.114 14.45 43.694 15.38 42.854 16.028C42.026 16.676 40.832 17 39.272 17H34.124V4.4ZM39.254 15.938C40.418 15.938 41.294 15.716 41.882 15.272C42.482 14.828 42.782 14.168 42.782 13.292C42.782 12.428 42.488 11.786 41.9 11.366C41.324 10.934 40.442 10.718 39.254 10.718H35.438V15.938H39.254ZM55.1761 12.662H47.2561C47.3281 13.646 47.7061 14.444 48.3901 15.056C49.0741 15.656 49.9381 15.956 50.9821 15.956C51.5701 15.956 52.1101 15.854 52.6021 15.65C53.0941 15.434 53.5201 15.122 53.8801 14.714L54.6001 15.542C54.1801 16.046 53.6521 16.43 53.0161 16.694C52.3921 16.958 51.7021 17.09 50.9461 17.09C49.9741 17.09 49.1101 16.886 48.3541 16.478C47.6101 16.058 47.0281 15.482 46.6081 14.75C46.1881 14.018 45.9781 13.19 45.9781 12.266C45.9781 11.342 46.1761 10.514 46.5721 9.782C46.9801 9.05 47.5321 8.48 48.2281 8.072C48.9361 7.664 49.7281 7.46 50.6041 7.46C51.4801 7.46 52.2661 7.664 52.9621 8.072C53.6581 8.48 54.2041 9.05 54.6001 9.782C54.9961 10.502 55.1941 11.33 55.1941 12.266L55.1761 12.662ZM50.6041 8.558C49.6921 8.558 48.9241 8.852 48.3001 9.44C47.6881 10.016 47.3401 10.772 47.2561 11.708H53.9701C53.8861 10.772 53.5321 10.016 52.9081 9.44C52.2961 8.852 51.5281 8.558 50.6041 8.558ZM62.9011 7.46C63.7891 7.46 64.5931 7.664 65.3131 8.072C66.0331 8.468 66.5971 9.032 67.0051 9.764C67.4131 10.496 67.6171 11.33 67.6171 12.266C67.6171 13.214 67.4131 14.054 67.0051 14.786C66.5971 15.518 66.0331 16.088 65.3131 16.496C64.6051 16.892 63.8011 17.09 62.9011 17.09C62.1331 17.09 61.4371 16.934 60.8131 16.622C60.2011 16.298 59.6971 15.83 59.3011 15.218V20.492H58.0231V7.532H59.2471V9.404C59.6311 8.78 60.1351 8.3 60.7591 7.964C61.3951 7.628 62.1091 7.46 62.9011 7.46ZM62.8111 15.956C63.4711 15.956 64.0711 15.806 64.6111 15.506C65.1511 15.194 65.5711 14.756 65.8711 14.192C66.1831 13.628 66.3391 12.986 66.3391 12.266C66.3391 11.546 66.1831 10.91 65.8711 10.358C65.5711 9.794 65.1511 9.356 64.6111 9.044C64.0711 8.732 63.4711 8.576 62.8111 8.576C62.1391 8.576 61.5331 8.732 60.9931 9.044C60.4651 9.356 60.0451 9.794 59.7331 10.358C59.4331 10.91 59.2831 11.546 59.2831 12.266C59.2831 12.986 59.4331 13.628 59.7331 14.192C60.0451 14.756 60.4651 15.194 60.9931 15.506C61.5331 15.806 62.1391 15.956 62.8111 15.956ZM78.6429 12.662H70.7229C70.7949 13.646 71.1729 14.444 71.8569 15.056C72.5409 15.656 73.4049 15.956 74.4489 15.956C75.0369 15.956 75.5769 15.854 76.0689 15.65C76.5609 15.434 76.9869 15.122 77.3469 14.714L78.0669 15.542C77.6469 16.046 77.1189 16.43 76.4829 16.694C75.8589 16.958 75.1689 17.09 74.4129 17.09C73.4409 17.09 72.5769 16.886 71.8209 16.478C71.0769 16.058 70.4949 15.482 70.0749 14.75C69.6549 14.018 69.4449 13.19 69.4449 12.266C69.4449 11.342 69.6429 10.514 70.0389 9.782C70.4469 9.05 70.9989 8.48 71.6949 8.072C72.4029 7.664 73.1949 7.46 74.0709 7.46C74.9469 7.46 75.7329 7.664 76.4289 8.072C77.1249 8.48 77.6709 9.05 78.0669 9.782C78.4629 10.502 78.6609 11.33 78.6609 12.266L78.6429 12.662ZM74.0709 8.558C73.1589 8.558 72.3909 8.852 71.7669 9.44C71.1549 10.016 70.8069 10.772 70.7229 11.708H77.4369C77.3529 10.772 76.9989 10.016 76.3749 9.44C75.7629 8.852 74.9949 8.558 74.0709 8.558ZM85.8342 12.068C86.5062 12.224 87.0222 12.494 87.3822 12.878C87.7542 13.262 87.9402 13.73 87.9402 14.282C87.9402 14.834 87.7482 15.326 87.3642 15.758C86.9922 16.19 86.4822 16.526 85.8342 16.766C85.1862 16.994 84.4722 17.108 83.6922 17.108C83.0082 17.108 82.3362 17.012 81.6762 16.82C81.0162 16.616 80.4402 16.322 79.9482 15.938L80.3802 14.984C80.8122 15.308 81.3162 15.56 81.8922 15.74C82.4682 15.92 83.0502 16.01 83.6382 16.01C84.5142 16.01 85.2282 15.848 85.7802 15.524C86.3442 15.188 86.6262 14.738 86.6262 14.174C86.6262 13.67 86.3982 13.28 85.9422 13.004C85.4862 12.716 84.8622 12.572 84.0702 12.572H82.4502V11.636H83.9982C84.7062 11.636 85.2762 11.504 85.7082 11.24C86.1402 10.964 86.3562 10.598 86.3562 10.142C86.3562 9.638 86.1102 9.242 85.6182 8.954C85.1382 8.666 84.5082 8.522 83.7282 8.522C82.7082 8.522 81.7002 8.78 80.7042 9.296L80.3442 8.306C81.4722 7.718 82.6422 7.424 83.8542 7.424C84.5742 7.424 85.2222 7.532 85.7982 7.748C86.3862 7.952 86.8422 8.246 87.1662 8.63C87.5022 9.014 87.6702 9.458 87.6702 9.962C87.6702 10.442 87.5022 10.868 87.1662 11.24C86.8422 11.612 86.3982 11.888 85.8342 12.068ZM90.8414 7.532H92.1194V11.726H98.0774V7.532H99.3554V17H98.0774V12.824H92.1194V17H90.8414V7.532ZM102.988 7.532H104.266V15.056L110.584 7.532H111.718V17H110.44V9.476L104.14 17H102.988V7.532ZM118.819 12.788H116.659V17H115.381V7.532H116.659V11.69H118.837L122.167 7.532H123.553L119.827 12.122L123.823 17H122.311L118.819 12.788ZM125.839 7.532H127.117V15.056L133.435 7.532H134.569V17H133.291V9.476L126.991 17H125.839V7.532ZM138.34 15.128C138.616 15.128 138.844 15.224 139.024 15.416C139.204 15.596 139.294 15.824 139.294 16.1C139.294 16.244 139.27 16.4 139.222 16.568C139.186 16.736 139.126 16.928 139.042 17.144L138.286 19.628H137.422L138.034 17.018C137.842 16.958 137.686 16.85 137.566 16.694C137.446 16.526 137.386 16.328 137.386 16.1C137.386 15.824 137.476 15.596 137.656 15.416C137.836 15.224 138.064 15.128 138.34 15.128ZM154.803 7.532L150.069 18.134C149.685 19.022 149.241 19.652 148.737 20.024C148.233 20.396 147.627 20.582 146.919 20.582C146.463 20.582 146.037 20.51 145.641 20.366C145.245 20.222 144.903 20.006 144.615 19.718L145.209 18.764C145.689 19.244 146.265 19.484 146.937 19.484C147.369 19.484 147.735 19.364 148.035 19.124C148.347 18.884 148.635 18.476 148.899 17.9L149.313 16.982L145.083 7.532H146.415L149.979 15.578L153.543 7.532H154.803ZM164.113 7.532V17H162.835V8.666H158.299L158.173 11.006C158.077 12.974 157.849 14.486 157.489 15.542C157.129 16.598 156.487 17.126 155.563 17.126C155.311 17.126 155.005 17.078 154.645 16.982L154.735 15.884C154.951 15.932 155.101 15.956 155.185 15.956C155.677 15.956 156.049 15.728 156.301 15.272C156.553 14.816 156.721 14.252 156.805 13.58C156.889 12.908 156.961 12.02 157.021 10.916L157.183 7.532H164.113ZM167.836 17.09C167.572 17.09 167.344 16.994 167.152 16.802C166.972 16.61 166.882 16.376 166.882 16.1C166.882 15.824 166.972 15.596 167.152 15.416C167.344 15.224 167.572 15.128 167.836 15.128C168.1 15.128 168.328 15.224 168.52 15.416C168.712 15.596 168.808 15.824 168.808 16.1C168.808 16.376 168.712 16.61 168.52 16.802C168.328 16.994 168.1 17.09 167.836 17.09ZM192.021 4.4V17H176.577V4.4H177.891V15.848H183.651V4.4H184.965V15.848H190.707V4.4H192.021ZM206.543 7.532V17H205.373V9.512L201.539 15.848H200.963L197.129 9.494V17H195.959V7.532H197.255L201.269 14.354L205.355 7.532H206.543ZM210.179 7.532H211.457V15.056L217.775 7.532H218.909V17H217.631V9.476L211.331 17H210.179V7.532ZM231.806 15.884V19.286H230.6V17H222.122V19.286H220.916V15.884H221.456C222.092 15.848 222.524 15.38 222.752 14.48C222.98 13.58 223.136 12.32 223.22 10.7L223.346 7.532H230.33V15.884H231.806ZM224.39 10.772C224.33 12.116 224.216 13.226 224.048 14.102C223.88 14.966 223.58 15.56 223.148 15.884H229.052V8.666H224.498L224.39 10.772ZM240.957 8.666H237.375V17H236.097V8.666H232.515V7.532H240.957V8.666ZM246.062 7.46C247.298 7.46 248.246 7.772 248.906 8.396C249.566 9.008 249.896 9.92 249.896 11.132V17H248.672V15.524C248.384 16.016 247.958 16.4 247.394 16.676C246.842 16.952 246.182 17.09 245.414 17.09C244.358 17.09 243.518 16.838 242.894 16.334C242.27 15.83 241.958 15.164 241.958 14.336C241.958 13.532 242.246 12.884 242.822 12.392C243.41 11.9 244.34 11.654 245.612 11.654H248.618V11.078C248.618 10.262 248.39 9.644 247.934 9.224C247.478 8.792 246.812 8.576 245.936 8.576C245.336 8.576 244.76 8.678 244.208 8.882C243.656 9.074 243.182 9.344 242.786 9.692L242.21 8.738C242.69 8.33 243.266 8.018 243.938 7.802C244.61 7.574 245.318 7.46 246.062 7.46ZM245.612 16.082C246.332 16.082 246.95 15.92 247.466 15.596C247.982 15.26 248.366 14.78 248.618 14.156V12.608H245.648C244.028 12.608 243.218 13.172 243.218 14.3C243.218 14.852 243.428 15.29 243.848 15.614C244.268 15.926 244.856 16.082 245.612 16.082ZM260.619 4.4V17H259.323V5.552H256.353V4.4H260.619ZM268.653 17.108C267.681 17.108 266.811 16.85 266.043 16.334C265.287 15.818 264.693 15.08 264.261 14.12C263.841 13.148 263.631 12.008 263.631 10.7C263.631 9.392 263.841 8.258 264.261 7.298C264.693 6.326 265.287 5.582 266.043 5.066C266.811 4.55 267.681 4.292 268.653 4.292C269.625 4.292 270.489 4.55 271.245 5.066C272.013 5.582 272.613 6.326 273.045 7.298C273.477 8.258 273.693 9.392 273.693 10.7C273.693 12.008 273.477 13.148 273.045 14.12C272.613 15.08 272.013 15.818 271.245 16.334C270.489 16.85 269.625 17.108 268.653 17.108ZM268.653 15.92C269.385 15.92 270.027 15.716 270.579 15.308C271.143 14.9 271.581 14.306 271.893 13.526C272.205 12.746 272.361 11.804 272.361 10.7C272.361 9.596 272.205 8.654 271.893 7.874C271.581 7.094 271.143 6.5 270.579 6.092C270.027 5.684 269.385 5.48 268.653 5.48C267.921 5.48 267.273 5.684 266.709 6.092C266.157 6.5 265.725 7.094 265.413 7.874C265.101 8.654 264.945 9.596 264.945 10.7C264.945 11.804 265.101 12.746 265.413 13.526C265.725 14.306 266.157 14.9 266.709 15.308C267.273 15.716 267.921 15.92 268.653 15.92Z" fill="white"/>
<path d="M11 1.375C8.99503 1.37737 7.07286 2.17489 5.65513 3.59262C4.23739 5.01035 3.43987 6.93253 3.43751 8.9375C3.43511 10.576 3.97031 12.17 4.96101 13.475C4.96101 13.475 5.16726 13.7466 5.20095 13.7858L11 20.625L16.8018 13.7823C16.8321 13.7459 17.039 13.475 17.039 13.475L17.0397 13.4729C18.0299 12.1685 18.5649 10.5752 18.5625 8.9375C18.5601 6.93253 17.7626 5.01035 16.3449 3.59262C14.9272 2.17489 13.005 1.37737 11 1.375ZM13.475 12.375L11 10.7999L8.52501 12.375L8.93751 9.57412L6.87501 7.68144L9.76251 7.33288L11 4.8125L12.3145 7.33356L15.125 7.68144L13.0625 9.57412L13.475 12.375Z" fill="#F73E3E"/>
</svg>
