<svg width="146" height="24" viewBox="0 0 146 24" fill="none" xmlns="http://www.w3.org/2000/svg">
<path d="M82.88 16.32H80.8V19H76.94V16.32H69.54V13.74L75.82 5H79.92L74.22 13.18H77.06V10.8H80.8V13.18H82.88V16.32ZM95.5042 5V19H91.5442V8.06H88.9442V5H95.5042ZM103.79 19.28C102.59 19.28 101.523 18.9933 100.59 18.42C99.6564 17.8467 98.923 17.0133 98.3897 15.92C97.8697 14.8133 97.6097 13.5067 97.6097 12C97.6097 10.4933 97.8697 9.19333 98.3897 8.1C98.923 6.99333 99.6564 6.15333 100.59 5.58C101.523 5.00667 102.59 4.72 103.79 4.72C104.976 4.72 106.036 5.00667 106.97 5.58C107.903 6.15333 108.63 6.99333 109.15 8.1C109.683 9.19333 109.95 10.4933 109.95 12C109.95 13.5067 109.683 14.8133 109.15 15.92C108.63 17.0133 107.903 17.8467 106.97 18.42C106.036 18.9933 104.976 19.28 103.79 19.28ZM103.79 16.04C104.456 16.04 104.983 15.72 105.37 15.08C105.77 14.4267 105.97 13.4 105.97 12C105.97 10.6 105.77 9.58 105.37 8.94C104.983 8.28667 104.456 7.96 103.79 7.96C103.11 7.96 102.57 8.28667 102.17 8.94C101.783 9.58 101.59 10.6 101.59 12C101.59 13.4 101.783 14.4267 102.17 15.08C102.57 15.72 103.11 16.04 103.79 16.04ZM117.481 19.28C116.281 19.28 115.214 18.9933 114.281 18.42C113.348 17.8467 112.614 17.0133 112.081 15.92C111.561 14.8133 111.301 13.5067 111.301 12C111.301 10.4933 111.561 9.19333 112.081 8.1C112.614 6.99333 113.348 6.15333 114.281 5.58C115.214 5.00667 116.281 4.72 117.481 4.72C118.668 4.72 119.728 5.00667 120.661 5.58C121.594 6.15333 122.321 6.99333 122.841 8.1C123.374 9.19333 123.641 10.4933 123.641 12C123.641 13.5067 123.374 14.8133 122.841 15.92C122.321 17.0133 121.594 17.8467 120.661 18.42C119.728 18.9933 118.668 19.28 117.481 19.28ZM117.481 16.04C118.148 16.04 118.674 15.72 119.061 15.08C119.461 14.4267 119.661 13.4 119.661 12C119.661 10.6 119.461 9.58 119.061 8.94C118.674 8.28667 118.148 7.96 117.481 7.96C116.801 7.96 116.261 8.28667 115.861 8.94C115.474 9.58 115.281 10.6 115.281 12C115.281 13.4 115.474 14.4267 115.861 15.08C116.261 15.72 116.801 16.04 117.481 16.04ZM136.573 14.48V15.54H140.833V17.48H136.573V19H132.593V17.48H130.733V15.54H132.593V5H138.993C140.953 5 142.479 5.4 143.573 6.2C144.666 7 145.213 8.18 145.213 9.74C145.213 11.3 144.666 12.48 143.573 13.28C142.479 14.08 140.953 14.48 138.993 14.48H136.573ZM141.213 9.78C141.213 9.24667 141.013 8.84 140.613 8.56C140.226 8.26667 139.673 8.12 138.953 8.12H136.573V11.46H138.953C139.673 11.46 140.226 11.3133 140.613 11.02C141.013 10.7267 141.213 10.3133 141.213 9.78Z" fill="white"/>
<path d="M7.632 19.108C6.384 19.108 5.256 18.832 4.248 18.28C3.252 17.728 2.466 16.966 1.89 15.994C1.326 15.01 1.044 13.912 1.044 12.7C1.044 11.488 1.326 10.396 1.89 9.424C2.466 8.44 3.258 7.672 4.266 7.12C5.274 6.568 6.402 6.292 7.65 6.292C8.586 6.292 9.45 6.448 10.242 6.76C11.034 7.072 11.706 7.528 12.258 8.128L11.412 8.974C10.428 7.978 9.186 7.48 7.686 7.48C6.69 7.48 5.784 7.708 4.968 8.164C4.152 8.62 3.51 9.244 3.042 10.036C2.586 10.828 2.358 11.716 2.358 12.7C2.358 13.684 2.586 14.572 3.042 15.364C3.51 16.156 4.152 16.78 4.968 17.236C5.784 17.692 6.69 17.92 7.686 17.92C9.198 17.92 10.44 17.416 11.412 16.408L12.258 17.254C11.706 17.854 11.028 18.316 10.224 18.64C9.432 18.952 8.568 19.108 7.632 19.108ZM22.7488 9.532L18.0148 20.134C17.6308 21.022 17.1868 21.652 16.6828 22.024C16.1788 22.396 15.5728 22.582 14.8648 22.582C14.4088 22.582 13.9828 22.51 13.5868 22.366C13.1908 22.222 12.8488 22.006 12.5608 21.718L13.1548 20.764C13.6348 21.244 14.2108 21.484 14.8828 21.484C15.3148 21.484 15.6808 21.364 15.9808 21.124C16.2928 20.884 16.5808 20.476 16.8448 19.9L17.2588 18.982L13.0288 9.532H14.3608L17.9248 17.578L21.4888 9.532H22.7488ZM31.435 10.666H27.853V19H26.575V10.666H22.993V9.532H31.435V10.666ZM36.7208 14.788H34.5608V19H33.2828V9.532H34.5608V13.69H36.7388L40.0688 9.532H41.4548L37.7288 14.122L41.7248 19H40.2128L36.7208 14.788ZM43.7418 9.532H45.0198V17.056L51.3378 9.532H52.4718V19H51.1938V11.476L44.8938 19H43.7418V9.532ZM56.2244 11.422C55.9604 11.422 55.7324 11.326 55.5404 11.134C55.3604 10.942 55.2704 10.708 55.2704 10.432C55.2704 10.156 55.3604 9.928 55.5404 9.748C55.7324 9.556 55.9604 9.46 56.2244 9.46C56.4884 9.46 56.7164 9.556 56.9084 9.748C57.1004 9.928 57.1964 10.156 57.1964 10.432C57.1964 10.708 57.1004 10.942 56.9084 11.134C56.7164 11.326 56.4884 11.422 56.2244 11.422ZM56.2244 19.09C55.9604 19.09 55.7324 18.994 55.5404 18.802C55.3604 18.61 55.2704 18.376 55.2704 18.1C55.2704 17.824 55.3604 17.596 55.5404 17.416C55.7324 17.224 55.9604 17.128 56.2244 17.128C56.4884 17.128 56.7164 17.224 56.9084 17.416C57.1004 17.596 57.1964 17.824 57.1964 18.1C57.1964 18.376 57.1004 18.61 56.9084 18.802C56.7164 18.994 56.4884 19.09 56.2244 19.09Z" fill="white"/>
</svg>
