<svg width="84" height="15" viewBox="0 0 84 15" fill="none" xmlns="http://www.w3.org/2000/svg">
<path d="M9.32056 1.7V11.5H7.52856V3.24H2.44655V11.5H0.654555V1.7H9.32056ZM15.2199 11.598C14.4639 11.598 13.7826 11.4347 13.1759 11.108C12.5692 10.7813 12.0932 10.3287 11.7479 9.75C11.4119 9.162 11.2439 8.49933 11.2439 7.762C11.2439 7.02467 11.4119 6.36667 11.7479 5.788C12.0932 5.20933 12.5692 4.75667 13.1759 4.43C13.7826 4.10333 14.4639 3.94 15.2199 3.94C15.9852 3.94 16.6712 4.10333 17.2779 4.43C17.8846 4.75667 18.3559 5.20933 18.6919 5.788C19.0372 6.36667 19.2099 7.02467 19.2099 7.762C19.2099 8.49933 19.0372 9.162 18.6919 9.75C18.3559 10.3287 17.8846 10.7813 17.2779 11.108C16.6712 11.4347 15.9852 11.598 15.2199 11.598ZM15.2199 10.1C15.8639 10.1 16.3959 9.88533 16.8159 9.456C17.2359 9.02667 17.4459 8.462 17.4459 7.762C17.4459 7.062 17.2359 6.49733 16.8159 6.068C16.3959 5.63867 15.8639 5.424 15.2199 5.424C14.5759 5.424 14.0439 5.63867 13.6239 6.068C13.2132 6.49733 13.0079 7.062 13.0079 7.762C13.0079 8.462 13.2132 9.02667 13.6239 9.456C14.0439 9.88533 14.5759 10.1 15.2199 10.1ZM28.8367 10.016V13.166H27.1987V11.5H21.4307V13.166H19.8067V10.016H20.1567C20.6327 9.99733 20.9547 9.694 21.1227 9.106C21.3 8.50867 21.4167 7.66867 21.4727 6.586L21.5707 4.024H27.7307V10.016H28.8367ZM23.0687 6.712C23.0313 7.57067 22.9613 8.27067 22.8587 8.812C22.756 9.35333 22.5693 9.75467 22.2987 10.016H25.9807V5.508H23.1107L23.0687 6.712ZM34.5436 3.94C35.2716 3.94 35.9203 4.09867 36.4896 4.416C37.0683 4.73333 37.521 5.18133 37.8476 5.76C38.1743 6.33867 38.3376 7.006 38.3376 7.762C38.3376 8.518 38.1743 9.19 37.8476 9.778C37.521 10.3567 37.0683 10.8047 36.4896 11.122C35.9203 11.4393 35.2716 11.598 34.5436 11.598C33.5356 11.598 32.7376 11.262 32.1496 10.59V14.216H30.3996V4.024H32.0656V5.004C32.355 4.64933 32.7096 4.38333 33.1296 4.206C33.559 4.02867 34.0303 3.94 34.5436 3.94ZM34.3476 10.1C34.9916 10.1 35.519 9.88533 35.9296 9.456C36.3496 9.02667 36.5596 8.462 36.5596 7.762C36.5596 7.062 36.3496 6.49733 35.9296 6.068C35.519 5.63867 34.9916 5.424 34.3476 5.424C33.9276 5.424 33.5496 5.522 33.2136 5.718C32.8776 5.90467 32.6116 6.17533 32.4156 6.53C32.2196 6.88467 32.1216 7.29533 32.1216 7.762C32.1216 8.22867 32.2196 8.63933 32.4156 8.994C32.6116 9.34867 32.8776 9.624 33.2136 9.82C33.5496 10.0067 33.9276 10.1 34.3476 10.1ZM43.4113 11.598C42.6553 11.598 41.974 11.4347 41.3673 11.108C40.7607 10.7813 40.2847 10.3287 39.9393 9.75C39.6033 9.162 39.4353 8.49933 39.4353 7.762C39.4353 7.02467 39.6033 6.36667 39.9393 5.788C40.2847 5.20933 40.7607 4.75667 41.3673 4.43C41.974 4.10333 42.6553 3.94 43.4113 3.94C44.1767 3.94 44.8627 4.10333 45.4693 4.43C46.076 4.75667 46.5473 5.20933 46.8833 5.788C47.2287 6.36667 47.4013 7.02467 47.4013 7.762C47.4013 8.49933 47.2287 9.162 46.8833 9.75C46.5473 10.3287 46.076 10.7813 45.4693 11.108C44.8627 11.4347 44.1767 11.598 43.4113 11.598ZM43.4113 10.1C44.0553 10.1 44.5873 9.88533 45.0073 9.456C45.4273 9.02667 45.6373 8.462 45.6373 7.762C45.6373 7.062 45.4273 6.49733 45.0073 6.068C44.5873 5.63867 44.0553 5.424 43.4113 5.424C42.7673 5.424 42.2353 5.63867 41.8153 6.068C41.4047 6.49733 41.1993 7.062 41.1993 7.762C41.1993 8.462 41.4047 9.02667 41.8153 9.456C42.2353 9.88533 42.7673 10.1 43.4113 10.1ZM53.1761 4.388C53.8854 4.388 54.5108 4.542 55.0521 4.85C55.5934 5.14867 56.0134 5.56867 56.3121 6.11C56.6201 6.65133 56.7741 7.272 56.7741 7.972C56.7741 8.69067 56.6061 9.33 56.2701 9.89C55.9341 10.4407 55.4628 10.87 54.8561 11.178C54.2494 11.486 53.5588 11.64 52.7841 11.64C51.4868 11.64 50.4834 11.2107 49.7741 10.352C49.0648 9.49333 48.7101 8.25667 48.7101 6.642C48.7101 5.13933 49.0321 3.94933 49.6761 3.072C50.3201 2.19467 51.3048 1.616 52.6301 1.336L56.1021 0.593999L56.3541 2.162L53.2041 2.806C52.2988 2.99267 51.6221 3.31 51.1741 3.758C50.7261 4.206 50.4648 4.836 50.3901 5.648C50.7261 5.24667 51.1321 4.93867 51.6081 4.724C52.0841 4.5 52.6068 4.388 53.1761 4.388ZM52.8261 10.226C53.4701 10.226 53.9881 10.0207 54.3801 9.61C54.7814 9.19 54.9821 8.658 54.9821 8.014C54.9821 7.37 54.7814 6.852 54.3801 6.46C53.9881 6.068 53.4701 5.872 52.8261 5.872C52.1728 5.872 51.6454 6.068 51.2441 6.46C50.8428 6.852 50.6421 7.37 50.6421 8.014C50.6421 8.66733 50.8428 9.19933 51.2441 9.61C51.6548 10.0207 52.1821 10.226 52.8261 10.226ZM58.468 4.024H60.218V7.062H63.984V4.024H65.734V11.5H63.984V8.546H60.218V11.5H58.468V4.024ZM75.0793 7.804C75.0793 7.92533 75.07 8.098 75.0513 8.322H69.1853C69.288 8.87267 69.554 9.31133 69.9833 9.638C70.422 9.95533 70.9633 10.114 71.6073 10.114C72.4287 10.114 73.1053 9.84333 73.6373 9.302L74.5753 10.38C74.2393 10.7813 73.8147 11.0847 73.3013 11.29C72.788 11.4953 72.2093 11.598 71.5653 11.598C70.744 11.598 70.0207 11.4347 69.3953 11.108C68.77 10.7813 68.2847 10.3287 67.9393 9.75C67.6033 9.162 67.4353 8.49933 67.4353 7.762C67.4353 7.034 67.5987 6.38067 67.9253 5.802C68.2613 5.214 68.7233 4.75667 69.3113 4.43C69.8993 4.10333 70.562 3.94 71.2993 3.94C72.0273 3.94 72.676 4.10333 73.2453 4.43C73.824 4.74733 74.272 5.2 74.5893 5.788C74.916 6.36667 75.0793 7.03867 75.0793 7.804ZM71.2993 5.34C70.7393 5.34 70.2633 5.508 69.8713 5.844C69.4887 6.17067 69.2553 6.60933 69.1713 7.16H73.4133C73.3387 6.61867 73.11 6.18 72.7273 5.844C72.3447 5.508 71.8687 5.34 71.2993 5.34ZM83.9934 7.804C83.9934 7.92533 83.9841 8.098 83.9654 8.322H78.0994C78.202 8.87267 78.468 9.31133 78.8974 9.638C79.336 9.95533 79.8774 10.114 80.5214 10.114C81.3427 10.114 82.0194 9.84333 82.5514 9.302L83.4894 10.38C83.1534 10.7813 82.7287 11.0847 82.2154 11.29C81.702 11.4953 81.1234 11.598 80.4794 11.598C79.658 11.598 78.9347 11.4347 78.3094 11.108C77.684 10.7813 77.1987 10.3287 76.8534 9.75C76.5174 9.162 76.3494 8.49933 76.3494 7.762C76.3494 7.034 76.5127 6.38067 76.8394 5.802C77.1754 5.214 77.6374 4.75667 78.2254 4.43C78.8134 4.10333 79.476 3.94 80.2134 3.94C80.9414 3.94 81.59 4.10333 82.1594 4.43C82.738 4.74733 83.1861 5.2 83.5034 5.788C83.8301 6.36667 83.9934 7.03867 83.9934 7.804ZM80.2134 5.34C79.6534 5.34 79.1774 5.508 78.7854 5.844C78.4027 6.17067 78.1694 6.60933 78.0854 7.16H82.3274C82.2527 6.61867 82.024 6.18 81.6414 5.844C81.2587 5.508 80.7827 5.34 80.2134 5.34Z" fill="white"/>
</svg>
