<svg width="296" height="14" viewBox="0 0 296 14" fill="none" xmlns="http://www.w3.org/2000/svg">
<path d="M5.30444 11.042C4.38977 11.042 3.55444 10.8227 2.79844 10.384C2.05177 9.94533 1.4591 9.348 1.02044 8.592C0.591104 7.836 0.376438 7.00533 0.376438 6.1C0.376438 5.19467 0.591104 4.364 1.02044 3.608C1.4591 2.852 2.05644 2.25467 2.81244 1.816C3.56844 1.37733 4.40844 1.158 5.33244 1.158C6.25644 1.158 7.09177 1.37267 7.83844 1.802C8.59444 2.23133 9.1871 2.824 9.61644 3.58C10.0458 4.32667 10.2604 5.15733 10.2604 6.072C10.2604 6.98667 10.0411 7.82667 9.60244 8.592C9.16377 9.348 8.56644 9.94533 7.81044 10.384C7.05444 10.8227 6.2191 11.042 5.30444 11.042ZM5.30444 10.524C6.12577 10.524 6.87244 10.328 7.54444 9.936C8.21644 9.53467 8.74844 8.998 9.14044 8.326C9.53244 7.64467 9.72844 6.89333 9.72844 6.072C9.72844 5.25067 9.5371 4.50867 9.15444 3.846C8.77177 3.174 8.24444 2.64667 7.57244 2.264C6.90977 1.872 6.1631 1.676 5.33244 1.676C4.50177 1.676 3.74577 1.872 3.06444 2.264C2.39244 2.656 1.86044 3.19267 1.46844 3.874C1.08577 4.546 0.894438 5.288 0.894438 6.1C0.894438 6.912 1.08577 7.65867 1.46844 8.34C1.86044 9.012 2.39244 9.544 3.06444 9.936C3.73644 10.328 4.4831 10.524 5.30444 10.524ZM5.43044 9.012C4.87977 9.012 4.38044 8.89067 3.93244 8.648C3.49377 8.396 3.14844 8.05067 2.89644 7.612C2.64444 7.164 2.51844 6.66 2.51844 6.1C2.51844 5.54 2.64444 5.04067 2.89644 4.602C3.14844 4.154 3.49377 3.80867 3.93244 3.566C4.38044 3.314 4.87977 3.188 5.43044 3.188C5.90644 3.188 6.33577 3.286 6.71844 3.482C7.11044 3.66867 7.4231 3.93 7.65644 4.266L7.05444 4.714C6.85844 4.44333 6.62044 4.24267 6.34044 4.112C6.06044 3.98133 5.75244 3.916 5.41644 3.916C4.80977 3.916 4.30577 4.11667 3.90444 4.518C3.51244 4.91933 3.31644 5.44667 3.31644 6.1C3.31644 6.75333 3.51244 7.28067 3.90444 7.682C4.30577 8.08333 4.80977 8.284 5.41644 8.284C5.75244 8.284 6.06044 8.21867 6.34044 8.088C6.62044 7.95733 6.85844 7.75667 7.05444 7.486L7.65644 7.92C7.4231 8.26533 7.11044 8.536 6.71844 8.732C6.33577 8.91867 5.90644 9.012 5.43044 9.012ZM20.4848 11.084C19.5141 11.084 18.6368 10.8693 17.8528 10.44C17.0781 10.0107 16.4668 9.418 16.0188 8.662C15.5801 7.89667 15.3608 7.04267 15.3608 6.1C15.3608 5.15733 15.5801 4.308 16.0188 3.552C16.4668 2.78667 17.0828 2.18933 17.8668 1.76C18.6508 1.33067 19.5281 1.116 20.4988 1.116C21.2268 1.116 21.8988 1.23733 22.5148 1.48C23.1308 1.72267 23.6535 2.07733 24.0828 2.544L23.4248 3.202C22.6595 2.42733 21.6935 2.04 20.5268 2.04C19.7521 2.04 19.0475 2.21733 18.4128 2.572C17.7781 2.92667 17.2788 3.412 16.9148 4.028C16.5601 4.644 16.3828 5.33467 16.3828 6.1C16.3828 6.86533 16.5601 7.556 16.9148 8.172C17.2788 8.788 17.7781 9.27333 18.4128 9.628C19.0475 9.98267 19.7521 10.16 20.5268 10.16C21.7028 10.16 22.6688 9.768 23.4248 8.984L24.0828 9.642C23.6535 10.1087 23.1261 10.468 22.5008 10.72C21.8848 10.9627 21.2128 11.084 20.4848 11.084ZM28.7632 11.07C28.0539 11.07 27.4145 10.9113 26.8452 10.594C26.2759 10.2673 25.8279 9.81933 25.5012 9.25C25.1745 8.68067 25.0112 8.03667 25.0112 7.318C25.0112 6.59933 25.1745 5.95533 25.5012 5.386C25.8279 4.81667 26.2759 4.37333 26.8452 4.056C27.4145 3.73867 28.0539 3.58 28.7632 3.58C29.4725 3.58 30.1119 3.73867 30.6812 4.056C31.2505 4.37333 31.6939 4.81667 32.0112 5.386C32.3379 5.95533 32.5012 6.59933 32.5012 7.318C32.5012 8.03667 32.3379 8.68067 32.0112 9.25C31.6939 9.81933 31.2505 10.2673 30.6812 10.594C30.1119 10.9113 29.4725 11.07 28.7632 11.07ZM28.7632 10.188C29.2859 10.188 29.7525 10.0713 30.1632 9.838C30.5832 9.59533 30.9099 9.25467 31.1432 8.816C31.3765 8.37733 31.4932 7.878 31.4932 7.318C31.4932 6.758 31.3765 6.25867 31.1432 5.82C30.9099 5.38133 30.5832 5.04533 30.1632 4.812C29.7525 4.56933 29.2859 4.448 28.7632 4.448C28.2405 4.448 27.7692 4.56933 27.3492 4.812C26.9385 5.04533 26.6119 5.38133 26.3692 5.82C26.1359 6.25867 26.0192 6.758 26.0192 7.318C26.0192 7.878 26.1359 8.37733 26.3692 8.816C26.6119 9.25467 26.9385 9.59533 27.3492 9.838C27.7692 10.0713 28.2405 10.188 28.7632 10.188ZM38.3245 3.58C39.0152 3.58 39.6405 3.73867 40.2005 4.056C40.7605 4.364 41.1992 4.80267 41.5165 5.372C41.8339 5.94133 41.9925 6.59 41.9925 7.318C41.9925 8.05533 41.8339 8.70867 41.5165 9.278C41.1992 9.84733 40.7605 10.2907 40.2005 10.608C39.6499 10.916 39.0245 11.07 38.3245 11.07C37.7272 11.07 37.1859 10.9487 36.7005 10.706C36.2245 10.454 35.8325 10.09 35.5245 9.614V13.716H34.5305V3.636H35.4825V5.092C35.7812 4.60667 36.1732 4.23333 36.6585 3.972C37.1532 3.71067 37.7085 3.58 38.3245 3.58ZM38.2545 10.188C38.7679 10.188 39.2345 10.0713 39.6545 9.838C40.0745 9.59533 40.4012 9.25467 40.6345 8.816C40.8772 8.37733 40.9985 7.878 40.9985 7.318C40.9985 6.758 40.8772 6.26333 40.6345 5.834C40.4012 5.39533 40.0745 5.05467 39.6545 4.812C39.2345 4.56933 38.7679 4.448 38.2545 4.448C37.7319 4.448 37.2605 4.56933 36.8405 4.812C36.4299 5.05467 36.1032 5.39533 35.8605 5.834C35.6272 6.26333 35.5105 6.758 35.5105 7.318C35.5105 7.878 35.6272 8.37733 35.8605 8.816C36.1032 9.25467 36.4299 9.59533 36.8405 9.838C37.2605 10.0713 37.7319 10.188 38.2545 10.188ZM50.0017 3.636L46.3197 11.882C46.0211 12.5727 45.6757 13.0627 45.2837 13.352C44.8917 13.6413 44.4204 13.786 43.8697 13.786C43.5151 13.786 43.1837 13.73 42.8757 13.618C42.5677 13.506 42.3017 13.338 42.0777 13.114L42.5397 12.372C42.9131 12.7453 43.3611 12.932 43.8837 12.932C44.2197 12.932 44.5044 12.8387 44.7377 12.652C44.9804 12.4653 45.2044 12.148 45.4097 11.7L45.7317 10.986L42.4417 3.636H43.4777L46.2497 9.894L49.0217 3.636H50.0017ZM52.3536 5.078C52.587 4.58333 52.9323 4.21 53.3896 3.958C53.8563 3.706 54.4303 3.58 55.1116 3.58V4.546L54.8736 4.532C54.099 4.532 53.4923 4.77 53.0536 5.246C52.615 5.722 52.3956 6.38933 52.3956 7.248V11H51.4016V3.636H52.3536V5.078ZM56.9114 3.636H57.9054V11H56.9114V3.636ZM57.4154 2.026C57.2101 2.026 57.0374 1.956 56.8974 1.816C56.7574 1.676 56.6874 1.508 56.6874 1.312C56.6874 1.12533 56.7574 0.962 56.8974 0.821999C57.0374 0.681999 57.2101 0.611999 57.4154 0.611999C57.6207 0.611999 57.7934 0.681999 57.9334 0.821999C58.0734 0.952666 58.1434 1.11133 58.1434 1.298C58.1434 1.50333 58.0734 1.676 57.9334 1.816C57.7934 1.956 57.6207 2.026 57.4154 2.026ZM67.4892 3.636V10.104C67.4892 11.3547 67.1812 12.2787 66.5652 12.876C65.9585 13.4827 65.0392 13.786 63.8072 13.786C63.1258 13.786 62.4772 13.6833 61.8612 13.478C61.2545 13.282 60.7598 13.0067 60.3772 12.652L60.8812 11.896C61.2358 12.2133 61.6652 12.4607 62.1692 12.638C62.6825 12.8153 63.2192 12.904 63.7792 12.904C64.7125 12.904 65.3985 12.6847 65.8372 12.246C66.2758 11.8167 66.4952 11.1447 66.4952 10.23V9.292C66.1872 9.75867 65.7812 10.1133 65.2772 10.356C64.7825 10.5987 64.2318 10.72 63.6252 10.72C62.9345 10.72 62.3045 10.5707 61.7352 10.272C61.1752 9.964 60.7318 9.53933 60.4052 8.998C60.0878 8.44733 59.9292 7.82667 59.9292 7.136C59.9292 6.44533 60.0878 5.82933 60.4052 5.288C60.7318 4.74667 61.1752 4.32667 61.7352 4.028C62.2952 3.72933 62.9252 3.58 63.6252 3.58C64.2505 3.58 64.8152 3.706 65.3192 3.958C65.8232 4.21 66.2292 4.574 66.5372 5.05V3.636H67.4892ZM63.7232 9.838C64.2552 9.838 64.7358 9.726 65.1652 9.502C65.5945 9.26867 65.9258 8.94667 66.1592 8.536C66.4018 8.12533 66.5232 7.65867 66.5232 7.136C66.5232 6.61333 66.4018 6.15133 66.1592 5.75C65.9258 5.33933 65.5945 5.022 65.1652 4.798C64.7452 4.56467 64.2645 4.448 63.7232 4.448C63.1912 4.448 62.7105 4.56 62.2812 4.784C61.8612 5.008 61.5298 5.32533 61.2872 5.736C61.0538 6.14667 60.9372 6.61333 60.9372 7.136C60.9372 7.65867 61.0538 8.12533 61.2872 8.536C61.5298 8.94667 61.8612 9.26867 62.2812 9.502C62.7105 9.726 63.1912 9.838 63.7232 9.838ZM74.0208 3.58C74.9448 3.58 75.6775 3.85067 76.2188 4.392C76.7695 4.924 77.0448 5.70333 77.0448 6.73V11H76.0508V6.828C76.0508 6.06267 75.8595 5.47933 75.4768 5.078C75.0941 4.67667 74.5481 4.476 73.8388 4.476C73.0455 4.476 72.4155 4.714 71.9488 5.19C71.4915 5.65667 71.2628 6.30533 71.2628 7.136V11H70.2688V0.611999H71.2628V4.924C71.5335 4.49467 71.9068 4.16333 72.3828 3.93C72.8588 3.69667 73.4048 3.58 74.0208 3.58ZM83.6214 10.552C83.4348 10.72 83.2014 10.8507 82.9214 10.944C82.6508 11.028 82.3661 11.07 82.0674 11.07C81.3768 11.07 80.8448 10.8833 80.4714 10.51C80.0981 10.1367 79.9114 9.60933 79.9114 8.928V4.476H78.5954V3.636H79.9114V2.026H80.9054V3.636H83.1454V4.476H80.9054V8.872C80.9054 9.31067 81.0128 9.64667 81.2274 9.88C81.4514 10.104 81.7688 10.216 82.1794 10.216C82.3848 10.216 82.5808 10.1833 82.7674 10.118C82.9634 10.0527 83.1314 9.95933 83.2714 9.838L83.6214 10.552ZM95.129 10.104V11H88.255V10.286L92.329 6.296C92.8423 5.792 93.1877 5.358 93.365 4.994C93.5517 4.62067 93.645 4.24733 93.645 3.874C93.645 3.29533 93.4443 2.84733 93.043 2.53C92.651 2.20333 92.0863 2.04 91.349 2.04C90.201 2.04 89.3097 2.404 88.675 3.132L87.961 2.516C88.3437 2.068 88.829 1.72267 89.417 1.48C90.0143 1.23733 90.6863 1.116 91.433 1.116C92.4317 1.116 93.2203 1.354 93.799 1.83C94.387 2.29667 94.681 2.94067 94.681 3.762C94.681 4.266 94.569 4.75133 94.345 5.218C94.121 5.68467 93.6963 6.22133 93.071 6.828L89.739 10.104H95.129ZM100.245 11.084C99.4893 11.084 98.8127 10.8833 98.2153 10.482C97.6273 10.0807 97.1653 9.50667 96.8293 8.76C96.5027 8.004 96.3393 7.11733 96.3393 6.1C96.3393 5.08267 96.5027 4.20067 96.8293 3.454C97.1653 2.698 97.6273 2.11933 98.2153 1.718C98.8127 1.31667 99.4893 1.116 100.245 1.116C101.001 1.116 101.673 1.31667 102.261 1.718C102.859 2.11933 103.325 2.698 103.661 3.454C103.997 4.20067 104.165 5.08267 104.165 6.1C104.165 7.11733 103.997 8.004 103.661 8.76C103.325 9.50667 102.859 10.0807 102.261 10.482C101.673 10.8833 101.001 11.084 100.245 11.084ZM100.245 10.16C100.815 10.16 101.314 10.0013 101.743 9.684C102.182 9.36667 102.523 8.90467 102.765 8.298C103.008 7.69133 103.129 6.95867 103.129 6.1C103.129 5.24133 103.008 4.50867 102.765 3.902C102.523 3.29533 102.182 2.83333 101.743 2.516C101.314 2.19867 100.815 2.04 100.245 2.04C99.676 2.04 99.172 2.19867 98.7333 2.516C98.304 2.83333 97.968 3.29533 97.7253 3.902C97.4827 4.50867 97.3613 5.24133 97.3613 6.1C97.3613 6.95867 97.4827 7.69133 97.7253 8.298C97.968 8.90467 98.304 9.36667 98.7333 9.684C99.172 10.0013 99.676 10.16 100.245 10.16ZM112.274 10.104V11H105.4V10.286L109.474 6.296C109.987 5.792 110.332 5.358 110.51 4.994C110.696 4.62067 110.79 4.24733 110.79 3.874C110.79 3.29533 110.589 2.84733 110.188 2.53C109.796 2.20333 109.231 2.04 108.494 2.04C107.346 2.04 106.454 2.404 105.82 3.132L105.106 2.516C105.488 2.068 105.974 1.72267 106.562 1.48C107.159 1.23733 107.831 1.116 108.578 1.116C109.576 1.116 110.365 1.354 110.944 1.83C111.532 2.29667 111.826 2.94067 111.826 3.762C111.826 4.266 111.714 4.75133 111.49 5.218C111.266 5.68467 110.841 6.22133 110.216 6.828L106.884 10.104H112.274ZM116.255 1.2V11H115.247V2.096H112.937V1.2H116.255ZM119.367 9.544C119.582 9.544 119.759 9.61867 119.899 9.768C120.039 9.908 120.109 10.0853 120.109 10.3C120.109 10.412 120.09 10.5333 120.053 10.664C120.025 10.7947 119.978 10.944 119.913 11.112L119.325 13.044H118.653L119.129 11.014C118.98 10.9673 118.858 10.8833 118.765 10.762C118.672 10.6313 118.625 10.4773 118.625 10.3C118.625 10.0853 118.695 9.908 118.835 9.768C118.975 9.61867 119.152 9.544 119.367 9.544ZM125.2 7.318L127.23 4.658H128.154L126.166 7.318L128.154 9.964H127.23L125.2 7.318ZM127.692 7.318L129.722 4.658H130.646L128.658 7.318L130.646 9.964H129.722L127.692 7.318ZM141.826 10.104V13.198H140.86V11H132.306L132.292 13.198H131.326L131.34 10.104H131.83C132.474 10.0667 132.922 9.558 133.174 8.578C133.426 7.58867 133.58 6.18867 133.636 4.378L133.748 1.2H140.356V10.104H141.826ZM134.56 4.476C134.513 5.96933 134.397 7.20133 134.21 8.172C134.033 9.13333 133.729 9.77733 133.3 10.104H139.334V2.096H134.644L134.56 4.476ZM146.534 11.07C145.825 11.07 145.185 10.9113 144.616 10.594C144.047 10.2673 143.599 9.81933 143.272 9.25C142.945 8.68067 142.782 8.03667 142.782 7.318C142.782 6.59933 142.945 5.95533 143.272 5.386C143.599 4.81667 144.047 4.37333 144.616 4.056C145.185 3.73867 145.825 3.58 146.534 3.58C147.243 3.58 147.883 3.73867 148.452 4.056C149.021 4.37333 149.465 4.81667 149.782 5.386C150.109 5.95533 150.272 6.59933 150.272 7.318C150.272 8.03667 150.109 8.68067 149.782 9.25C149.465 9.81933 149.021 10.2673 148.452 10.594C147.883 10.9113 147.243 11.07 146.534 11.07ZM146.534 10.188C147.057 10.188 147.523 10.0713 147.934 9.838C148.354 9.59533 148.681 9.25467 148.914 8.816C149.147 8.37733 149.264 7.878 149.264 7.318C149.264 6.758 149.147 6.25867 148.914 5.82C148.681 5.38133 148.354 5.04533 147.934 4.812C147.523 4.56933 147.057 4.448 146.534 4.448C146.011 4.448 145.54 4.56933 145.12 4.812C144.709 5.04533 144.383 5.38133 144.14 5.82C143.907 6.25867 143.79 6.758 143.79 7.318C143.79 7.878 143.907 8.37733 144.14 8.816C144.383 9.25467 144.709 9.59533 145.12 9.838C145.54 10.0713 146.011 10.188 146.534 10.188ZM160.628 3.636V11H159.718V5.176L156.736 10.104H156.288L153.306 5.162V11H152.396V3.636H153.404L156.526 8.942L159.704 3.636H160.628ZM165.991 3.58C166.952 3.58 167.69 3.82267 168.203 4.308C168.716 4.784 168.973 5.49333 168.973 6.436V11H168.021V9.852C167.797 10.2347 167.466 10.5333 167.027 10.748C166.598 10.9627 166.084 11.07 165.487 11.07C164.666 11.07 164.012 10.874 163.527 10.482C163.042 10.09 162.799 9.572 162.799 8.928C162.799 8.30267 163.023 7.79867 163.471 7.416C163.928 7.03333 164.652 6.842 165.641 6.842H167.979V6.394C167.979 5.75933 167.802 5.27867 167.447 4.952C167.092 4.616 166.574 4.448 165.893 4.448C165.426 4.448 164.978 4.52733 164.549 4.686C164.12 4.83533 163.751 5.04533 163.443 5.316L162.995 4.574C163.368 4.25667 163.816 4.014 164.339 3.846C164.862 3.66867 165.412 3.58 165.991 3.58ZM165.641 10.286C166.201 10.286 166.682 10.16 167.083 9.908C167.484 9.64667 167.783 9.27333 167.979 8.788V7.584H165.669C164.409 7.584 163.779 8.02267 163.779 8.9C163.779 9.32933 163.942 9.67 164.269 9.922C164.596 10.1647 165.053 10.286 165.641 10.286ZM181.783 3.636V11H171.619V3.636H172.613V10.132H176.225V3.636H177.219V10.132H180.789V3.636H181.783ZM184.621 3.636H185.615V6.898H190.249V3.636H191.243V11H190.249V7.752H185.615V11H184.621V3.636ZM199.724 3.636V11H198.814V8.564H196.504H196.224L194.516 11H193.438L195.272 8.424C194.703 8.26533 194.264 7.99467 193.956 7.612C193.648 7.22933 193.494 6.744 193.494 6.156C193.494 5.33467 193.774 4.70933 194.334 4.28C194.894 3.85067 195.66 3.636 196.63 3.636H199.724ZM194.502 6.184C194.502 7.276 195.198 7.822 196.588 7.822H198.814V4.518H196.658C195.221 4.518 194.502 5.07333 194.502 6.184ZM208.215 3.636V11H207.305V8.564H204.995H204.715L203.007 11H201.929L203.763 8.424C203.193 8.26533 202.755 7.99467 202.447 7.612C202.139 7.22933 201.985 6.744 201.985 6.156C201.985 5.33467 202.265 4.70933 202.825 4.28C203.385 3.85067 204.15 3.636 205.121 3.636H208.215ZM202.993 6.184C202.993 7.276 203.688 7.822 205.079 7.822H207.305V4.518H205.149C203.711 4.518 202.993 5.07333 202.993 6.184ZM219.921 4.518H215.707V11H214.713V3.636H219.921V4.518ZM224.054 11.07C223.344 11.07 222.705 10.9113 222.136 10.594C221.566 10.2673 221.118 9.81933 220.792 9.25C220.465 8.68067 220.302 8.03667 220.302 7.318C220.302 6.59933 220.465 5.95533 220.792 5.386C221.118 4.81667 221.566 4.37333 222.136 4.056C222.705 3.73867 223.344 3.58 224.054 3.58C224.763 3.58 225.402 3.73867 225.972 4.056C226.541 4.37333 226.984 4.81667 227.302 5.386C227.628 5.95533 227.792 6.59933 227.792 7.318C227.792 8.03667 227.628 8.68067 227.302 9.25C226.984 9.81933 226.541 10.2673 225.972 10.594C225.402 10.9113 224.763 11.07 224.054 11.07ZM224.054 10.188C224.576 10.188 225.043 10.0713 225.454 9.838C225.874 9.59533 226.2 9.25467 226.434 8.816C226.667 8.37733 226.784 7.878 226.784 7.318C226.784 6.758 226.667 6.25867 226.434 5.82C226.2 5.38133 225.874 5.04533 225.454 4.812C225.043 4.56933 224.576 4.448 224.054 4.448C223.531 4.448 223.06 4.56933 222.64 4.812C222.229 5.04533 221.902 5.38133 221.66 5.82C221.426 6.25867 221.31 6.758 221.31 7.318C221.31 7.878 221.426 8.37733 221.66 8.816C221.902 9.25467 222.229 9.59533 222.64 9.838C223.06 10.0713 223.531 10.188 224.054 10.188ZM232.996 11.07C232.268 11.07 231.615 10.9113 231.036 10.594C230.467 10.2767 230.019 9.83333 229.692 9.264C229.365 8.68533 229.202 8.03667 229.202 7.318C229.202 6.59933 229.365 5.95533 229.692 5.386C230.019 4.81667 230.467 4.37333 231.036 4.056C231.615 3.73867 232.268 3.58 232.996 3.58C233.631 3.58 234.195 3.706 234.69 3.958C235.194 4.20067 235.591 4.56 235.88 5.036L235.138 5.54C234.895 5.176 234.587 4.90533 234.214 4.728C233.841 4.54133 233.435 4.448 232.996 4.448C232.464 4.448 231.983 4.56933 231.554 4.812C231.134 5.04533 230.803 5.38133 230.56 5.82C230.327 6.25867 230.21 6.758 230.21 7.318C230.21 7.88733 230.327 8.39133 230.56 8.83C230.803 9.25933 231.134 9.59533 231.554 9.838C231.983 10.0713 232.464 10.188 232.996 10.188C233.435 10.188 233.841 10.0993 234.214 9.922C234.587 9.74467 234.895 9.474 235.138 9.11L235.88 9.614C235.591 10.09 235.194 10.454 234.69 10.706C234.186 10.9487 233.621 11.07 232.996 11.07ZM242.848 4.518H240.062V11H239.068V4.518H236.282V3.636H242.848V4.518ZM244.285 3.636H245.279V9.488L250.193 3.636H251.075V11H250.081V5.148L245.181 11H244.285V3.636ZM253.924 3.636H254.918V6.898H259.552V3.636H260.546V11H259.552V7.752H254.918V11H253.924V3.636ZM263.371 3.636H264.365V9.488L269.279 3.636H270.161V11H269.167V5.148L264.267 11H263.371V3.636ZM280.682 10.132V12.848H279.744V11H273.01V3.636H274.004V10.132H278.498V3.636H279.492V10.132H280.682ZM285.114 3.58C286.075 3.58 286.813 3.82267 287.326 4.308C287.839 4.784 288.096 5.49333 288.096 6.436V11H287.144V9.852C286.92 10.2347 286.589 10.5333 286.15 10.748C285.721 10.9627 285.207 11.07 284.61 11.07C283.789 11.07 283.135 10.874 282.65 10.482C282.165 10.09 281.922 9.572 281.922 8.928C281.922 8.30267 282.146 7.79867 282.594 7.416C283.051 7.03333 283.775 6.842 284.764 6.842H287.102V6.394C287.102 5.75933 286.925 5.27867 286.57 4.952C286.215 4.616 285.697 4.448 285.016 4.448C284.549 4.448 284.101 4.52733 283.672 4.686C283.243 4.83533 282.874 5.04533 282.566 5.316L282.118 4.574C282.491 4.25667 282.939 4.014 283.462 3.846C283.985 3.66867 284.535 3.58 285.114 3.58ZM284.764 10.286C285.324 10.286 285.805 10.16 286.206 9.908C286.607 9.64667 286.906 9.27333 287.102 8.788V7.584H284.792C283.532 7.584 282.902 8.02267 282.902 8.9C282.902 9.32933 283.065 9.67 283.392 9.922C283.719 10.1647 284.176 10.286 284.764 10.286ZM289.86 9.964L291.848 7.318L289.86 4.658H290.784L292.814 7.318L290.784 9.964H289.86ZM292.352 9.964L294.34 7.318L292.352 4.658H293.276L295.306 7.318L293.276 9.964H292.352Z" fill="white"/>
</svg>
