<svg width="242" height="17" viewBox="0 0 242 17" fill="none" xmlns="http://www.w3.org/2000/svg">
<path d="M0.124 0.399999H9.34V1.534H1.438V5.656H5.56C7.048 5.656 8.176 5.962 8.944 6.574C9.724 7.186 10.114 8.074 10.114 9.238C10.114 10.45 9.694 11.38 8.854 12.028C8.026 12.676 6.832 13 5.272 13H0.124V0.399999ZM5.254 11.938C6.418 11.938 7.294 11.716 7.882 11.272C8.482 10.828 8.782 10.168 8.782 9.292C8.782 8.428 8.488 7.786 7.9 7.366C7.324 6.934 6.442 6.718 5.254 6.718H1.438V11.938H5.254ZM21.1761 8.662H13.2561C13.3281 9.646 13.7061 10.444 14.3901 11.056C15.0741 11.656 15.9381 11.956 16.9821 11.956C17.5701 11.956 18.1101 11.854 18.6021 11.65C19.0941 11.434 19.5201 11.122 19.8801 10.714L20.6001 11.542C20.1801 12.046 19.6521 12.43 19.0161 12.694C18.3921 12.958 17.7021 13.09 16.9461 13.09C15.9741 13.09 15.1101 12.886 14.3541 12.478C13.6101 12.058 13.0281 11.482 12.6081 10.75C12.1881 10.018 11.9781 9.19 11.9781 8.266C11.9781 7.342 12.1761 6.514 12.5721 5.782C12.9801 5.05 13.5321 4.48 14.2281 4.072C14.9361 3.664 15.7281 3.46 16.6041 3.46C17.4801 3.46 18.2661 3.664 18.9621 4.072C19.6581 4.48 20.2041 5.05 20.6001 5.782C20.9961 6.502 21.1941 7.33 21.1941 8.266L21.1761 8.662ZM16.6041 4.558C15.6921 4.558 14.9241 4.852 14.3001 5.44C13.6881 6.016 13.3401 6.772 13.2561 7.708H19.9701C19.8861 6.772 19.5321 6.016 18.9081 5.44C18.2961 4.852 17.5281 4.558 16.6041 4.558ZM28.9011 3.46C29.7891 3.46 30.5931 3.664 31.3131 4.072C32.0331 4.468 32.5971 5.032 33.0051 5.764C33.4131 6.496 33.6171 7.33 33.6171 8.266C33.6171 9.214 33.4131 10.054 33.0051 10.786C32.5971 11.518 32.0331 12.088 31.3131 12.496C30.6051 12.892 29.8011 13.09 28.9011 13.09C28.1331 13.09 27.4371 12.934 26.8131 12.622C26.2011 12.298 25.6971 11.83 25.3011 11.218V16.492H24.0231V3.532H25.2471V5.404C25.6311 4.78 26.1351 4.3 26.7591 3.964C27.3951 3.628 28.1091 3.46 28.9011 3.46ZM28.8111 11.956C29.4711 11.956 30.0711 11.806 30.6111 11.506C31.1511 11.194 31.5711 10.756 31.8711 10.192C32.1831 9.628 32.3391 8.986 32.3391 8.266C32.3391 7.546 32.1831 6.91 31.8711 6.358C31.5711 5.794 31.1511 5.356 30.6111 5.044C30.0711 4.732 29.4711 4.576 28.8111 4.576C28.1391 4.576 27.5331 4.732 26.9931 5.044C26.4651 5.356 26.0451 5.794 25.7331 6.358C25.4331 6.91 25.2831 7.546 25.2831 8.266C25.2831 8.986 25.4331 9.628 25.7331 10.192C26.0451 10.756 26.4651 11.194 26.9931 11.506C27.5331 11.806 28.1391 11.956 28.8111 11.956ZM44.6429 8.662H36.7229C36.7949 9.646 37.1729 10.444 37.8569 11.056C38.5409 11.656 39.4049 11.956 40.4489 11.956C41.0369 11.956 41.5769 11.854 42.0689 11.65C42.5609 11.434 42.9869 11.122 43.3469 10.714L44.0669 11.542C43.6469 12.046 43.1189 12.43 42.4829 12.694C41.8589 12.958 41.1689 13.09 40.4129 13.09C39.4409 13.09 38.5769 12.886 37.8209 12.478C37.0769 12.058 36.4949 11.482 36.0749 10.75C35.6549 10.018 35.4449 9.19 35.4449 8.266C35.4449 7.342 35.6429 6.514 36.0389 5.782C36.4469 5.05 36.9989 4.48 37.6949 4.072C38.4029 3.664 39.1949 3.46 40.0709 3.46C40.9469 3.46 41.7329 3.664 42.4289 4.072C43.1249 4.48 43.6709 5.05 44.0669 5.782C44.4629 6.502 44.6609 7.33 44.6609 8.266L44.6429 8.662ZM40.0709 4.558C39.1589 4.558 38.3909 4.852 37.7669 5.44C37.1549 6.016 36.8069 6.772 36.7229 7.708H43.4369C43.3529 6.772 42.9989 6.016 42.3749 5.44C41.7629 4.852 40.9949 4.558 40.0709 4.558ZM51.8342 8.068C52.5062 8.224 53.0222 8.494 53.3822 8.878C53.7542 9.262 53.9402 9.73 53.9402 10.282C53.9402 10.834 53.7482 11.326 53.3642 11.758C52.9922 12.19 52.4822 12.526 51.8342 12.766C51.1862 12.994 50.4722 13.108 49.6922 13.108C49.0082 13.108 48.3362 13.012 47.6762 12.82C47.0162 12.616 46.4402 12.322 45.9482 11.938L46.3802 10.984C46.8122 11.308 47.3162 11.56 47.8922 11.74C48.4682 11.92 49.0502 12.01 49.6382 12.01C50.5142 12.01 51.2282 11.848 51.7802 11.524C52.3442 11.188 52.6262 10.738 52.6262 10.174C52.6262 9.67 52.3982 9.28 51.9422 9.004C51.4862 8.716 50.8622 8.572 50.0702 8.572H48.4502V7.636H49.9982C50.7062 7.636 51.2762 7.504 51.7082 7.24C52.1402 6.964 52.3562 6.598 52.3562 6.142C52.3562 5.638 52.1102 5.242 51.6182 4.954C51.1382 4.666 50.5082 4.522 49.7282 4.522C48.7082 4.522 47.7002 4.78 46.7042 5.296L46.3442 4.306C47.4722 3.718 48.6422 3.424 49.8542 3.424C50.5742 3.424 51.2222 3.532 51.7982 3.748C52.3862 3.952 52.8422 4.246 53.1662 4.63C53.5022 5.014 53.6702 5.458 53.6702 5.962C53.6702 6.442 53.5022 6.868 53.1662 7.24C52.8422 7.612 52.3982 7.888 51.8342 8.068ZM56.8414 3.532H58.1194V7.726H64.0774V3.532H65.3554V13H64.0774V8.824H58.1194V13H56.8414V3.532ZM68.9879 3.532H70.2659V11.056L76.5839 3.532H77.7179V13H76.4399V5.476L70.1399 13H68.9879V3.532ZM84.8185 8.788H82.6585V13H81.3805V3.532H82.6585V7.69H84.8365L88.1665 3.532H89.5525L85.8265 8.122L89.8225 13H88.3105L84.8185 8.788ZM91.8395 3.532H93.1175V11.056L99.4355 3.532H100.569V13H99.2915V5.476L92.9915 13H91.8395V3.532ZM104.34 11.128C104.616 11.128 104.844 11.224 105.024 11.416C105.204 11.596 105.294 11.824 105.294 12.1C105.294 12.244 105.27 12.4 105.222 12.568C105.186 12.736 105.126 12.928 105.042 13.144L104.286 15.628H103.422L104.034 13.018C103.842 12.958 103.686 12.85 103.566 12.694C103.446 12.526 103.386 12.328 103.386 12.1C103.386 11.824 103.476 11.596 103.656 11.416C103.836 11.224 104.064 11.128 104.34 11.128ZM120.803 3.532L116.069 14.134C115.685 15.022 115.241 15.652 114.737 16.024C114.233 16.396 113.627 16.582 112.919 16.582C112.463 16.582 112.037 16.51 111.641 16.366C111.245 16.222 110.903 16.006 110.615 15.718L111.209 14.764C111.689 15.244 112.265 15.484 112.937 15.484C113.369 15.484 113.735 15.364 114.035 15.124C114.347 14.884 114.635 14.476 114.899 13.9L115.313 12.982L111.083 3.532H112.415L115.979 11.578L119.543 3.532H120.803ZM130.113 3.532V13H128.835V4.666H124.299L124.173 7.006C124.077 8.974 123.849 10.486 123.489 11.542C123.129 12.598 122.487 13.126 121.563 13.126C121.311 13.126 121.005 13.078 120.645 12.982L120.735 11.884C120.951 11.932 121.101 11.956 121.185 11.956C121.677 11.956 122.049 11.728 122.301 11.272C122.553 10.816 122.721 10.252 122.805 9.58C122.889 8.908 122.961 8.02 123.021 6.916L123.183 3.532H130.113ZM133.836 13.09C133.572 13.09 133.344 12.994 133.152 12.802C132.972 12.61 132.882 12.376 132.882 12.1C132.882 11.824 132.972 11.596 133.152 11.416C133.344 11.224 133.572 11.128 133.836 11.128C134.1 11.128 134.328 11.224 134.52 11.416C134.712 11.596 134.808 11.824 134.808 12.1C134.808 12.376 134.712 12.61 134.52 12.802C134.328 12.994 134.1 13.09 133.836 13.09ZM150.047 6.502C150.923 6.682 151.589 7.036 152.045 7.564C152.501 8.08 152.729 8.758 152.729 9.598C152.729 10.69 152.339 11.53 151.559 12.118C150.791 12.706 149.657 13 148.157 13H142.577V0.399999H147.815C149.159 0.399999 150.209 0.675999 150.965 1.228C151.721 1.78 152.099 2.578 152.099 3.622C152.099 4.33 151.919 4.93 151.559 5.422C151.199 5.902 150.695 6.262 150.047 6.502ZM143.891 6.106H147.743C148.715 6.106 149.459 5.908 149.975 5.512C150.503 5.116 150.767 4.54 150.767 3.784C150.767 3.028 150.503 2.452 149.975 2.056C149.459 1.66 148.715 1.462 147.743 1.462H143.891V6.106ZM148.157 11.938C150.329 11.938 151.415 11.128 151.415 9.508C151.415 7.924 150.329 7.132 148.157 7.132H143.891V11.938H148.157ZM163.494 3.532V13H162.216V4.666H157.68L157.554 7.006C157.458 8.974 157.23 10.486 156.87 11.542C156.51 12.598 155.868 13.126 154.944 13.126C154.692 13.126 154.386 13.078 154.026 12.982L154.116 11.884C154.332 11.932 154.482 11.956 154.566 11.956C155.058 11.956 155.43 11.728 155.682 11.272C155.934 10.816 156.102 10.252 156.186 9.58C156.27 8.908 156.342 8.02 156.402 6.916L156.564 3.532H163.494ZM170.385 3.46C171.621 3.46 172.569 3.772 173.229 4.396C173.889 5.008 174.219 5.92 174.219 7.132V13H172.995V11.524C172.707 12.016 172.281 12.4 171.717 12.676C171.165 12.952 170.505 13.09 169.737 13.09C168.681 13.09 167.841 12.838 167.217 12.334C166.593 11.83 166.281 11.164 166.281 10.336C166.281 9.532 166.569 8.884 167.145 8.392C167.733 7.9 168.663 7.654 169.935 7.654H172.941V7.078C172.941 6.262 172.713 5.644 172.257 5.224C171.801 4.792 171.135 4.576 170.259 4.576C169.659 4.576 169.083 4.678 168.531 4.882C167.979 5.074 167.505 5.344 167.109 5.692L166.533 4.738C167.013 4.33 167.589 4.018 168.261 3.802C168.933 3.574 169.641 3.46 170.385 3.46ZM169.935 12.082C170.655 12.082 171.273 11.92 171.789 11.596C172.305 11.26 172.689 10.78 172.941 10.156V8.608H169.971C168.351 8.608 167.541 9.172 167.541 10.3C167.541 10.852 167.751 11.29 168.171 11.614C168.591 11.926 169.179 12.082 169.935 12.082ZM181.581 13.09C180.645 13.09 179.805 12.886 179.061 12.478C178.329 12.07 177.753 11.5 177.333 10.768C176.913 10.024 176.703 9.19 176.703 8.266C176.703 7.342 176.913 6.514 177.333 5.782C177.753 5.05 178.329 4.48 179.061 4.072C179.805 3.664 180.645 3.46 181.581 3.46C182.397 3.46 183.123 3.622 183.759 3.946C184.407 4.258 184.917 4.72 185.289 5.332L184.335 5.98C184.023 5.512 183.627 5.164 183.147 4.936C182.667 4.696 182.145 4.576 181.581 4.576C180.897 4.576 180.279 4.732 179.727 5.044C179.187 5.344 178.761 5.776 178.449 6.34C178.149 6.904 177.999 7.546 177.999 8.266C177.999 8.998 178.149 9.646 178.449 10.21C178.761 10.762 179.187 11.194 179.727 11.506C180.279 11.806 180.897 11.956 181.581 11.956C182.145 11.956 182.667 11.842 183.147 11.614C183.627 11.386 184.023 11.038 184.335 10.57L185.289 11.218C184.917 11.83 184.407 12.298 183.759 12.622C183.111 12.934 182.385 13.09 181.581 13.09ZM191.511 13.09C190.599 13.09 189.777 12.886 189.045 12.478C188.313 12.058 187.737 11.482 187.317 10.75C186.897 10.018 186.687 9.19 186.687 8.266C186.687 7.342 186.897 6.514 187.317 5.782C187.737 5.05 188.313 4.48 189.045 4.072C189.777 3.664 190.599 3.46 191.511 3.46C192.423 3.46 193.245 3.664 193.977 4.072C194.709 4.48 195.279 5.05 195.687 5.782C196.107 6.514 196.317 7.342 196.317 8.266C196.317 9.19 196.107 10.018 195.687 10.75C195.279 11.482 194.709 12.058 193.977 12.478C193.245 12.886 192.423 13.09 191.511 13.09ZM191.511 11.956C192.183 11.956 192.783 11.806 193.311 11.506C193.851 11.194 194.271 10.756 194.571 10.192C194.871 9.628 195.021 8.986 195.021 8.266C195.021 7.546 194.871 6.904 194.571 6.34C194.271 5.776 193.851 5.344 193.311 5.044C192.783 4.732 192.183 4.576 191.511 4.576C190.839 4.576 190.233 4.732 189.693 5.044C189.165 5.344 188.745 5.776 188.433 6.34C188.133 6.904 187.983 7.546 187.983 8.266C187.983 8.986 188.133 9.628 188.433 10.192C188.745 10.756 189.165 11.194 189.693 11.506C190.233 11.806 190.839 11.956 191.511 11.956ZM205.078 8.104C206.362 8.404 207.004 9.178 207.004 10.426C207.004 11.254 206.698 11.89 206.086 12.334C205.474 12.778 204.562 13 203.35 13H199.048V3.532H203.224C204.304 3.532 205.15 3.742 205.762 4.162C206.374 4.582 206.68 5.182 206.68 5.962C206.68 6.478 206.536 6.922 206.248 7.294C205.972 7.654 205.582 7.924 205.078 8.104ZM200.29 7.744H203.134C203.866 7.744 204.424 7.606 204.808 7.33C205.204 7.054 205.402 6.652 205.402 6.124C205.402 5.596 205.204 5.2 204.808 4.936C204.424 4.672 203.866 4.54 203.134 4.54H200.29V7.744ZM203.296 11.992C204.112 11.992 204.724 11.86 205.132 11.596C205.54 11.332 205.744 10.918 205.744 10.354C205.744 9.79 205.558 9.376 205.186 9.112C204.814 8.836 204.226 8.698 203.422 8.698H200.29V11.992H203.296ZM213.258 3.46C214.494 3.46 215.442 3.772 216.102 4.396C216.762 5.008 217.092 5.92 217.092 7.132V13H215.868V11.524C215.58 12.016 215.154 12.4 214.59 12.676C214.038 12.952 213.378 13.09 212.61 13.09C211.554 13.09 210.714 12.838 210.09 12.334C209.466 11.83 209.154 11.164 209.154 10.336C209.154 9.532 209.442 8.884 210.018 8.392C210.606 7.9 211.536 7.654 212.808 7.654H215.814V7.078C215.814 6.262 215.586 5.644 215.13 5.224C214.674 4.792 214.008 4.576 213.132 4.576C212.532 4.576 211.956 4.678 211.404 4.882C210.852 5.074 210.378 5.344 209.982 5.692L209.406 4.738C209.886 4.33 210.462 4.018 211.134 3.802C211.806 3.574 212.514 3.46 213.258 3.46ZM212.808 12.082C213.528 12.082 214.146 11.92 214.662 11.596C215.178 11.26 215.562 10.78 215.814 10.156V8.608H212.844C211.224 8.608 210.414 9.172 210.414 10.3C210.414 10.852 210.624 11.29 211.044 11.614C211.464 11.926 212.052 12.082 212.808 12.082ZM227.815 0.399999V13H226.519V1.552H223.549V0.399999H227.815ZM241.537 9.688H239.017V13H237.721V9.688H230.611V8.752L237.289 0.399999H238.729L232.285 8.536H237.757V5.62H239.017V8.536H241.537V9.688Z" fill="white"/>
</svg>
