<svg width="102" height="12" viewBox="0 0 102 12" fill="none" xmlns="http://www.w3.org/2000/svg">
<path d="M7.66539 0.599999V9H6.10539V5.4H1.76139V9H0.201391V0.599999H1.76139V4.068H6.10539V0.599999H7.66539ZM12.7097 9.084C12.0617 9.084 11.4777 8.944 10.9577 8.664C10.4377 8.384 10.0297 7.996 9.7337 7.5C9.4457 6.996 9.3017 6.428 9.3017 5.796C9.3017 5.164 9.4457 4.6 9.7337 4.104C10.0297 3.608 10.4377 3.22 10.9577 2.94C11.4777 2.66 12.0617 2.52 12.7097 2.52C13.3657 2.52 13.9537 2.66 14.4737 2.94C14.9937 3.22 15.3977 3.608 15.6857 4.104C15.9817 4.6 16.1297 5.164 16.1297 5.796C16.1297 6.428 15.9817 6.996 15.6857 7.5C15.3977 7.996 14.9937 8.384 14.4737 8.664C13.9537 8.944 13.3657 9.084 12.7097 9.084ZM12.7097 7.8C13.2617 7.8 13.7177 7.616 14.0777 7.248C14.4377 6.88 14.6177 6.396 14.6177 5.796C14.6177 5.196 14.4377 4.712 14.0777 4.344C13.7177 3.976 13.2617 3.792 12.7097 3.792C12.1577 3.792 11.7017 3.976 11.3417 4.344C10.9897 4.712 10.8137 5.196 10.8137 5.796C10.8137 6.396 10.9897 6.88 11.3417 7.248C11.7017 7.616 12.1577 7.8 12.7097 7.8ZM22.2555 5.664C23.0475 5.904 23.4435 6.416 23.4435 7.2C23.4435 7.776 23.2275 8.22 22.7955 8.532C22.3635 8.844 21.7235 9 20.8755 9H17.6115V2.592H20.7435C21.5275 2.592 22.1395 2.736 22.5795 3.024C23.0195 3.312 23.2395 3.72 23.2395 4.248C23.2395 4.576 23.1515 4.86 22.9755 5.1C22.8075 5.34 22.5675 5.528 22.2555 5.664ZM19.0395 5.268H20.6115C21.3875 5.268 21.7755 5 21.7755 4.464C21.7755 3.944 21.3875 3.684 20.6115 3.684H19.0395V5.268ZM20.7555 7.908C21.5795 7.908 21.9915 7.64 21.9915 7.104C21.9915 6.824 21.8955 6.616 21.7035 6.48C21.5115 6.336 21.2115 6.264 20.8035 6.264H19.0395V7.908H20.7555ZM27.4292 2.52C28.3732 2.52 29.0932 2.748 29.5892 3.204C30.0932 3.652 30.3452 4.332 30.3452 5.244V9H28.9292V8.22C28.7452 8.5 28.4812 8.716 28.1372 8.868C27.8012 9.012 27.3932 9.084 26.9132 9.084C26.4332 9.084 26.0132 9.004 25.6532 8.844C25.2932 8.676 25.0132 8.448 24.8132 8.16C24.6212 7.864 24.5252 7.532 24.5252 7.164C24.5252 6.588 24.7372 6.128 25.1612 5.784C25.5932 5.432 26.2692 5.256 27.1892 5.256H28.8452V5.16C28.8452 4.712 28.7092 4.368 28.4372 4.128C28.1732 3.888 27.7772 3.768 27.2492 3.768C26.8892 3.768 26.5332 3.824 26.1812 3.936C25.8372 4.048 25.5452 4.204 25.3052 4.404L24.7172 3.312C25.0532 3.056 25.4572 2.86 25.9292 2.724C26.4012 2.588 26.9012 2.52 27.4292 2.52ZM27.2252 7.992C27.6012 7.992 27.9332 7.908 28.2212 7.74C28.5172 7.564 28.7252 7.316 28.8452 6.996V6.252H27.2972C26.4332 6.252 26.0012 6.536 26.0012 7.104C26.0012 7.376 26.1092 7.592 26.3252 7.752C26.5412 7.912 26.8412 7.992 27.2252 7.992ZM37.6134 2.592V9H36.2694V7.068H34.5774L33.2694 9H31.6614L33.1734 6.864C32.7094 6.704 32.3534 6.46 32.1054 6.132C31.8654 5.796 31.7454 5.384 31.7454 4.896C31.7454 4.16 32.0054 3.592 32.5254 3.192C33.0454 2.792 33.7614 2.592 34.6734 2.592H37.6134ZM34.7214 3.852C33.7534 3.852 33.2694 4.216 33.2694 4.944C33.2694 5.664 33.7374 6.024 34.6734 6.024H36.2694V3.852H34.7214ZM45.6115 6.432H44.4475V9H42.9475V2.592H44.4475V5.184H45.6475L47.5435 2.592H49.1515L46.8235 5.676L49.3075 9H47.5435L45.6115 6.432ZM55.0094 5.664C55.8014 5.904 56.1974 6.416 56.1974 7.2C56.1974 7.776 55.9814 8.22 55.5494 8.532C55.1174 8.844 54.4774 9 53.6294 9H50.3654V2.592H53.4974C54.2814 2.592 54.8934 2.736 55.3334 3.024C55.7734 3.312 55.9934 3.72 55.9934 4.248C55.9934 4.576 55.9054 4.86 55.7294 5.1C55.5614 5.34 55.3214 5.528 55.0094 5.664ZM51.7934 5.268H53.3654C54.1414 5.268 54.5294 5 54.5294 4.464C54.5294 3.944 54.1414 3.684 53.3654 3.684H51.7934V5.268ZM53.5094 7.908C54.3334 7.908 54.7454 7.64 54.7454 7.104C54.7454 6.824 54.6494 6.616 54.4574 6.48C54.2654 6.336 53.9654 6.264 53.5574 6.264H51.7934V7.908H53.5094ZM60.1831 2.52C61.1271 2.52 61.8471 2.748 62.3431 3.204C62.8471 3.652 63.0991 4.332 63.0991 5.244V9H61.6831V8.22C61.4991 8.5 61.2351 8.716 60.8911 8.868C60.5551 9.012 60.1471 9.084 59.6671 9.084C59.1871 9.084 58.7671 9.004 58.4071 8.844C58.0471 8.676 57.7671 8.448 57.5671 8.16C57.3751 7.864 57.2791 7.532 57.2791 7.164C57.2791 6.588 57.4911 6.128 57.9151 5.784C58.3471 5.432 59.0231 5.256 59.9431 5.256H61.5991V5.16C61.5991 4.712 61.4631 4.368 61.1911 4.128C60.9271 3.888 60.5311 3.768 60.0031 3.768C59.6431 3.768 59.2871 3.824 58.9351 3.936C58.5911 4.048 58.2991 4.204 58.0591 4.404L57.4711 3.312C57.8071 3.056 58.2111 2.86 58.6831 2.724C59.1551 2.588 59.6551 2.52 60.1831 2.52ZM59.9791 7.992C60.3551 7.992 60.6871 7.908 60.9751 7.74C61.2711 7.564 61.4791 7.316 61.5991 6.996V6.252H60.0511C59.1871 6.252 58.7551 6.536 58.7551 7.104C58.7551 7.376 58.8631 7.592 59.0791 7.752C59.2951 7.912 59.5951 7.992 59.9791 7.992ZM68.5073 2.52C69.1313 2.52 69.6873 2.656 70.1753 2.928C70.6713 3.2 71.0593 3.584 71.3393 4.08C71.6193 4.576 71.7593 5.148 71.7593 5.796C71.7593 6.444 71.6193 7.02 71.3393 7.524C71.0593 8.02 70.6713 8.404 70.1753 8.676C69.6873 8.948 69.1313 9.084 68.5073 9.084C67.6433 9.084 66.9593 8.796 66.4553 8.22V11.328H64.9553V2.592H66.3833V3.432C66.6313 3.128 66.9353 2.9 67.2953 2.748C67.6633 2.596 68.0673 2.52 68.5073 2.52ZM68.3393 7.8C68.8913 7.8 69.3433 7.616 69.6953 7.248C70.0553 6.88 70.2353 6.396 70.2353 5.796C70.2353 5.196 70.0553 4.712 69.6953 4.344C69.3433 3.976 68.8913 3.792 68.3393 3.792C67.9793 3.792 67.6553 3.876 67.3673 4.044C67.0793 4.204 66.8513 4.436 66.6833 4.74C66.5153 5.044 66.4313 5.396 66.4313 5.796C66.4313 6.196 66.5153 6.548 66.6833 6.852C66.8513 7.156 67.0793 7.392 67.3673 7.56C67.6553 7.72 67.9793 7.8 68.3393 7.8ZM78.0938 3.864H75.8498V9H74.3498V3.864H72.0938V2.592H78.0938V3.864ZM79.1818 2.592H80.6818V6.816L84.2218 2.592H85.5898V9H84.0898V4.776L80.5618 9H79.1818V2.592ZM91.1596 2.52C91.7836 2.52 92.3396 2.656 92.8276 2.928C93.3236 3.2 93.7116 3.584 93.9916 4.08C94.2716 4.576 94.4116 5.148 94.4116 5.796C94.4116 6.444 94.2716 7.02 93.9916 7.524C93.7116 8.02 93.3236 8.404 92.8276 8.676C92.3396 8.948 91.7836 9.084 91.1596 9.084C90.2956 9.084 89.6116 8.796 89.1076 8.22V11.328H87.6076V2.592H89.0356V3.432C89.2836 3.128 89.5876 2.9 89.9476 2.748C90.3156 2.596 90.7196 2.52 91.1596 2.52ZM90.9916 7.8C91.5436 7.8 91.9956 7.616 92.3476 7.248C92.7076 6.88 92.8876 6.396 92.8876 5.796C92.8876 5.196 92.7076 4.712 92.3476 4.344C91.9956 3.976 91.5436 3.792 90.9916 3.792C90.6316 3.792 90.3076 3.876 90.0196 4.044C89.7316 4.204 89.5036 4.436 89.3356 4.74C89.1676 5.044 89.0836 5.396 89.0836 5.796C89.0836 6.196 89.1676 6.548 89.3356 6.852C89.5036 7.156 89.7316 7.392 90.0196 7.56C90.3076 7.72 90.6316 7.8 90.9916 7.8ZM98.2105 2.52C99.1545 2.52 99.8745 2.748 100.37 3.204C100.874 3.652 101.126 4.332 101.126 5.244V9H99.7105V8.22C99.5265 8.5 99.2625 8.716 98.9185 8.868C98.5825 9.012 98.1745 9.084 97.6945 9.084C97.2145 9.084 96.7945 9.004 96.4345 8.844C96.0745 8.676 95.7945 8.448 95.5945 8.16C95.4025 7.864 95.3065 7.532 95.3065 7.164C95.3065 6.588 95.5185 6.128 95.9425 5.784C96.3745 5.432 97.0505 5.256 97.9705 5.256H99.6265V5.16C99.6265 4.712 99.4905 4.368 99.2185 4.128C98.9545 3.888 98.5585 3.768 98.0305 3.768C97.6705 3.768 97.3145 3.824 96.9625 3.936C96.6185 4.048 96.3265 4.204 96.0865 4.404L95.4985 3.312C95.8345 3.056 96.2385 2.86 96.7105 2.724C97.1825 2.588 97.6825 2.52 98.2105 2.52ZM98.0065 7.992C98.3825 7.992 98.7145 7.908 99.0025 7.74C99.2985 7.564 99.5065 7.316 99.6265 6.996V6.252H98.0785C97.2145 6.252 96.7825 6.536 96.7825 7.104C96.7825 7.376 96.8905 7.592 97.1065 7.752C97.3225 7.912 97.6225 7.992 98.0065 7.992Z" fill="white"/>
</svg>
