<svg width="343" height="23" viewBox="0 0 343 23" fill="none" xmlns="http://www.w3.org/2000/svg">
<path d="M10.056 18.336C8.28 18.336 6.68 17.96 5.256 17.208C3.848 16.456 2.736 15.416 1.92 14.088C1.12 12.76 0.72 11.264 0.72 9.6C0.72 7.936 1.12 6.44 1.92 5.112C2.736 3.784 3.848 2.744 5.256 1.992C6.68 1.24 8.28 0.863999 10.056 0.863999C11.832 0.863999 13.424 1.24 14.832 1.992C16.256 2.744 17.368 3.784 18.168 5.112C18.984 6.44 19.392 7.936 19.392 9.6C19.392 11.264 18.984 12.76 18.168 14.088C17.368 15.416 16.256 16.456 14.832 17.208C13.424 17.96 11.832 18.336 10.056 18.336ZM10.056 14.4C10.904 14.4 11.672 14.2 12.36 13.8C13.048 13.4 13.592 12.84 13.992 12.12C14.392 11.384 14.592 10.544 14.592 9.6C14.592 8.656 14.392 7.824 13.992 7.104C13.592 6.368 13.048 5.8 12.36 5.4C11.672 5 10.904 4.8 10.056 4.8C9.208 4.8 8.44 5 7.752 5.4C7.064 5.8 6.52 6.368 6.12 7.104C5.72 7.824 5.52 8.656 5.52 9.6C5.52 10.544 5.72 11.384 6.12 12.12C6.52 12.84 7.064 13.4 7.752 13.8C8.44 14.2 9.208 14.4 10.056 14.4ZM36.6075 14.352V20.688H32.3835V18H24.1995V20.688H19.9515V14.352H20.4315C21.2155 14.336 21.7595 13.912 22.0635 13.08C22.3675 12.232 22.5515 11.048 22.6155 9.528L22.7835 4.992H34.8075V14.352H36.6075ZM26.7195 9.864C26.6715 11.032 26.5835 11.968 26.4555 12.672C26.3275 13.376 26.0875 13.936 25.7355 14.352H30.2475V8.616H26.7675L26.7195 9.864ZM38.5673 4.992H43.1033V9.816H47.7833V4.992H52.3433V18H47.7833V13.44H43.1033V18H38.5673V4.992ZM61.8268 18.216C60.4348 18.216 59.1788 17.928 58.0588 17.352C56.9388 16.776 56.0588 15.976 55.4188 14.952C54.7948 13.928 54.4828 12.768 54.4828 11.472C54.4828 10.192 54.7948 9.04 55.4188 8.016C56.0588 6.992 56.9308 6.2 58.0348 5.64C59.1548 5.064 60.4188 4.776 61.8268 4.776C63.2348 4.776 64.4988 5.064 65.6188 5.64C66.7388 6.2 67.6108 6.992 68.2348 8.016C68.8588 9.024 69.1708 10.176 69.1708 11.472C69.1708 12.768 68.8588 13.928 68.2348 14.952C67.6108 15.976 66.7388 16.776 65.6188 17.352C64.4988 17.928 63.2348 18.216 61.8268 18.216ZM61.8268 14.592C62.6268 14.592 63.2828 14.32 63.7948 13.776C64.3068 13.216 64.5628 12.448 64.5628 11.472C64.5628 10.512 64.3068 9.76 63.7948 9.216C63.2828 8.672 62.6268 8.4 61.8268 8.4C61.0268 8.4 60.3708 8.672 59.8588 9.216C59.3468 9.76 59.0908 10.512 59.0908 11.472C59.0908 12.448 59.3468 13.216 59.8588 13.776C60.3708 14.32 61.0268 14.592 61.8268 14.592ZM77.4054 13.368H75.8694V18H71.3094V4.992H75.8694V9.792H77.5014L80.6934 4.992H85.5174L81.1494 11.232L85.8054 18H80.4294L77.4054 13.368ZM93.3503 18.216C91.9583 18.216 90.7023 17.928 89.5823 17.352C88.4623 16.776 87.5823 15.976 86.9423 14.952C86.3183 13.928 86.0063 12.768 86.0063 11.472C86.0063 10.192 86.3183 9.04 86.9423 8.016C87.5823 6.992 88.4543 6.2 89.5583 5.64C90.6783 5.064 91.9423 4.776 93.3503 4.776C94.7583 4.776 96.0223 5.064 97.1423 5.64C98.2623 6.2 99.1343 6.992 99.7583 8.016C100.382 9.024 100.694 10.176 100.694 11.472C100.694 12.768 100.382 13.928 99.7583 14.952C99.1343 15.976 98.2623 16.776 97.1423 17.352C96.0223 17.928 94.7583 18.216 93.3503 18.216ZM93.3503 14.592C94.1503 14.592 94.8063 14.32 95.3183 13.776C95.8303 13.216 96.0863 12.448 96.0863 11.472C96.0863 10.512 95.8303 9.76 95.3183 9.216C94.8063 8.672 94.1503 8.4 93.3503 8.4C92.5503 8.4 91.8943 8.672 91.3823 9.216C90.8703 9.76 90.6143 10.512 90.6143 11.472C90.6143 12.448 90.8703 13.216 91.3823 13.776C91.8943 14.32 92.5503 14.592 93.3503 14.592ZM115.457 18V11.16L112.121 16.848H110.177L106.937 11.064V18H102.833V4.992H107.633L111.257 11.784L115.241 4.992H119.537L119.561 18H115.457ZM122.638 4.992H127.174V9.816H131.854V4.992H136.414V18H131.854V13.44H127.174V18H122.638V4.992ZM144.793 4.776C146.953 4.776 148.601 5.272 149.737 6.264C150.873 7.24 151.441 8.744 151.441 10.776V18H147.193V16.32C146.537 17.584 145.257 18.216 143.353 18.216C142.345 18.216 141.473 18.04 140.737 17.688C140.001 17.336 139.441 16.864 139.057 16.272C138.689 15.664 138.505 14.976 138.505 14.208C138.505 12.976 138.977 12.024 139.921 11.352C140.865 10.664 142.321 10.32 144.289 10.32H146.881C146.801 8.944 145.881 8.256 144.121 8.256C143.497 8.256 142.865 8.36 142.225 8.568C141.585 8.76 141.041 9.032 140.593 9.384L139.057 6.288C139.777 5.808 140.649 5.44 141.673 5.184C142.713 4.912 143.753 4.776 144.793 4.776ZM144.625 15.336C145.153 15.336 145.617 15.208 146.017 14.952C146.417 14.696 146.705 14.32 146.881 13.824V12.696H144.913C143.585 12.696 142.921 13.136 142.921 14.016C142.921 14.416 143.073 14.736 143.377 14.976C143.681 15.216 144.097 15.336 144.625 15.336ZM165.8 8.616H161.624V18H157.088V8.616H152.888V4.992H165.8V8.616ZM167.567 4.992H172.103V9.816H176.783V4.992H181.343V18H176.783V13.44H172.103V18H167.567V4.992ZM189.723 4.776C191.883 4.776 193.531 5.272 194.667 6.264C195.803 7.24 196.371 8.744 196.371 10.776V18H192.123V16.32C191.467 17.584 190.187 18.216 188.283 18.216C187.275 18.216 186.403 18.04 185.667 17.688C184.931 17.336 184.371 16.864 183.987 16.272C183.619 15.664 183.435 14.976 183.435 14.208C183.435 12.976 183.907 12.024 184.851 11.352C185.795 10.664 187.251 10.32 189.219 10.32H191.811C191.731 8.944 190.811 8.256 189.051 8.256C188.427 8.256 187.795 8.36 187.155 8.568C186.515 8.76 185.971 9.032 185.523 9.384L183.987 6.288C184.707 5.808 185.579 5.44 186.603 5.184C187.643 4.912 188.683 4.776 189.723 4.776ZM189.555 15.336C190.083 15.336 190.547 15.208 190.947 14.952C191.347 14.696 191.635 14.32 191.811 13.824V12.696H189.843C188.515 12.696 187.851 13.136 187.851 14.016C187.851 14.416 188.003 14.736 188.307 14.976C188.611 15.216 189.027 15.336 189.555 15.336ZM211.354 4.992V18H207.298V14.472H205.234L202.93 18H198.106L200.986 13.848C200.122 13.464 199.458 12.944 198.994 12.288C198.546 11.616 198.322 10.816 198.322 9.888C198.322 8.336 198.898 7.136 200.05 6.288C201.202 5.424 202.786 4.992 204.802 4.992H211.354ZM204.898 8.592C203.618 8.592 202.978 9.08 202.978 10.056C202.978 10.568 203.13 10.944 203.434 11.184C203.754 11.424 204.234 11.544 204.874 11.544H207.298V8.592H204.898ZM227.499 13.368H225.963V18H221.403V4.992H225.963V9.792H227.595L230.787 4.992H235.611L231.243 11.232L235.899 18H230.523L227.499 13.368ZM247.899 11.184C249.387 11.68 250.131 12.704 250.131 14.256C250.131 15.424 249.675 16.344 248.763 17.016C247.851 17.672 246.507 18 244.731 18H237.411V4.992H244.395C246.091 4.992 247.403 5.288 248.331 5.88C249.275 6.472 249.747 7.304 249.747 8.376C249.747 9 249.587 9.552 249.267 10.032C248.947 10.512 248.491 10.896 247.899 11.184ZM241.491 10.224H243.987C245.043 10.224 245.571 9.832 245.571 9.048C245.571 8.296 245.043 7.92 243.987 7.92H241.491V10.224ZM244.323 15.048C245.427 15.048 245.979 14.648 245.979 13.848C245.979 13.048 245.443 12.648 244.371 12.648H241.491V15.048H244.323ZM257.738 4.776C259.898 4.776 261.546 5.272 262.682 6.264C263.818 7.24 264.386 8.744 264.386 10.776V18H260.138V16.32C259.482 17.584 258.202 18.216 256.298 18.216C255.29 18.216 254.418 18.04 253.682 17.688C252.946 17.336 252.386 16.864 252.002 16.272C251.634 15.664 251.45 14.976 251.45 14.208C251.45 12.976 251.922 12.024 252.866 11.352C253.81 10.664 255.266 10.32 257.234 10.32H259.826C259.746 8.944 258.826 8.256 257.066 8.256C256.442 8.256 255.81 8.36 255.17 8.568C254.53 8.76 253.986 9.032 253.538 9.384L252.002 6.288C252.722 5.808 253.594 5.44 254.618 5.184C255.658 4.912 256.698 4.776 257.738 4.776ZM257.57 15.336C258.098 15.336 258.562 15.208 258.962 14.952C259.362 14.696 259.65 14.32 259.826 13.824V12.696H257.858C256.53 12.696 255.866 13.136 255.866 14.016C255.866 14.416 256.018 14.736 256.322 14.976C256.626 15.216 257.042 15.336 257.57 15.336ZM275.314 4.776C276.498 4.776 277.57 5.056 278.53 5.616C279.506 6.16 280.274 6.944 280.834 7.968C281.41 8.976 281.698 10.152 281.698 11.496C281.698 12.84 281.41 14.024 280.834 15.048C280.274 16.056 279.506 16.84 278.53 17.4C277.57 17.944 276.498 18.216 275.314 18.216C273.794 18.216 272.586 17.76 271.69 16.848V22.656H267.13V4.992H271.474V6.288C272.322 5.28 273.602 4.776 275.314 4.776ZM274.354 14.592C275.154 14.592 275.81 14.32 276.322 13.776C276.834 13.216 277.09 12.456 277.09 11.496C277.09 10.536 276.834 9.784 276.322 9.24C275.81 8.68 275.154 8.4 274.354 8.4C273.554 8.4 272.898 8.68 272.386 9.24C271.874 9.784 271.618 10.536 271.618 11.496C271.618 12.456 271.874 13.216 272.386 13.776C272.898 14.32 273.554 14.592 274.354 14.592ZM295.035 8.616H290.859V18H286.323V8.616H282.123V4.992H295.035V8.616ZM296.802 4.992H301.338V11.808L306.786 4.992H310.986V18H306.426V11.16L301.026 18H296.802V4.992ZM322.236 4.776C323.42 4.776 324.492 5.056 325.452 5.616C326.428 6.16 327.196 6.944 327.756 7.968C328.332 8.976 328.62 10.152 328.62 11.496C328.62 12.84 328.332 14.024 327.756 15.048C327.196 16.056 326.428 16.84 325.452 17.4C324.492 17.944 323.42 18.216 322.236 18.216C320.716 18.216 319.508 17.76 318.612 16.848V22.656H314.052V4.992H318.396V6.288C319.244 5.28 320.524 4.776 322.236 4.776ZM321.276 14.592C322.076 14.592 322.732 14.32 323.244 13.776C323.756 13.216 324.012 12.456 324.012 11.496C324.012 10.536 323.756 9.784 323.244 9.24C322.732 8.68 322.076 8.4 321.276 8.4C320.476 8.4 319.82 8.68 319.308 9.24C318.796 9.784 318.54 10.536 318.54 11.496C318.54 12.456 318.796 13.216 319.308 13.776C319.82 14.32 320.476 14.592 321.276 14.592ZM335.832 4.776C337.992 4.776 339.64 5.272 340.776 6.264C341.912 7.24 342.48 8.744 342.48 10.776V18H338.232V16.32C337.576 17.584 336.296 18.216 334.392 18.216C333.384 18.216 332.512 18.04 331.776 17.688C331.04 17.336 330.48 16.864 330.096 16.272C329.728 15.664 329.544 14.976 329.544 14.208C329.544 12.976 330.016 12.024 330.96 11.352C331.904 10.664 333.36 10.32 335.328 10.32H337.92C337.84 8.944 336.92 8.256 335.16 8.256C334.536 8.256 333.904 8.36 333.264 8.568C332.624 8.76 332.08 9.032 331.632 9.384L330.096 6.288C330.816 5.808 331.688 5.44 332.712 5.184C333.752 4.912 334.792 4.776 335.832 4.776ZM335.664 15.336C336.192 15.336 336.656 15.208 337.056 14.952C337.456 14.696 337.744 14.32 337.92 13.824V12.696H335.952C334.624 12.696 333.96 13.136 333.96 14.016C333.96 14.416 334.112 14.736 334.416 14.976C334.72 15.216 335.136 15.336 335.664 15.336Z" fill="white"/>
</svg>
