<svg width="227" height="11" viewBox="0 0 227 11" fill="none" xmlns="http://www.w3.org/2000/svg">
<path d="M9.00152 0.199999V10H7.97952V1.096H1.77752V10H0.755516V0.199999H9.00152ZM15.1083 10.07C14.3989 10.07 13.7596 9.91133 13.1903 9.594C12.6209 9.26733 12.1729 8.81933 11.8463 8.25C11.5196 7.68067 11.3563 7.03667 11.3563 6.318C11.3563 5.59933 11.5196 4.95533 11.8463 4.386C12.1729 3.81667 12.6209 3.37333 13.1903 3.056C13.7596 2.73867 14.3989 2.58 15.1083 2.58C15.8176 2.58 16.4569 2.73867 17.0263 3.056C17.5956 3.37333 18.0389 3.81667 18.3563 4.386C18.6829 4.95533 18.8463 5.59933 18.8463 6.318C18.8463 7.03667 18.6829 7.68067 18.3563 8.25C18.0389 8.81933 17.5956 9.26733 17.0263 9.594C16.4569 9.91133 15.8176 10.07 15.1083 10.07ZM15.1083 9.188C15.6309 9.188 16.0976 9.07133 16.5083 8.838C16.9283 8.59533 17.2549 8.25467 17.4883 7.816C17.7216 7.37733 17.8383 6.878 17.8383 6.318C17.8383 5.758 17.7216 5.25867 17.4883 4.82C17.2549 4.38133 16.9283 4.04533 16.5083 3.812C16.0976 3.56933 15.6309 3.448 15.1083 3.448C14.5856 3.448 14.1143 3.56933 13.6943 3.812C13.2836 4.04533 12.9569 4.38133 12.7142 4.82C12.4809 5.25867 12.3643 5.758 12.3643 6.318C12.3643 6.878 12.4809 7.37733 12.7142 7.816C12.9569 8.25467 13.2836 8.59533 13.6943 8.838C14.1143 9.07133 14.5856 9.188 15.1083 9.188ZM26.9496 2.636V10H25.9556V3.518H22.4276L22.3296 5.338C22.255 6.86867 22.0776 8.04467 21.7976 8.866C21.5176 9.68733 21.0183 10.098 20.2996 10.098C20.1036 10.098 19.8656 10.0607 19.5856 9.986L19.6556 9.132C19.8236 9.16933 19.9403 9.188 20.0056 9.188C20.3883 9.188 20.6776 9.01067 20.8736 8.656C21.0696 8.30133 21.2003 7.86267 21.2656 7.34C21.331 6.81733 21.387 6.12667 21.4336 5.268L21.5596 2.636H26.9496ZM32.9393 5.24C33.8633 5.24933 34.5633 5.45467 35.0393 5.856C35.5247 6.25733 35.7673 6.836 35.7673 7.592C35.7673 8.376 35.506 8.978 34.9833 9.398C34.47 9.818 33.7233 10.0233 32.7433 10.014L29.7753 10V2.636H30.7693V5.212L32.9393 5.24ZM32.6873 9.258C33.3687 9.26733 33.882 9.132 34.2273 8.852C34.582 8.56267 34.7593 8.14267 34.7593 7.592C34.7593 7.05067 34.5867 6.64933 34.2413 6.388C33.896 6.12667 33.378 5.99133 32.6873 5.982L30.7693 5.954V9.23L32.6873 9.258ZM41.1796 6.164C41.7023 6.28533 42.1036 6.49533 42.3836 6.794C42.673 7.09267 42.8176 7.45667 42.8176 7.886C42.8176 8.31533 42.6683 8.698 42.3696 9.034C42.0803 9.37 41.6836 9.63133 41.1796 9.818C40.6756 9.99533 40.1203 10.084 39.5136 10.084C38.9816 10.084 38.459 10.0093 37.9456 9.86C37.4323 9.70133 36.9843 9.47267 36.6016 9.174L36.9376 8.432C37.2736 8.684 37.6656 8.88 38.1136 9.02C38.5616 9.16 39.0143 9.23 39.4716 9.23C40.153 9.23 40.7083 9.104 41.1376 8.852C41.5763 8.59067 41.7956 8.24067 41.7956 7.802C41.7956 7.41 41.6183 7.10667 41.2636 6.892C40.909 6.668 40.4236 6.556 39.8076 6.556H38.5476V5.828H39.7516C40.3023 5.828 40.7456 5.72533 41.0816 5.52C41.4176 5.30533 41.5856 5.02067 41.5856 4.666C41.5856 4.274 41.3943 3.966 41.0116 3.742C40.6383 3.518 40.1483 3.406 39.5416 3.406C38.7483 3.406 37.9643 3.60667 37.1896 4.008L36.9096 3.238C37.787 2.78067 38.697 2.552 39.6396 2.552C40.1996 2.552 40.7036 2.636 41.1516 2.804C41.609 2.96267 41.9636 3.19133 42.2156 3.49C42.477 3.78867 42.6076 4.134 42.6076 4.526C42.6076 4.89933 42.477 5.23067 42.2156 5.52C41.9636 5.80933 41.6183 6.024 41.1796 6.164ZM48.1122 10.07C47.4028 10.07 46.7635 9.91133 46.1942 9.594C45.6248 9.26733 45.1768 8.81933 44.8502 8.25C44.5235 7.68067 44.3602 7.03667 44.3602 6.318C44.3602 5.59933 44.5235 4.95533 44.8502 4.386C45.1768 3.81667 45.6248 3.37333 46.1942 3.056C46.7635 2.73867 47.4028 2.58 48.1122 2.58C48.8215 2.58 49.4608 2.73867 50.0302 3.056C50.5995 3.37333 51.0428 3.81667 51.3602 4.386C51.6868 4.95533 51.8502 5.59933 51.8502 6.318C51.8502 7.03667 51.6868 7.68067 51.3602 8.25C51.0428 8.81933 50.5995 9.26733 50.0302 9.594C49.4608 9.91133 48.8215 10.07 48.1122 10.07ZM48.1122 9.188C48.6348 9.188 49.1015 9.07133 49.5122 8.838C49.9322 8.59533 50.2588 8.25467 50.4922 7.816C50.7255 7.37733 50.8422 6.878 50.8422 6.318C50.8422 5.758 50.7255 5.25867 50.4922 4.82C50.2588 4.38133 49.9322 4.04533 49.5122 3.812C49.1015 3.56933 48.6348 3.448 48.1122 3.448C47.5895 3.448 47.1182 3.56933 46.6982 3.812C46.2875 4.04533 45.9608 4.38133 45.7182 4.82C45.4848 5.25867 45.3682 5.758 45.3682 6.318C45.3682 6.878 45.4848 7.37733 45.7182 7.816C45.9608 8.25467 46.2875 8.59533 46.6982 8.838C47.1182 9.07133 47.5895 9.188 48.1122 9.188ZM58.6645 6.192C59.6632 6.42533 60.1625 7.02733 60.1625 7.998C60.1625 8.642 59.9245 9.13667 59.4485 9.482C58.9725 9.82733 58.2632 10 57.3205 10H53.9745V2.636H57.2225C58.0625 2.636 58.7205 2.79933 59.1965 3.126C59.6725 3.45267 59.9105 3.91933 59.9105 4.526C59.9105 4.92733 59.7985 5.27267 59.5745 5.562C59.3599 5.842 59.0565 6.052 58.6645 6.192ZM54.9405 5.912H57.1525C57.7219 5.912 58.1559 5.80467 58.4545 5.59C58.7625 5.37533 58.9165 5.06267 58.9165 4.652C58.9165 4.24133 58.7625 3.93333 58.4545 3.728C58.1559 3.52267 57.7219 3.42 57.1525 3.42H54.9405V5.912ZM57.2785 9.216C57.9132 9.216 58.3892 9.11333 58.7065 8.908C59.0239 8.70267 59.1825 8.38067 59.1825 7.942C59.1825 7.50333 59.0379 7.18133 58.7485 6.976C58.4592 6.76133 58.0019 6.654 57.3765 6.654H54.9405V9.216H57.2785ZM65.0261 2.58C65.9875 2.58 66.7248 2.82267 67.2381 3.308C67.7515 3.784 68.0081 4.49333 68.0081 5.436V10H67.0561V8.852C66.8321 9.23467 66.5008 9.53333 66.0621 9.748C65.6328 9.96267 65.1195 10.07 64.5221 10.07C63.7008 10.07 63.0475 9.874 62.5621 9.482C62.0768 9.09 61.8341 8.572 61.8341 7.928C61.8341 7.30267 62.0581 6.79867 62.5061 6.416C62.9635 6.03333 63.6868 5.842 64.6761 5.842H67.0141V5.394C67.0141 4.75933 66.8368 4.27867 66.4821 3.952C66.1275 3.616 65.6095 3.448 64.9281 3.448C64.4615 3.448 64.0135 3.52733 63.5841 3.686C63.1548 3.83533 62.7861 4.04533 62.4781 4.316L62.0301 3.574C62.4035 3.25667 62.8515 3.014 63.3741 2.846C63.8968 2.66867 64.4475 2.58 65.0261 2.58ZM64.6761 9.286C65.2361 9.286 65.7168 9.16 66.1181 8.908C66.5195 8.64667 66.8181 8.27333 67.0141 7.788V6.584H64.7041C63.4441 6.584 62.8141 7.02267 62.8141 7.9C62.8141 8.32933 62.9775 8.67 63.3041 8.922C63.6308 9.16467 64.0881 9.286 64.6761 9.286ZM75.8342 3.518H73.0482V10H72.0542V3.518H69.2682V2.636H75.8342V3.518ZM83.3696 6.626H77.2096C77.2656 7.39133 77.5596 8.012 78.0916 8.488C78.6236 8.95467 79.2956 9.188 80.1076 9.188C80.565 9.188 80.985 9.10867 81.3676 8.95C81.7503 8.782 82.0816 8.53933 82.3616 8.222L82.9216 8.866C82.595 9.258 82.1843 9.55667 81.6896 9.762C81.2043 9.96733 80.6676 10.07 80.0796 10.07C79.3236 10.07 78.6516 9.91133 78.0636 9.594C77.485 9.26733 77.0323 8.81933 76.7056 8.25C76.379 7.68067 76.2156 7.03667 76.2156 6.318C76.2156 5.59933 76.3696 4.95533 76.6776 4.386C76.995 3.81667 77.4243 3.37333 77.9656 3.056C78.5163 2.73867 79.1323 2.58 79.8136 2.58C80.495 2.58 81.1063 2.73867 81.6476 3.056C82.189 3.37333 82.6136 3.81667 82.9216 4.386C83.2296 4.946 83.3836 5.59 83.3836 6.318L83.3696 6.626ZM79.8136 3.434C79.1043 3.434 78.507 3.66267 78.0216 4.12C77.5456 4.568 77.275 5.156 77.2096 5.884H82.4316C82.3663 5.156 82.091 4.568 81.6056 4.12C81.1296 3.66267 80.5323 3.434 79.8136 3.434ZM91.4535 2.636V10H90.4595V3.518H86.9315L86.8335 5.338C86.7589 6.86867 86.5815 8.04467 86.3015 8.866C86.0215 9.68733 85.5222 10.098 84.8035 10.098C84.6075 10.098 84.3695 10.0607 84.0895 9.986L84.1595 9.132C84.3275 9.16933 84.4442 9.188 84.5095 9.188C84.8922 9.188 85.1815 9.01067 85.3775 8.656C85.5735 8.30133 85.7042 7.86267 85.7695 7.34C85.8349 6.81733 85.8909 6.12667 85.9375 5.268L86.0635 2.636H91.4535ZM97.4432 5.24C98.3672 5.24933 99.0672 5.45467 99.5432 5.856C100.029 6.25733 100.271 6.836 100.271 7.592C100.271 8.376 100.01 8.978 99.4872 9.398C98.9739 9.818 98.2272 10.0233 97.2472 10.014L94.2792 10V2.636H95.2732V5.212L97.4432 5.24ZM97.1912 9.258C97.8726 9.26733 98.3859 9.132 98.7312 8.852C99.0859 8.56267 99.2632 8.14267 99.2632 7.592C99.2632 7.05067 99.0906 6.64933 98.7452 6.388C98.3999 6.12667 97.8819 5.99133 97.1912 5.982L95.2732 5.954V9.23L97.1912 9.258ZM105.248 10.07C104.52 10.07 103.867 9.91133 103.288 9.594C102.719 9.27667 102.271 8.83333 101.944 8.264C101.617 7.68533 101.454 7.03667 101.454 6.318C101.454 5.59933 101.617 4.95533 101.944 4.386C102.271 3.81667 102.719 3.37333 103.288 3.056C103.867 2.73867 104.52 2.58 105.248 2.58C105.883 2.58 106.447 2.706 106.942 2.958C107.446 3.20067 107.843 3.56 108.132 4.036L107.39 4.54C107.147 4.176 106.839 3.90533 106.466 3.728C106.093 3.54133 105.687 3.448 105.248 3.448C104.716 3.448 104.235 3.56933 103.806 3.812C103.386 4.04533 103.055 4.38133 102.812 4.82C102.579 5.25867 102.462 5.758 102.462 6.318C102.462 6.88733 102.579 7.39133 102.812 7.83C103.055 8.25933 103.386 8.59533 103.806 8.838C104.235 9.07133 104.716 9.188 105.248 9.188C105.687 9.188 106.093 9.09933 106.466 8.922C106.839 8.74467 107.147 8.474 107.39 8.11L108.132 8.614C107.843 9.09 107.446 9.454 106.942 9.706C106.438 9.94867 105.873 10.07 105.248 10.07ZM112.731 6.724H111.051V10H110.057V2.636H111.051V5.87H112.745L115.335 2.636H116.413L113.515 6.206L116.623 10H115.447L112.731 6.724ZM120.97 10.07C120.26 10.07 119.621 9.91133 119.052 9.594C118.482 9.26733 118.034 8.81933 117.708 8.25C117.381 7.68067 117.218 7.03667 117.218 6.318C117.218 5.59933 117.381 4.95533 117.708 4.386C118.034 3.81667 118.482 3.37333 119.052 3.056C119.621 2.73867 120.26 2.58 120.97 2.58C121.679 2.58 122.318 2.73867 122.888 3.056C123.457 3.37333 123.9 3.81667 124.218 4.386C124.544 4.95533 124.708 5.59933 124.708 6.318C124.708 7.03667 124.544 7.68067 124.218 8.25C123.9 8.81933 123.457 9.26733 122.888 9.594C122.318 9.91133 121.679 10.07 120.97 10.07ZM120.97 9.188C121.492 9.188 121.959 9.07133 122.37 8.838C122.79 8.59533 123.116 8.25467 123.35 7.816C123.583 7.37733 123.7 6.878 123.7 6.318C123.7 5.758 123.583 5.25867 123.35 4.82C123.116 4.38133 122.79 4.04533 122.37 3.812C121.959 3.56933 121.492 3.448 120.97 3.448C120.447 3.448 119.976 3.56933 119.556 3.812C119.145 4.04533 118.818 4.38133 118.576 4.82C118.342 5.25867 118.226 5.758 118.226 6.318C118.226 6.878 118.342 7.37733 118.576 7.816C118.818 8.25467 119.145 8.59533 119.556 8.838C119.976 9.07133 120.447 9.188 120.97 9.188ZM133.272 6.626H127.112C127.168 7.39133 127.462 8.012 127.994 8.488C128.526 8.95467 129.198 9.188 130.01 9.188C130.467 9.188 130.887 9.10867 131.27 8.95C131.653 8.782 131.984 8.53933 132.264 8.222L132.824 8.866C132.497 9.258 132.087 9.55667 131.592 9.762C131.107 9.96733 130.57 10.07 129.982 10.07C129.226 10.07 128.554 9.91133 127.966 9.594C127.387 9.26733 126.935 8.81933 126.608 8.25C126.281 7.68067 126.118 7.03667 126.118 6.318C126.118 5.59933 126.272 4.95533 126.58 4.386C126.897 3.81667 127.327 3.37333 127.868 3.056C128.419 2.73867 129.035 2.58 129.716 2.58C130.397 2.58 131.009 2.73867 131.55 3.056C132.091 3.37333 132.516 3.81667 132.824 4.386C133.132 4.946 133.286 5.59 133.286 6.318L133.272 6.626ZM129.716 3.434C129.007 3.434 128.409 3.66267 127.924 4.12C127.448 4.568 127.177 5.156 127.112 5.884H132.334C132.269 5.156 131.993 4.568 131.508 4.12C131.032 3.66267 130.435 3.434 129.716 3.434ZM142.23 10.07C141.502 10.07 140.849 9.91133 140.27 9.594C139.701 9.27667 139.253 8.83333 138.926 8.264C138.6 7.68533 138.436 7.03667 138.436 6.318C138.436 5.59933 138.6 4.95533 138.926 4.386C139.253 3.81667 139.701 3.37333 140.27 3.056C140.849 2.73867 141.502 2.58 142.23 2.58C142.865 2.58 143.43 2.706 143.924 2.958C144.428 3.20067 144.825 3.56 145.114 4.036L144.372 4.54C144.13 4.176 143.822 3.90533 143.448 3.728C143.075 3.54133 142.669 3.448 142.23 3.448C141.698 3.448 141.218 3.56933 140.788 3.812C140.368 4.04533 140.037 4.38133 139.794 4.82C139.561 5.25867 139.444 5.758 139.444 6.318C139.444 6.88733 139.561 7.39133 139.794 7.83C140.037 8.25933 140.368 8.59533 140.788 8.838C141.218 9.07133 141.698 9.188 142.23 9.188C142.669 9.188 143.075 9.09933 143.448 8.922C143.822 8.74467 144.13 8.474 144.372 8.11L145.114 8.614C144.825 9.09 144.428 9.454 143.924 9.706C143.42 9.94867 142.856 10.07 142.23 10.07ZM149.954 10.07C149.245 10.07 148.605 9.91133 148.036 9.594C147.467 9.26733 147.019 8.81933 146.692 8.25C146.365 7.68067 146.202 7.03667 146.202 6.318C146.202 5.59933 146.365 4.95533 146.692 4.386C147.019 3.81667 147.467 3.37333 148.036 3.056C148.605 2.73867 149.245 2.58 149.954 2.58C150.663 2.58 151.303 2.73867 151.872 3.056C152.441 3.37333 152.885 3.81667 153.202 4.386C153.529 4.95533 153.692 5.59933 153.692 6.318C153.692 7.03667 153.529 7.68067 153.202 8.25C152.885 8.81933 152.441 9.26733 151.872 9.594C151.303 9.91133 150.663 10.07 149.954 10.07ZM149.954 9.188C150.477 9.188 150.943 9.07133 151.354 8.838C151.774 8.59533 152.101 8.25467 152.334 7.816C152.567 7.37733 152.684 6.878 152.684 6.318C152.684 5.758 152.567 5.25867 152.334 4.82C152.101 4.38133 151.774 4.04533 151.354 3.812C150.943 3.56933 150.477 3.448 149.954 3.448C149.431 3.448 148.96 3.56933 148.54 3.812C148.129 4.04533 147.803 4.38133 147.56 4.82C147.327 5.25867 147.21 5.758 147.21 6.318C147.21 6.878 147.327 7.37733 147.56 7.816C147.803 8.25467 148.129 8.59533 148.54 8.838C148.96 9.07133 149.431 9.188 149.954 9.188ZM161.024 3.518H156.81V10H155.816V2.636H161.024V3.518ZM168.03 2.636V10H167.036V3.518H163.508L163.41 5.338C163.335 6.86867 163.158 8.04467 162.878 8.866C162.598 9.68733 162.098 10.098 161.38 10.098C161.184 10.098 160.946 10.0607 160.666 9.986L160.736 9.132C160.904 9.16933 161.02 9.188 161.086 9.188C161.468 9.188 161.758 9.01067 161.954 8.656C162.15 8.30133 162.28 7.86267 162.346 7.34C162.411 6.81733 162.467 6.12667 162.514 5.268L162.64 2.636H168.03ZM173.389 2.58C174.351 2.58 175.088 2.82267 175.601 3.308C176.115 3.784 176.371 4.49333 176.371 5.436V10H175.419V8.852C175.195 9.23467 174.864 9.53333 174.425 9.748C173.996 9.96267 173.483 10.07 172.885 10.07C172.064 10.07 171.411 9.874 170.925 9.482C170.44 9.09 170.197 8.572 170.197 7.928C170.197 7.30267 170.421 6.79867 170.869 6.416C171.327 6.03333 172.05 5.842 173.039 5.842H175.377V5.394C175.377 4.75933 175.2 4.27867 174.845 3.952C174.491 3.616 173.973 3.448 173.291 3.448C172.825 3.448 172.377 3.52733 171.947 3.686C171.518 3.83533 171.149 4.04533 170.841 4.316L170.393 3.574C170.767 3.25667 171.215 3.014 171.737 2.846C172.26 2.66867 172.811 2.58 173.389 2.58ZM173.039 9.286C173.599 9.286 174.08 9.16 174.481 8.908C174.883 8.64667 175.181 8.27333 175.377 7.788V6.584H173.067C171.807 6.584 171.177 7.02267 171.177 7.9C171.177 8.32933 171.341 8.67 171.667 8.922C171.994 9.16467 172.451 9.286 173.039 9.286ZM189.182 2.636V10H179.018V2.636H180.012V9.132H183.624V2.636H184.618V9.132H188.188V2.636H189.182ZM198.459 6.626H192.299C192.355 7.39133 192.649 8.012 193.181 8.488C193.713 8.95467 194.385 9.188 195.197 9.188C195.655 9.188 196.075 9.10867 196.457 8.95C196.84 8.782 197.171 8.53933 197.451 8.222L198.011 8.866C197.685 9.258 197.274 9.55667 196.779 9.762C196.294 9.96733 195.757 10.07 195.169 10.07C194.413 10.07 193.741 9.91133 193.153 9.594C192.575 9.26733 192.122 8.81933 191.795 8.25C191.469 7.68067 191.305 7.03667 191.305 6.318C191.305 5.59933 191.459 4.95533 191.767 4.386C192.085 3.81667 192.514 3.37333 193.055 3.056C193.606 2.73867 194.222 2.58 194.903 2.58C195.585 2.58 196.196 2.73867 196.737 3.056C197.279 3.37333 197.703 3.81667 198.011 4.386C198.319 4.946 198.473 5.59 198.473 6.318L198.459 6.626ZM194.903 3.434C194.194 3.434 193.597 3.66267 193.111 4.12C192.635 4.568 192.365 5.156 192.299 5.884H197.521C197.456 5.156 197.181 4.568 196.695 4.12C196.219 3.66267 195.622 3.434 194.903 3.434ZM200.674 2.636H201.668V5.898H206.302V2.636H207.296V10H206.302V6.752H201.668V10H200.674V2.636ZM210.121 2.636H211.115V8.488L216.029 2.636H216.911V10H215.917V4.148L211.017 10H210.121V2.636ZM226.2 6.626H220.04C220.096 7.39133 220.39 8.012 220.922 8.488C221.454 8.95467 222.126 9.188 222.938 9.188C223.395 9.188 223.815 9.10867 224.198 8.95C224.58 8.782 224.912 8.53933 225.192 8.222L225.752 8.866C225.425 9.258 225.014 9.55667 224.52 9.762C224.034 9.96733 223.498 10.07 222.91 10.07C222.154 10.07 221.482 9.91133 220.894 9.594C220.315 9.26733 219.862 8.81933 219.536 8.25C219.209 7.68067 219.046 7.03667 219.046 6.318C219.046 5.59933 219.2 4.95533 219.508 4.386C219.825 3.81667 220.254 3.37333 220.796 3.056C221.346 2.73867 221.962 2.58 222.644 2.58C223.325 2.58 223.936 2.73867 224.478 3.056C225.019 3.37333 225.444 3.81667 225.752 4.386C226.06 4.946 226.214 5.59 226.214 6.318L226.2 6.626ZM222.644 3.434C221.934 3.434 221.337 3.66267 220.852 4.12C220.376 4.568 220.105 5.156 220.04 5.884H225.262C225.196 5.156 224.921 4.568 224.436 4.12C223.96 3.66267 223.362 3.434 222.644 3.434Z" fill="white"/>
</svg>
