<svg width="338" height="22" viewBox="0 0 338 22" fill="none" xmlns="http://www.w3.org/2000/svg">
<path d="M16.568 0.199999V17H11.864V3.968H5.48V17H0.8V0.199999H16.568ZM32.1354 3.992V17H28.0794V13.472H26.0154L23.7114 17H18.8874L21.7674 12.848C20.9034 12.464 20.2394 11.944 19.7754 11.288C19.3274 10.616 19.1034 9.816 19.1034 8.888C19.1034 7.336 19.6794 6.136 20.8314 5.288C21.9834 4.424 23.5674 3.992 25.5834 3.992H32.1354ZM25.6794 7.592C24.3994 7.592 23.7594 8.08 23.7594 9.056C23.7594 9.568 23.9114 9.944 24.2154 10.184C24.5354 10.424 25.0154 10.544 25.6554 10.544H28.0794V7.592H25.6794ZM46.8161 7.616H42.6401V17H38.1041V7.616H33.9041V3.992H46.8161V7.616ZM48.5829 3.992H53.1189V10.808L58.5669 3.992H62.7669V17H58.2069V10.16L52.8069 17H48.5829V3.992ZM71.9289 12.368H70.3929V17H65.8329V3.992H70.3929V8.792H72.0249L75.2169 3.992H80.0409L75.6729 10.232L80.3289 17H74.9529L71.9289 12.368ZM87.8737 17.216C86.4817 17.216 85.2257 16.928 84.1057 16.352C82.9857 15.776 82.1057 14.976 81.4657 13.952C80.8417 12.928 80.5297 11.768 80.5297 10.472C80.5297 9.192 80.8417 8.04 81.4657 7.016C82.1057 5.992 82.9777 5.2 84.0817 4.64C85.2017 4.064 86.4657 3.776 87.8737 3.776C89.2817 3.776 90.5457 4.064 91.6657 4.64C92.7857 5.2 93.6577 5.992 94.2817 7.016C94.9057 8.024 95.2177 9.176 95.2177 10.472C95.2177 11.768 94.9057 12.928 94.2817 13.952C93.6577 14.976 92.7857 15.776 91.6657 16.352C90.5457 16.928 89.2817 17.216 87.8737 17.216ZM87.8737 13.592C88.6737 13.592 89.3297 13.32 89.8417 12.776C90.3537 12.216 90.6097 11.448 90.6097 10.472C90.6097 9.512 90.3537 8.76 89.8417 8.216C89.3297 7.672 88.6737 7.4 87.8737 7.4C87.0737 7.4 86.4177 7.672 85.9057 8.216C85.3937 8.76 85.1377 9.512 85.1377 10.472C85.1377 11.448 85.3937 12.216 85.9057 12.776C86.4177 13.32 87.0737 13.592 87.8737 13.592ZM109.98 17V10.16L106.644 15.848H104.7L101.46 10.064V17H97.3563V3.992H102.156L105.78 10.784L109.764 3.992H114.06L114.084 17H109.98ZM117.161 3.992H121.697V8.816H126.377V3.992H130.937V17H126.377V12.44H121.697V17H117.161V3.992ZM139.317 3.776C141.477 3.776 143.125 4.272 144.261 5.264C145.397 6.24 145.965 7.744 145.965 9.776V17H141.717V15.32C141.061 16.584 139.781 17.216 137.877 17.216C136.869 17.216 135.997 17.04 135.261 16.688C134.525 16.336 133.965 15.864 133.581 15.272C133.213 14.664 133.029 13.976 133.029 13.208C133.029 11.976 133.501 11.024 134.445 10.352C135.389 9.664 136.845 9.32 138.813 9.32H141.405C141.325 7.944 140.405 7.256 138.645 7.256C138.021 7.256 137.389 7.36 136.749 7.568C136.109 7.76 135.565 8.032 135.117 8.384L133.581 5.288C134.301 4.808 135.173 4.44 136.197 4.184C137.237 3.912 138.277 3.776 139.317 3.776ZM139.149 14.336C139.677 14.336 140.141 14.208 140.541 13.952C140.941 13.696 141.229 13.32 141.405 12.824V11.696H139.437C138.109 11.696 137.445 12.136 137.445 13.016C137.445 13.416 137.597 13.736 137.901 13.976C138.205 14.216 138.621 14.336 139.149 14.336ZM160.324 7.616H156.148V17H151.612V7.616H147.412V3.992H160.324V7.616ZM162.091 3.992H166.627V8.816H171.307V3.992H175.867V17H171.307V12.44H166.627V17H162.091V3.992ZM184.246 3.776C186.406 3.776 188.054 4.272 189.19 5.264C190.326 6.24 190.894 7.744 190.894 9.776V17H186.646V15.32C185.99 16.584 184.71 17.216 182.806 17.216C181.798 17.216 180.926 17.04 180.19 16.688C179.454 16.336 178.894 15.864 178.51 15.272C178.142 14.664 177.958 13.976 177.958 13.208C177.958 11.976 178.43 11.024 179.374 10.352C180.318 9.664 181.774 9.32 183.742 9.32H186.334C186.254 7.944 185.334 7.256 183.574 7.256C182.95 7.256 182.318 7.36 181.678 7.568C181.038 7.76 180.494 8.032 180.046 8.384L178.51 5.288C179.23 4.808 180.102 4.44 181.126 4.184C182.166 3.912 183.206 3.776 184.246 3.776ZM184.078 14.336C184.606 14.336 185.07 14.208 185.47 13.952C185.87 13.696 186.158 13.32 186.334 12.824V11.696H184.366C183.038 11.696 182.374 12.136 182.374 13.016C182.374 13.416 182.526 13.736 182.83 13.976C183.134 14.216 183.55 14.336 184.078 14.336ZM205.878 3.992V17H201.822V13.472H199.758L197.454 17H192.63L195.51 12.848C194.646 12.464 193.982 11.944 193.518 11.288C193.07 10.616 192.846 9.816 192.846 8.888C192.846 7.336 193.422 6.136 194.574 5.288C195.726 4.424 197.31 3.992 199.326 3.992H205.878ZM199.422 7.592C198.142 7.592 197.502 8.08 197.502 9.056C197.502 9.568 197.654 9.944 197.958 10.184C198.278 10.424 198.758 10.544 199.398 10.544H201.822V7.592H199.422ZM222.023 12.368H220.487V17H215.927V3.992H220.487V8.792H222.119L225.311 3.992H230.135L225.767 10.232L230.423 17H225.047L222.023 12.368ZM242.422 10.184C243.91 10.68 244.654 11.704 244.654 13.256C244.654 14.424 244.198 15.344 243.286 16.016C242.374 16.672 241.03 17 239.254 17H231.934V3.992H238.918C240.614 3.992 241.926 4.288 242.854 4.88C243.798 5.472 244.27 6.304 244.27 7.376C244.27 8 244.11 8.552 243.79 9.032C243.47 9.512 243.014 9.896 242.422 10.184ZM236.014 9.224H238.51C239.566 9.224 240.094 8.832 240.094 8.048C240.094 7.296 239.566 6.92 238.51 6.92H236.014V9.224ZM238.846 14.048C239.95 14.048 240.502 13.648 240.502 12.848C240.502 12.048 239.966 11.648 238.894 11.648H236.014V14.048H238.846ZM252.262 3.776C254.422 3.776 256.07 4.272 257.206 5.264C258.342 6.24 258.91 7.744 258.91 9.776V17H254.662V15.32C254.006 16.584 252.726 17.216 250.822 17.216C249.814 17.216 248.942 17.04 248.206 16.688C247.47 16.336 246.91 15.864 246.526 15.272C246.158 14.664 245.974 13.976 245.974 13.208C245.974 11.976 246.446 11.024 247.39 10.352C248.334 9.664 249.79 9.32 251.758 9.32H254.35C254.27 7.944 253.35 7.256 251.59 7.256C250.966 7.256 250.334 7.36 249.694 7.568C249.054 7.76 248.51 8.032 248.062 8.384L246.526 5.288C247.246 4.808 248.118 4.44 249.142 4.184C250.182 3.912 251.222 3.776 252.262 3.776ZM252.094 14.336C252.622 14.336 253.086 14.208 253.486 13.952C253.886 13.696 254.174 13.32 254.35 12.824V11.696H252.382C251.054 11.696 250.39 12.136 250.39 13.016C250.39 13.416 250.542 13.736 250.846 13.976C251.15 14.216 251.566 14.336 252.094 14.336ZM269.837 3.776C271.021 3.776 272.093 4.056 273.053 4.616C274.029 5.16 274.797 5.944 275.357 6.968C275.933 7.976 276.221 9.152 276.221 10.496C276.221 11.84 275.933 13.024 275.357 14.048C274.797 15.056 274.029 15.84 273.053 16.4C272.093 16.944 271.021 17.216 269.837 17.216C268.317 17.216 267.109 16.76 266.213 15.848V21.656H261.653V3.992H265.997V5.288C266.845 4.28 268.125 3.776 269.837 3.776ZM268.877 13.592C269.677 13.592 270.333 13.32 270.845 12.776C271.357 12.216 271.613 11.456 271.613 10.496C271.613 9.536 271.357 8.784 270.845 8.24C270.333 7.68 269.677 7.4 268.877 7.4C268.077 7.4 267.421 7.68 266.909 8.24C266.397 8.784 266.141 9.536 266.141 10.496C266.141 11.456 266.397 12.216 266.909 12.776C267.421 13.32 268.077 13.592 268.877 13.592ZM289.558 7.616H285.382V17H280.846V7.616H276.646V3.992H289.558V7.616ZM291.325 3.992H295.861V10.808L301.309 3.992H305.509V17H300.949V10.16L295.549 17H291.325V3.992ZM316.759 3.776C317.943 3.776 319.015 4.056 319.975 4.616C320.951 5.16 321.719 5.944 322.279 6.968C322.855 7.976 323.143 9.152 323.143 10.496C323.143 11.84 322.855 13.024 322.279 14.048C321.719 15.056 320.951 15.84 319.975 16.4C319.015 16.944 317.943 17.216 316.759 17.216C315.239 17.216 314.031 16.76 313.135 15.848V21.656H308.575V3.992H312.919V5.288C313.767 4.28 315.047 3.776 316.759 3.776ZM315.799 13.592C316.599 13.592 317.255 13.32 317.767 12.776C318.279 12.216 318.535 11.456 318.535 10.496C318.535 9.536 318.279 8.784 317.767 8.24C317.255 7.68 316.599 7.4 315.799 7.4C314.999 7.4 314.343 7.68 313.831 8.24C313.319 8.784 313.063 9.536 313.063 10.496C313.063 11.456 313.319 12.216 313.831 12.776C314.343 13.32 314.999 13.592 315.799 13.592ZM330.356 3.776C332.516 3.776 334.164 4.272 335.3 5.264C336.436 6.24 337.004 7.744 337.004 9.776V17H332.756V15.32C332.1 16.584 330.82 17.216 328.916 17.216C327.908 17.216 327.036 17.04 326.3 16.688C325.564 16.336 325.004 15.864 324.62 15.272C324.252 14.664 324.068 13.976 324.068 13.208C324.068 11.976 324.54 11.024 325.484 10.352C326.428 9.664 327.884 9.32 329.852 9.32H332.444C332.364 7.944 331.444 7.256 329.684 7.256C329.06 7.256 328.428 7.36 327.788 7.568C327.148 7.76 326.604 8.032 326.156 8.384L324.62 5.288C325.34 4.808 326.212 4.44 327.236 4.184C328.276 3.912 329.316 3.776 330.356 3.776ZM330.188 14.336C330.716 14.336 331.18 14.208 331.58 13.952C331.98 13.696 332.268 13.32 332.444 12.824V11.696H330.476C329.148 11.696 328.484 12.136 328.484 13.016C328.484 13.416 328.636 13.736 328.94 13.976C329.244 14.216 329.66 14.336 330.188 14.336Z" fill="white"/>
</svg>
